<svg width="1445" height="406" viewBox="0 0 1445 406" fill="none" xmlns="http://www.w3.org/2000/svg">
<path opacity="0.02" d="M519.474 183.62L589.547 86.1277L733.502 86.5207L733.986 184.647L519.474 183.62Z" fill="url(#paint0_linear_342_1715)"/>
<path opacity="0.01" d="M168.624 85.099L303.238 0.00146484H482.079L383.197 86.5198L168.624 85.099Z" fill="url(#paint1_linear_342_1715)"/>
<path opacity="0.02" d="M161.913 285.071L279.75 183.619H519.474L448.071 285.071H161.913Z" fill="url(#paint2_linear_342_1715)"/>
<path opacity="0.02" d="M1115.52 85.1003L917.634 86.5212L979.061 183.62H1208.66L1115.52 85.1003Z" fill="url(#paint3_linear_342_1715)"/>
<path opacity="0.02" d="M982.145 183.619L733.986 184.647L734.772 285.071H1045.87L982.145 183.619Z" fill="url(#paint4_linear_342_1715)"/>
<path opacity="0.01" d="M1115.52 85.099L1031.24 0.00146484H1201.74L1324.62 85.099H1115.52Z" fill="url(#paint5_linear_342_1715)"/>
<path d="M477.001 2.33027C477.273 2.6628 377.06 93.0204 253.298 204.237C129.536 315.453 28.5378 405.327 28.2355 404.995C27.9332 404.662 128.176 314.304 252.119 203.058C376.062 91.8112 476.698 1.99774 477.001 2.33027Z" fill="url(#paint6_linear_342_1715)"/>
<path d="M296.799 2.33018C297.011 2.69294 230.777 45.8917 148.823 98.8245C66.8695 151.757 0.242501 194.351 0.000660169 193.989C-0.24118 193.626 65.9928 150.427 148.128 97.4944C230.263 44.5616 296.557 1.96742 296.799 2.33018Z" fill="url(#paint7_linear_342_1715)"/>
<path d="M636.857 16.7803C637.22 17.0524 576.699 103.661 501.699 210.253C426.698 316.844 365.663 403.03 365.27 402.788C364.877 402.546 425.398 315.937 500.429 209.316C575.46 102.694 636.494 16.5989 636.857 16.7803Z" fill="url(#paint8_linear_342_1715)"/>
<path d="M1030.12 0.00222066C1030.45 -0.30008 1120.14 90.118 1230.48 201.939C1340.82 313.76 1430 404.692 1429.73 404.994C1429.46 405.296 1339.74 314.909 1229.37 203.057C1119 91.2062 1029.82 0.304521 1030.12 0.00222066Z" fill="url(#paint9_linear_342_1715)"/>
<path d="M1201.74 0.00258811C1202.01 -0.360172 1256.57 37.4576 1323.65 84.4351C1390.73 131.413 1444.91 169.835 1444.57 170.198C1444.24 170.56 1389.77 132.743 1322.69 85.735C1255.61 38.7272 1201.49 0.365349 1201.74 0.00258811Z" fill="url(#paint10_linear_342_1715)"/>
<path d="M865.608 0.00194853C865.971 -0.239892 923.619 90.2386 994.327 202.06C1065.04 313.88 1122.11 404.782 1121.75 404.994C1121.38 405.205 1063.74 314.757 992.997 202.906C922.259 91.0548 865.215 0.213559 865.608 0.00194853Z" fill="url(#paint11_linear_342_1715)"/>
<path d="M733.503 7.52954C733.956 7.52954 734.591 96.5268 734.924 206.262C735.256 315.997 735.196 405.024 734.772 405.024C734.349 405.024 733.684 316.057 733.352 206.262C733.019 96.4663 733.079 7.52954 733.503 7.52954Z" fill="url(#paint12_linear_342_1715)"/>
<path d="M1437.8 86.1283C1437.8 86.5817 1117.7 86.9143 722.952 86.9143C328.208 86.9143 8.04199 86.5817 8.04199 86.1283C8.04199 85.6748 328.057 85.3423 722.952 85.3423C1117.85 85.3423 1437.8 85.7051 1437.8 86.1283Z" fill="url(#paint13_linear_342_1715)"/>
<path d="M1429.73 183.619C1429.73 184.073 1111.26 184.405 718.478 184.405C325.699 184.405 7.07471 184.073 7.07471 183.619C7.07471 183.166 325.548 182.864 718.478 182.864C1111.41 182.864 1429.73 183.196 1429.73 183.619Z" fill="url(#paint14_linear_342_1715)"/>
<path d="M1438.68 285.073C1438.68 285.496 1118.24 285.859 722.952 285.859C327.664 285.859 7.07471 285.647 7.07471 285.073C7.07471 284.498 327.513 284.287 722.892 284.287C1118.27 284.287 1438.68 284.619 1438.68 285.073Z" fill="url(#paint15_linear_342_1715)"/>
<defs>
<linearGradient id="paint0_linear_342_1715" x1="783.93" y1="9.77491" x2="710.346" y2="351.117" gradientUnits="userSpaceOnUse">
<stop offset="0.365638" stop-color="#3F37C9"/>
<stop offset="1" stop-color="#4CC9F0"/>
</linearGradient>
<linearGradient id="paint1_linear_342_1715" x1="555.059" y1="-67.0503" x2="515.09" y2="241.463" gradientUnits="userSpaceOnUse">
<stop offset="0.365638" stop-color="#3F37C9"/>
<stop offset="1" stop-color="#4CC9F0"/>
</linearGradient>
<linearGradient id="paint2_linear_342_1715" x1="602.723" y1="104.994" x2="554.589" y2="466.42" gradientUnits="userSpaceOnUse">
<stop offset="0.365638" stop-color="#3F37C9"/>
<stop offset="1" stop-color="#4CC9F0"/>
</linearGradient>
<linearGradient id="paint3_linear_342_1715" x1="1276.42" y1="8.74757" x2="1221.06" y2="357.156" gradientUnits="userSpaceOnUse">
<stop offset="0.365638" stop-color="#3F37C9"/>
<stop offset="1" stop-color="#4CC9F0"/>
</linearGradient>
<linearGradient id="paint4_linear_342_1715" x1="1118.48" y1="104.994" x2="1063.6" y2="464.451" gradientUnits="userSpaceOnUse">
<stop offset="0.365638" stop-color="#3F37C9"/>
<stop offset="1" stop-color="#4CC9F0"/>
</linearGradient>
<linearGradient id="paint5_linear_342_1715" x1="1392.93" y1="-65.9491" x2="1351.69" y2="236.976" gradientUnits="userSpaceOnUse">
<stop offset="0.365638" stop-color="#3F37C9"/>
<stop offset="1" stop-color="#4CC9F0"/>
</linearGradient>
<linearGradient id="paint6_linear_342_1715" x1="268.044" y1="-726.715" x2="112.578" y2="385.419" gradientUnits="userSpaceOnUse">
<stop stop-color="white"/>
<stop offset="0.966118" stop-color="white" stop-opacity="0"/>
</linearGradient>
<linearGradient id="paint7_linear_342_1715" x1="158.602" y1="-344.687" x2="104.848" y2="189.609" gradientUnits="userSpaceOnUse">
<stop stop-color="white"/>
<stop offset="0.966118" stop-color="white" stop-opacity="0"/>
</linearGradient>
<linearGradient id="paint8_linear_342_1715" x1="510.4" y1="-682.105" x2="280.963" y2="354.051" gradientUnits="userSpaceOnUse">
<stop stop-color="white"/>
<stop offset="0.966118" stop-color="white" stop-opacity="0"/>
</linearGradient>
<linearGradient id="paint9_linear_342_1715" x1="1243.66" y1="-733.257" x2="1067.98" y2="379.424" gradientUnits="userSpaceOnUse">
<stop stop-color="white"/>
<stop offset="0.966118" stop-color="white" stop-opacity="0"/>
</linearGradient>
<linearGradient id="paint10_linear_342_1715" x1="1331.5" y1="-308.155" x2="1279.79" y2="165.465" gradientUnits="userSpaceOnUse">
<stop stop-color="white"/>
<stop offset="0.966118" stop-color="white" stop-opacity="0"/>
</linearGradient>
<linearGradient id="paint11_linear_342_1715" x1="1002.48" y1="-733.256" x2="737.632" y2="341.922" gradientUnits="userSpaceOnUse">
<stop stop-color="white"/>
<stop offset="0.966118" stop-color="white" stop-opacity="0"/>
</linearGradient>
<linearGradient id="paint12_linear_342_1715" x1="734.206" y1="-712.152" x2="698.118" y2="-710.988" gradientUnits="userSpaceOnUse">
<stop stop-color="white"/>
<stop offset="0.966118" stop-color="white" stop-opacity="0"/>
</linearGradient>
<linearGradient id="paint13_linear_342_1715" x1="772.07" y1="82.4961" x2="772.069" y2="86.9227" gradientUnits="userSpaceOnUse">
<stop stop-color="white"/>
<stop offset="0.966118" stop-color="white" stop-opacity="0"/>
</linearGradient>
<linearGradient id="paint14_linear_342_1715" x1="767.307" y1="180.072" x2="767.306" y2="184.414" gradientUnits="userSpaceOnUse">
<stop stop-color="white"/>
<stop offset="0.966118" stop-color="white" stop-opacity="0"/>
</linearGradient>
<linearGradient id="paint15_linear_342_1715" x1="772.088" y1="281.44" x2="772.088" y2="285.867" gradientUnits="userSpaceOnUse">
<stop stop-color="white"/>
<stop offset="0.966118" stop-color="white" stop-opacity="0"/>
</linearGradient>
</defs>
</svg>
