<svg width="1792" height="700" viewBox="0 0 1792 700" fill="none" xmlns="http://www.w3.org/2000/svg">
<path opacity="0.02" d="M701.213 199.957L765.797 93.7908L898.476 94.2187L898.922 201.076L701.213 199.957Z" fill="url(#paint0_linear_364_2456)"/>
<path opacity="0.01" d="M377.847 92.6704L501.916 0.00146484H666.748L575.611 94.2177L377.847 92.6704Z" fill="url(#paint1_linear_364_2456)"/>
<path opacity="0.02" d="M371.661 310.435L480.267 199.957H701.213L635.403 310.435H371.661Z" fill="url(#paint2_linear_364_2456)"/>
<path opacity="0.02" d="M0 426.826L103.801 313.685L368.818 312.165L259.559 426.826H0Z" fill="url(#paint3_linear_364_2456)"/>
<path opacity="0.02" d="M1249.42 426.826L1191.62 314.826L1436.11 311.784L1525.84 426.826H1249.42Z" fill="url(#paint4_linear_364_2456)"/>
<path opacity="0.02" d="M564.254 425.852L632.314 313.305L897.711 313.306V425.852L564.254 425.852Z" fill="url(#paint5_linear_364_2456)"/>
<path opacity="0.02" d="M1250.57 92.6724L1068.18 94.2196L1124.8 199.958H1336.41L1250.57 92.6724Z" fill="url(#paint6_linear_364_2456)"/>
<path opacity="0.02" d="M1127.64 199.957L898.922 201.076L899.646 310.436H1186.37L1127.64 199.957Z" fill="url(#paint7_linear_364_2456)"/>
<path opacity="0.01" d="M1250.57 92.6705L1172.89 0.00146484H1330.03L1443.29 92.6705H1250.57Z" fill="url(#paint8_linear_364_2456)"/>
<path d="M661.971 2.28267C662.325 2.79448 531.908 141.869 370.844 313.049C209.78 484.228 78.3406 622.558 77.9472 622.046C77.5538 621.535 208.01 482.46 369.31 311.234C530.61 140.008 661.578 1.77085 661.971 2.28267Z" fill="url(#paint9_linear_364_2456)"/>
<path d="M496.193 2.28546C496.52 2.94898 394.02 81.9631 267.193 178.781C140.366 275.6 37.2571 353.508 36.8829 352.844C36.5086 352.181 139.009 273.167 266.117 176.349C393.225 79.5301 495.818 1.62194 496.193 2.28546Z" fill="url(#paint10_linear_364_2456)"/>
<path d="M809.497 18.2512C810.038 18.7229 719.717 168.871 607.787 353.661C495.856 538.451 404.769 687.865 404.182 687.446C403.596 687.026 493.916 536.878 605.892 352.036C717.868 167.194 808.955 17.9368 809.497 18.2512Z" fill="url(#paint11_linear_364_2456)"/>
<path d="M1172.23 0.00106439C1172.63 -0.424654 1279.48 126.908 1410.92 284.381C1542.36 441.854 1648.6 569.911 1648.27 570.336C1647.95 570.762 1541.07 443.472 1409.59 285.956C1278.11 128.44 1171.87 0.426783 1172.23 0.00106439Z" fill="url(#paint12_linear_364_2456)"/>
<path d="M1330.41 0.00557366C1330.9 -0.775653 1430.18 80.6672 1552.22 181.836C1674.27 283.005 1772.83 365.75 1772.23 366.531C1771.62 367.312 1672.51 285.87 1550.46 184.635C1428.42 83.4015 1329.97 0.786801 1330.41 0.00557366Z" fill="url(#paint13_linear_364_2456)"/>
<path d="M1020.15 0.000776517C1020.64 -0.387479 1099.03 144.869 1195.17 324.389C1291.31 503.908 1368.92 649.844 1368.43 650.184C1367.93 650.524 1289.55 505.316 1193.36 325.747C1097.18 146.179 1019.61 0.3405 1020.15 0.000776517Z" fill="url(#paint14_linear_364_2456)"/>
<path d="M898.266 8.36499C898.956 8.36499 899.922 163.132 900.428 353.963C900.934 544.794 900.842 699.614 900.198 699.614C899.554 699.614 898.542 544.899 898.036 353.963C897.53 163.027 897.622 8.36499 898.266 8.36499Z" fill="url(#paint15_linear_364_2456)"/>
<path d="M1547.61 93.7915C1547.61 94.2853 1252.57 94.6474 888.752 94.6474C524.93 94.6474 229.844 94.2853 229.844 93.7915C229.844 93.2977 524.791 92.9355 888.752 92.9355C1252.71 92.9355 1547.61 93.3306 1547.61 93.7915Z" fill="url(#paint16_linear_364_2456)"/>
<path d="M1632.31 199.957C1632.31 200.451 1306.31 200.813 904.252 200.813C502.195 200.813 176.044 200.451 176.044 199.957C176.044 199.463 502.04 199.134 904.252 199.134C1306.46 199.134 1632.31 199.496 1632.31 199.957Z" fill="url(#paint17_linear_364_2456)"/>
<path d="M1792 313.368C1792 313.862 1414.93 314.224 949.891 314.224C484.849 314.224 107.604 313.862 107.604 313.368C107.604 312.874 484.67 312.545 949.891 312.545C1415.11 312.545 1792 312.907 1792 313.368Z" fill="url(#paint18_linear_364_2456)"/>
<path d="M1792 426.675C1792 427.169 1414.93 427.531 949.891 427.531C484.849 427.531 107.604 427.169 107.604 426.675C107.604 426.181 484.67 425.852 949.891 425.852C1415.11 425.852 1792 426.214 1792 426.675Z" fill="url(#paint19_linear_364_2456)"/>
<defs>
<linearGradient id="paint0_linear_364_2456" x1="944.953" y1="10.6446" x2="851.913" y2="375.934" gradientUnits="userSpaceOnUse">
<stop offset="0.365638" stop-color="#3F37C9"/>
<stop offset="1" stop-color="#4CC9F0"/>
</linearGradient>
<linearGradient id="paint1_linear_364_2456" x1="734.011" y1="-73.0161" x2="682.919" y2="260.765" gradientUnits="userSpaceOnUse">
<stop offset="0.365638" stop-color="#3F37C9"/>
<stop offset="1" stop-color="#4CC9F0"/>
</linearGradient>
<linearGradient id="paint2_linear_364_2456" x1="777.941" y1="114.336" x2="716.434" y2="505.222" gradientUnits="userSpaceOnUse">
<stop offset="0.365638" stop-color="#3F37C9"/>
<stop offset="1" stop-color="#4CC9F0"/>
</linearGradient>
<linearGradient id="paint3_linear_364_2456" x1="454.688" y1="223.302" x2="395.289" y2="630.363" gradientUnits="userSpaceOnUse">
<stop offset="0.365638" stop-color="#3F37C9"/>
<stop offset="1" stop-color="#4CC9F0"/>
</linearGradient>
<linearGradient id="paint4_linear_364_2456" x1="1603.66" y1="222.627" x2="1537.98" y2="629.124" gradientUnits="userSpaceOnUse">
<stop offset="0.365638" stop-color="#3F37C9"/>
<stop offset="1" stop-color="#4CC9F0"/>
</linearGradient>
<linearGradient id="paint5_linear_364_2456" x1="975.348" y1="226.082" x2="912.285" y2="624.154" gradientUnits="userSpaceOnUse">
<stop offset="0.365638" stop-color="#3F37C9"/>
<stop offset="1" stop-color="#4CC9F0"/>
</linearGradient>
<linearGradient id="paint6_linear_364_2456" x1="1398.86" y1="9.52622" x2="1328.32" y2="385.269" gradientUnits="userSpaceOnUse">
<stop offset="0.365638" stop-color="#3F37C9"/>
<stop offset="1" stop-color="#4CC9F0"/>
</linearGradient>
<linearGradient id="paint7_linear_364_2456" x1="1253.3" y1="114.336" x2="1183.32" y2="502.276" gradientUnits="userSpaceOnUse">
<stop offset="0.365638" stop-color="#3F37C9"/>
<stop offset="1" stop-color="#4CC9F0"/>
</linearGradient>
<linearGradient id="paint8_linear_364_2456" x1="1506.25" y1="-71.817" x2="1453.56" y2="255.7" gradientUnits="userSpaceOnUse">
<stop offset="0.365638" stop-color="#3F37C9"/>
<stop offset="1" stop-color="#4CC9F0"/>
</linearGradient>
<linearGradient id="paint9_linear_364_2456" x1="390.035" y1="-1119.83" x2="109.178" y2="578.933" gradientUnits="userSpaceOnUse">
<stop stop-color="white"/>
<stop offset="0.966118" stop-color="white" stop-opacity="0"/>
</linearGradient>
<linearGradient id="paint10_linear_364_2456" x1="282.327" y1="-632.436" x2="166.58" y2="340.963" gradientUnits="userSpaceOnUse">
<stop stop-color="white"/>
<stop offset="0.966118" stop-color="white" stop-opacity="0"/>
</linearGradient>
<linearGradient id="paint11_linear_364_2456" x1="620.772" y1="-1193.36" x2="166.143" y2="574.089" gradientUnits="userSpaceOnUse">
<stop stop-color="white"/>
<stop offset="0.966118" stop-color="white" stop-opacity="0"/>
</linearGradient>
<linearGradient id="paint12_linear_364_2456" x1="1426.62" y1="-1032.62" x2="1136.94" y2="519.321" gradientUnits="userSpaceOnUse">
<stop stop-color="white"/>
<stop offset="0.966118" stop-color="white" stop-opacity="0"/>
</linearGradient>
<linearGradient id="paint13_linear_364_2456" x1="1566.51" y1="-663.631" x2="1435.3" y2="351.541" gradientUnits="userSpaceOnUse">
<stop stop-color="white"/>
<stop offset="0.966118" stop-color="white" stop-opacity="0"/>
</linearGradient>
<linearGradient id="paint14_linear_364_2456" x1="1206.26" y1="-1177.19" x2="715.301" y2="510.876" gradientUnits="userSpaceOnUse">
<stop stop-color="white"/>
<stop offset="0.966118" stop-color="white" stop-opacity="0"/>
</linearGradient>
<linearGradient id="paint15_linear_364_2456" x1="899.336" y1="-1243.17" x2="844.402" y2="-1241.62" gradientUnits="userSpaceOnUse">
<stop stop-color="white"/>
<stop offset="0.966118" stop-color="white" stop-opacity="0"/>
</linearGradient>
<linearGradient id="paint16_linear_364_2456" x1="934.023" y1="89.8361" x2="934.022" y2="94.6566" gradientUnits="userSpaceOnUse">
<stop stop-color="white"/>
<stop offset="0.966118" stop-color="white" stop-opacity="0"/>
</linearGradient>
<linearGradient id="paint17_linear_364_2456" x1="954.234" y1="196.094" x2="954.233" y2="200.822" gradientUnits="userSpaceOnUse">
<stop stop-color="white"/>
<stop offset="0.966118" stop-color="white" stop-opacity="0"/>
</linearGradient>
<linearGradient id="paint18_linear_364_2456" x1="1007.7" y1="309.505" x2="1007.7" y2="314.233" gradientUnits="userSpaceOnUse">
<stop stop-color="white"/>
<stop offset="0.966118" stop-color="white" stop-opacity="0"/>
</linearGradient>
<linearGradient id="paint19_linear_364_2456" x1="1007.7" y1="422.812" x2="1007.7" y2="427.54" gradientUnits="userSpaceOnUse">
<stop stop-color="white"/>
<stop offset="0.966118" stop-color="white" stop-opacity="0"/>
</linearGradient>
</defs>
</svg>
