<svg width="1440" height="6950" viewBox="0 0 1440 6950" fill="none" xmlns="http://www.w3.org/2000/svg">
<g style="mix-blend-mode:overlay">
<line x1="0.538025" x2="0.538025" y2="6950" stroke="white" stroke-opacity="0.2"/>
<line x1="29.3373" x2="29.3373" y2="6950" stroke="white" stroke-opacity="0.2"/>
<line x1="58.1366" x2="58.1366" y2="6950" stroke="white" stroke-opacity="0.2"/>
<line x1="86.9358" x2="86.9358" y2="6950" stroke="white" stroke-opacity="0.2"/>
<line x1="115.735" x2="115.735" y2="6950" stroke="white" stroke-opacity="0.2"/>
<line x1="144.534" x2="144.534" y2="6950" stroke="white" stroke-opacity="0.2"/>
<line x1="173.333" x2="173.333" y2="6950" stroke="white" stroke-opacity="0.2"/>
<line x1="202.133" x2="202.133" y2="6950" stroke="white" stroke-opacity="0.2"/>
<line x1="230.932" x2="230.932" y2="6950" stroke="white" stroke-opacity="0.2"/>
<line x1="259.731" x2="259.731" y2="6950" stroke="white" stroke-opacity="0.2"/>
<line x1="288.531" x2="288.531" y2="6950" stroke="white" stroke-opacity="0.2"/>
<line x1="317.33" x2="317.33" y2="6950" stroke="white" stroke-opacity="0.2"/>
<line x1="346.129" x2="346.129" y2="6950" stroke="white" stroke-opacity="0.2"/>
<line x1="374.928" x2="374.928" y2="6950" stroke="white" stroke-opacity="0.2"/>
<line x1="403.727" x2="403.727" y2="6950" stroke="white" stroke-opacity="0.2"/>
<line x1="432.527" x2="432.527" y2="6950" stroke="white" stroke-opacity="0.2"/>
<line x1="461.326" x2="461.326" y2="6950" stroke="white" stroke-opacity="0.2"/>
<line x1="490.125" x2="490.125" y2="6950" stroke="white" stroke-opacity="0.2"/>
<line x1="518.924" x2="518.924" y2="6950" stroke="white" stroke-opacity="0.2"/>
<line x1="547.724" x2="547.724" y2="6950" stroke="white" stroke-opacity="0.2"/>
<line x1="576.523" x2="576.523" y2="6950" stroke="white" stroke-opacity="0.2"/>
<line x1="605.322" x2="605.322" y2="6950" stroke="white" stroke-opacity="0.2"/>
<line x1="634.121" x2="634.121" y2="6950" stroke="white" stroke-opacity="0.2"/>
<line x1="662.921" x2="662.921" y2="6950" stroke="white" stroke-opacity="0.2"/>
<line x1="691.72" x2="691.72" y2="6950" stroke="white" stroke-opacity="0.2"/>
<line x1="720.519" x2="720.519" y2="6950" stroke="white" stroke-opacity="0.2"/>
<line x1="749.318" x2="749.318" y2="6950" stroke="white" stroke-opacity="0.2"/>
<line x1="778.118" x2="778.118" y2="6950" stroke="white" stroke-opacity="0.2"/>
<line x1="806.917" x2="806.917" y2="6950" stroke="white" stroke-opacity="0.2"/>
<line x1="835.716" x2="835.716" y2="6950" stroke="white" stroke-opacity="0.2"/>
<line x1="864.515" x2="864.515" y2="6950" stroke="white" stroke-opacity="0.2"/>
<line x1="893.315" x2="893.315" y2="6950" stroke="white" stroke-opacity="0.2"/>
<line x1="922.114" x2="922.114" y2="6950" stroke="white" stroke-opacity="0.2"/>
<line x1="950.913" x2="950.913" y2="6950" stroke="white" stroke-opacity="0.2"/>
<line x1="979.712" x2="979.712" y2="6950" stroke="white" stroke-opacity="0.2"/>
<line x1="1008.51" x2="1008.51" y2="6950" stroke="white" stroke-opacity="0.2"/>
<line x1="1037.31" x2="1037.31" y2="6950" stroke="white" stroke-opacity="0.2"/>
<line x1="1066.11" x2="1066.11" y2="6950" stroke="white" stroke-opacity="0.2"/>
<line x1="1094.91" x2="1094.91" y2="6950" stroke="white" stroke-opacity="0.2"/>
<line x1="1123.71" x2="1123.71" y2="6950" stroke="white" stroke-opacity="0.2"/>
<line x1="1152.51" x2="1152.51" y2="6950" stroke="white" stroke-opacity="0.2"/>
<line x1="1181.31" x2="1181.31" y2="6950" stroke="white" stroke-opacity="0.2"/>
<line x1="1210.11" x2="1210.11" y2="6950" stroke="white" stroke-opacity="0.2"/>
<line x1="1238.91" x2="1238.91" y2="6950" stroke="white" stroke-opacity="0.2"/>
<line x1="1267.7" x2="1267.7" y2="6950" stroke="white" stroke-opacity="0.2"/>
<line x1="1296.5" x2="1296.5" y2="6950" stroke="white" stroke-opacity="0.2"/>
<line x1="1325.3" x2="1325.3" y2="6950" stroke="white" stroke-opacity="0.2"/>
<line x1="1354.1" x2="1354.1" y2="6950" stroke="white" stroke-opacity="0.2"/>
<line x1="1382.9" x2="1382.9" y2="6950" stroke="white" stroke-opacity="0.2"/>
<line x1="1411.7" x2="1411.7" y2="6950" stroke="white" stroke-opacity="0.2"/>
<line x1="1439.96" y1="0.5" x2="0.000549294" y2="0.499939" stroke="white" stroke-opacity="0.2"/>
<line x1="1439.96" y1="28.5" x2="0.000549294" y2="28.4999" stroke="white" stroke-opacity="0.2"/>
<line x1="1439.96" y1="56.5" x2="0.000549294" y2="56.4999" stroke="white" stroke-opacity="0.2"/>
<line x1="1439.96" y1="84.5" x2="0.000549294" y2="84.4999" stroke="white" stroke-opacity="0.2"/>
<line x1="1439.96" y1="112.5" x2="0.000549294" y2="112.5" stroke="white" stroke-opacity="0.2"/>
<line x1="1439.96" y1="140.5" x2="0.000549294" y2="140.5" stroke="white" stroke-opacity="0.2"/>
<line x1="1439.96" y1="168.5" x2="0.000549294" y2="168.5" stroke="white" stroke-opacity="0.2"/>
<line x1="1439.96" y1="196.5" x2="0.000549294" y2="196.5" stroke="white" stroke-opacity="0.2"/>
<line x1="1439.96" y1="224.5" x2="0.000549294" y2="224.5" stroke="white" stroke-opacity="0.2"/>
<line x1="1439.96" y1="252.5" x2="0.000549294" y2="252.5" stroke="white" stroke-opacity="0.2"/>
<line x1="1439.96" y1="280.5" x2="0.000549294" y2="280.5" stroke="white" stroke-opacity="0.2"/>
<line x1="1439.96" y1="308.5" x2="0.000549294" y2="308.5" stroke="white" stroke-opacity="0.2"/>
<line x1="1439.96" y1="336.5" x2="0.000549294" y2="336.5" stroke="white" stroke-opacity="0.2"/>
<line x1="1439.96" y1="364.5" x2="0.000549294" y2="364.5" stroke="white" stroke-opacity="0.2"/>
<line x1="1439.96" y1="392.5" x2="0.000549294" y2="392.5" stroke="white" stroke-opacity="0.2"/>
<line x1="1439.96" y1="420.5" x2="0.000549294" y2="420.5" stroke="white" stroke-opacity="0.2"/>
<line x1="1439.96" y1="448.5" x2="0.000549294" y2="448.5" stroke="white" stroke-opacity="0.2"/>
<line x1="1439.96" y1="476.5" x2="0.000549294" y2="476.5" stroke="white" stroke-opacity="0.2"/>
<line x1="1439.96" y1="504.5" x2="0.000549294" y2="504.5" stroke="white" stroke-opacity="0.2"/>
<line x1="1439.96" y1="532.5" x2="0.000549294" y2="532.5" stroke="white" stroke-opacity="0.2"/>
<line x1="1439.96" y1="560.5" x2="0.000549294" y2="560.5" stroke="white" stroke-opacity="0.2"/>
<line x1="1439.96" y1="588.5" x2="0.000549294" y2="588.5" stroke="white" stroke-opacity="0.2"/>
<line x1="1439.96" y1="616.5" x2="0.000549294" y2="616.5" stroke="white" stroke-opacity="0.2"/>
<line x1="1439.96" y1="644.5" x2="0.000549294" y2="644.5" stroke="white" stroke-opacity="0.2"/>
<line x1="1439.96" y1="672.5" x2="0.000549294" y2="672.5" stroke="white" stroke-opacity="0.2"/>
<line x1="1439.96" y1="700.5" x2="0.000488259" y2="700.5" stroke="white" stroke-opacity="0.2"/>
<line x1="1439.96" y1="728.5" x2="0.000488259" y2="728.5" stroke="white" stroke-opacity="0.2"/>
<line x1="1439.96" y1="756.5" x2="0.000488259" y2="756.5" stroke="white" stroke-opacity="0.2"/>
<line x1="1439.96" y1="784.5" x2="0.000488259" y2="784.5" stroke="white" stroke-opacity="0.2"/>
<line x1="1439.96" y1="812.5" x2="0.000488259" y2="812.5" stroke="white" stroke-opacity="0.2"/>
<line x1="1439.96" y1="840.5" x2="0.000488259" y2="840.5" stroke="white" stroke-opacity="0.2"/>
<line x1="1439.96" y1="868.5" x2="0.000488259" y2="868.5" stroke="white" stroke-opacity="0.2"/>
<line x1="1439.96" y1="896.5" x2="0.000488259" y2="896.5" stroke="white" stroke-opacity="0.2"/>
<line x1="1439.96" y1="924.5" x2="0.000488259" y2="924.5" stroke="white" stroke-opacity="0.2"/>
<line x1="1439.96" y1="952.5" x2="0.000488259" y2="952.5" stroke="white" stroke-opacity="0.2"/>
<line x1="1439.96" y1="980.5" x2="0.000488259" y2="980.5" stroke="white" stroke-opacity="0.2"/>
<line x1="1439.96" y1="1008.5" x2="0.000488259" y2="1008.5" stroke="white" stroke-opacity="0.2"/>
<line x1="1439.96" y1="1036.5" x2="0.000488259" y2="1036.5" stroke="white" stroke-opacity="0.2"/>
<line x1="1439.96" y1="1064.5" x2="0.000488259" y2="1064.5" stroke="white" stroke-opacity="0.2"/>
<line x1="1439.96" y1="1092.5" x2="0.000488259" y2="1092.5" stroke="white" stroke-opacity="0.2"/>
<line x1="1439.96" y1="1120.5" x2="0.000488259" y2="1120.5" stroke="white" stroke-opacity="0.2"/>
<line x1="1439.96" y1="1148.5" x2="0.000488259" y2="1148.5" stroke="white" stroke-opacity="0.2"/>
<line x1="1439.96" y1="1176.5" x2="0.000488259" y2="1176.5" stroke="white" stroke-opacity="0.2"/>
<line x1="1439.96" y1="1204.5" x2="0.000488259" y2="1204.5" stroke="white" stroke-opacity="0.2"/>
<line x1="1439.96" y1="1232.5" x2="0.000488259" y2="1232.5" stroke="white" stroke-opacity="0.2"/>
<line x1="1439.96" y1="1260.5" x2="0.000488259" y2="1260.5" stroke="white" stroke-opacity="0.2"/>
<line x1="1439.96" y1="1288.5" x2="0.000488259" y2="1288.5" stroke="white" stroke-opacity="0.2"/>
<line x1="1439.96" y1="1316.5" x2="0.000488259" y2="1316.5" stroke="white" stroke-opacity="0.2"/>
<line x1="1439.96" y1="1344.5" x2="0.000488259" y2="1344.5" stroke="white" stroke-opacity="0.2"/>
<line x1="1439.96" y1="1372.5" x2="0.000488259" y2="1372.5" stroke="white" stroke-opacity="0.2"/>
<line x1="1439.96" y1="1400.5" x2="0.000488259" y2="1400.5" stroke="white" stroke-opacity="0.2"/>
<line x1="1439.96" y1="1428.5" x2="0.000488259" y2="1428.5" stroke="white" stroke-opacity="0.2"/>
<line x1="1439.96" y1="1456.5" x2="0.000488259" y2="1456.5" stroke="white" stroke-opacity="0.2"/>
<line x1="1439.96" y1="1484.5" x2="0.000488259" y2="1484.5" stroke="white" stroke-opacity="0.2"/>
<line x1="1439.96" y1="1512.5" x2="0.000488259" y2="1512.5" stroke="white" stroke-opacity="0.2"/>
<line x1="1439.96" y1="1540.5" x2="0.000488259" y2="1540.5" stroke="white" stroke-opacity="0.2"/>
<line x1="1439.96" y1="1568.5" x2="0.00146482" y2="1568.5" stroke="white" stroke-opacity="0.2"/>
<line x1="1439.96" y1="1596.5" x2="0.00152586" y2="1596.5" stroke="white" stroke-opacity="0.2"/>
<line x1="1439.96" y1="1624.5" x2="0.00158689" y2="1624.5" stroke="white" stroke-opacity="0.2"/>
<line x1="1439.96" y1="1652.5" x2="0.00164793" y2="1652.5" stroke="white" stroke-opacity="0.2"/>
<line x1="1439.96" y1="1680.5" x2="0.00170896" y2="1680.5" stroke="white" stroke-opacity="0.2"/>
<line x1="1439.96" y1="1708.5" x2="0.00177" y2="1708.5" stroke="white" stroke-opacity="0.2"/>
<line x1="1439.96" y1="1736.5" x2="0.00183103" y2="1736.5" stroke="white" stroke-opacity="0.2"/>
<line x1="1439.96" y1="1764.5" x2="0.00189207" y2="1764.5" stroke="white" stroke-opacity="0.2"/>
<line x1="1439.96" y1="1792.5" x2="0.0019531" y2="1792.5" stroke="white" stroke-opacity="0.2"/>
<line x1="1439.96" y1="1820.5" x2="0.00201414" y2="1820.5" stroke="white" stroke-opacity="0.2"/>
<line x1="1439.96" y1="1848.5" x2="0.00207517" y2="1848.5" stroke="white" stroke-opacity="0.2"/>
<line x1="1439.96" y1="1876.5" x2="0.00213621" y2="1876.5" stroke="white" stroke-opacity="0.2"/>
<line x1="1439.96" y1="1904.5" x2="0.00219724" y2="1904.5" stroke="white" stroke-opacity="0.2"/>
<line x1="1439.96" y1="1932.5" x2="0.00231931" y2="1932.5" stroke="white" stroke-opacity="0.2"/>
<line x1="1439.96" y1="1960.5" x2="0.00238035" y2="1960.5" stroke="white" stroke-opacity="0.2"/>
<line x1="1439.96" y1="1988.5" x2="0.00244138" y2="1988.5" stroke="white" stroke-opacity="0.2"/>
<line x1="1439.96" y1="2016.5" x2="0.00250242" y2="2016.5" stroke="white" stroke-opacity="0.2"/>
<line x1="1439.96" y1="2044.5" x2="0.00256345" y2="2044.5" stroke="white" stroke-opacity="0.2"/>
<line x1="1439.96" y1="2072.5" x2="0.00262449" y2="2072.5" stroke="white" stroke-opacity="0.2"/>
<line x1="1439.96" y1="2100.5" x2="0.00268552" y2="2100.5" stroke="white" stroke-opacity="0.2"/>
<line x1="1439.96" y1="2128.5" x2="0.00274656" y2="2128.5" stroke="white" stroke-opacity="0.2"/>
<line x1="1439.96" y1="2156.5" x2="0.00280759" y2="2156.5" stroke="white" stroke-opacity="0.2"/>
<line x1="1439.97" y1="2184.5" x2="0.00286863" y2="2184.5" stroke="white" stroke-opacity="0.2"/>
<line x1="1439.97" y1="2212.5" x2="0.00292966" y2="2212.5" stroke="white" stroke-opacity="0.2"/>
<line x1="1439.97" y1="2240.5" x2="0.0029907" y2="2240.5" stroke="white" stroke-opacity="0.2"/>
<line x1="1439.97" y1="2268.5" x2="0.00305174" y2="2268.5" stroke="white" stroke-opacity="0.2"/>
<line x1="1439.97" y1="2296.5" x2="0.00305174" y2="2296.5" stroke="white" stroke-opacity="0.2"/>
<line x1="1439.97" y1="2324.5" x2="0.00311277" y2="2324.5" stroke="white" stroke-opacity="0.2"/>
<line x1="1439.97" y1="2352.5" x2="0.00317381" y2="2352.5" stroke="white" stroke-opacity="0.2"/>
<line x1="1439.97" y1="2380.5" x2="0.00323484" y2="2380.5" stroke="white" stroke-opacity="0.2"/>
<line x1="1439.97" y1="2408.5" x2="0.00329588" y2="2408.5" stroke="white" stroke-opacity="0.2"/>
<line x1="1439.97" y1="2436.5" x2="0.00335691" y2="2436.5" stroke="white" stroke-opacity="0.2"/>
<line x1="1439.97" y1="2464.5" x2="0.00341795" y2="2464.5" stroke="white" stroke-opacity="0.2"/>
<line x1="1439.97" y1="2492.5" x2="0.00347898" y2="2492.5" stroke="white" stroke-opacity="0.2"/>
<line x1="1439.97" y1="2520.5" x2="0.00354002" y2="2520.5" stroke="white" stroke-opacity="0.2"/>
<line x1="1439.97" y1="2548.5" x2="0.00360105" y2="2548.5" stroke="white" stroke-opacity="0.2"/>
<line x1="1439.97" y1="2576.5" x2="0.00366209" y2="2576.5" stroke="white" stroke-opacity="0.2"/>
<line x1="1439.97" y1="2604.5" x2="0.00372312" y2="2604.5" stroke="white" stroke-opacity="0.2"/>
<line x1="1439.97" y1="2632.5" x2="0.00378416" y2="2632.5" stroke="white" stroke-opacity="0.2"/>
<line x1="1439.97" y1="2660.5" x2="0.00384519" y2="2660.5" stroke="white" stroke-opacity="0.2"/>
<line x1="1439.97" y1="2688.5" x2="0.00390623" y2="2688.5" stroke="white" stroke-opacity="0.2"/>
<line x1="1439.97" y1="2716.5" x2="0.00396726" y2="2716.5" stroke="white" stroke-opacity="0.2"/>
<line x1="1439.97" y1="2744.5" x2="0.0040283" y2="2744.5" stroke="white" stroke-opacity="0.2"/>
<line x1="1439.97" y1="2772.5" x2="0.00408933" y2="2772.5" stroke="white" stroke-opacity="0.2"/>
<line x1="1439.97" y1="2800.5" x2="0.00415037" y2="2800.5" stroke="white" stroke-opacity="0.2"/>
<line x1="1439.97" y1="2828.5" x2="0.0042114" y2="2828.5" stroke="white" stroke-opacity="0.2"/>
<line x1="1439.97" y1="2856.5" x2="0.00427244" y2="2856.5" stroke="white" stroke-opacity="0.2"/>
<line x1="1439.97" y1="2884.5" x2="0.00433347" y2="2884.5" stroke="white" stroke-opacity="0.2"/>
<line x1="1439.97" y1="2912.5" x2="0.00439451" y2="2912.5" stroke="white" stroke-opacity="0.2"/>
<line x1="1439.97" y1="2940.5" x2="0.00445554" y2="2940.5" stroke="white" stroke-opacity="0.2"/>
<line x1="1439.97" y1="2968.5" x2="0.00451658" y2="2968.5" stroke="white" stroke-opacity="0.2"/>
<line x1="1439.97" y1="2996.5" x2="0.00457761" y2="2996.5" stroke="white" stroke-opacity="0.2"/>
<line x1="1439.97" y1="3024.5" x2="0.00463865" y2="3024.5" stroke="white" stroke-opacity="0.2"/>
<line x1="1439.97" y1="3052.5" x2="0.00469968" y2="3052.5" stroke="white" stroke-opacity="0.2"/>
<line x1="1439.97" y1="3080.5" x2="0.00476072" y2="3080.5" stroke="white" stroke-opacity="0.2"/>
<line x1="1439.97" y1="3108.5" x2="0.00482175" y2="3108.5" stroke="white" stroke-opacity="0.2"/>
<line x1="1439.97" y1="3136.5" x2="0.00488279" y2="3136.5" stroke="white" stroke-opacity="0.2"/>
<line x1="1439.97" y1="3164.5" x2="0.00494383" y2="3164.5" stroke="white" stroke-opacity="0.2"/>
<line x1="1439.97" y1="3192.5" x2="0.00500486" y2="3192.5" stroke="white" stroke-opacity="0.2"/>
<line x1="1439.97" y1="3220.5" x2="0.0050659" y2="3220.5" stroke="white" stroke-opacity="0.2"/>
<line x1="1439.97" y1="3248.5" x2="0.00512693" y2="3248.5" stroke="white" stroke-opacity="0.2"/>
<line x1="1439.97" y1="3276.5" x2="0.00518797" y2="3276.5" stroke="white" stroke-opacity="0.2"/>
<line x1="1439.97" y1="3304.5" x2="0.005249" y2="3304.5" stroke="white" stroke-opacity="0.2"/>
<line x1="1439.97" y1="3332.5" x2="0.00531004" y2="3332.5" stroke="white" stroke-opacity="0.2"/>
<line x1="1439.97" y1="3360.5" x2="0.00537107" y2="3360.5" stroke="white" stroke-opacity="0.2"/>
<line x1="1439.97" y1="3388.5" x2="0.00549314" y2="3388.5" stroke="white" stroke-opacity="0.2"/>
<line x1="1439.97" y1="3416.5" x2="0.00555418" y2="3416.5" stroke="white" stroke-opacity="0.2"/>
<line x1="1439.97" y1="3444.5" x2="0.00561521" y2="3444.5" stroke="white" stroke-opacity="0.2"/>
<line x1="1439.97" y1="3472.5" x2="0.00567625" y2="3472.5" stroke="white" stroke-opacity="0.2"/>
<line x1="1439.97" y1="3500.5" x2="0.00573728" y2="3500.5" stroke="white" stroke-opacity="0.2"/>
<line x1="1439.97" y1="3528.5" x2="0.00579832" y2="3528.5" stroke="white" stroke-opacity="0.2"/>
<line x1="1439.97" y1="3556.5" x2="0.00585935" y2="3556.5" stroke="white" stroke-opacity="0.2"/>
<line x1="1439.97" y1="3584.5" x2="0.00592039" y2="3584.5" stroke="white" stroke-opacity="0.2"/>
<line x1="1439.97" y1="3612.5" x2="0.00598142" y2="3612.5" stroke="white" stroke-opacity="0.2"/>
<line x1="1439.97" y1="3640.5" x2="0.00604246" y2="3640.5" stroke="white" stroke-opacity="0.2"/>
<line x1="1439.97" y1="3668.5" x2="0.00610349" y2="3668.5" stroke="white" stroke-opacity="0.2"/>
<line x1="1439.97" y1="3696.5" x2="0.00616453" y2="3696.5" stroke="white" stroke-opacity="0.2"/>
<line x1="1439.97" y1="3724.5" x2="0.00622556" y2="3724.5" stroke="white" stroke-opacity="0.2"/>
<line x1="1439.97" y1="3752.5" x2="0.0062866" y2="3752.5" stroke="white" stroke-opacity="0.2"/>
<line x1="1439.97" y1="3780.5" x2="0.00634763" y2="3780.5" stroke="white" stroke-opacity="0.2"/>
<line x1="1439.97" y1="3808.5" x2="0.00640867" y2="3808.5" stroke="white" stroke-opacity="0.2"/>
<line x1="1439.97" y1="3836.5" x2="0.0064697" y2="3836.5" stroke="white" stroke-opacity="0.2"/>
<line x1="1439.97" y1="3864.5" x2="0.00653074" y2="3864.5" stroke="white" stroke-opacity="0.2"/>
<line x1="1439.97" y1="3892.5" x2="0.00653074" y2="3892.5" stroke="white" stroke-opacity="0.2"/>
<line x1="1439.97" y1="3920.5" x2="0.00659177" y2="3920.5" stroke="white" stroke-opacity="0.2"/>
<line x1="1439.97" y1="3948.5" x2="0.00665281" y2="3948.5" stroke="white" stroke-opacity="0.2"/>
<line x1="1439.97" y1="3976.5" x2="0.00671384" y2="3976.5" stroke="white" stroke-opacity="0.2"/>
<line x1="1439.97" y1="4004.5" x2="0.00677488" y2="4004.5" stroke="white" stroke-opacity="0.2"/>
<line x1="1439.97" y1="4032.5" x2="0.00683592" y2="4032.5" stroke="white" stroke-opacity="0.2"/>
<line x1="1439.97" y1="4060.5" x2="0.00689695" y2="4060.5" stroke="white" stroke-opacity="0.2"/>
<line x1="1439.97" y1="4088.5" x2="0.00695799" y2="4088.5" stroke="white" stroke-opacity="0.2"/>
<line x1="1439.97" y1="4116.5" x2="0.00701902" y2="4116.5" stroke="white" stroke-opacity="0.2"/>
<line x1="1439.97" y1="4144.5" x2="0.00708006" y2="4144.5" stroke="white" stroke-opacity="0.2"/>
<line x1="1439.97" y1="4172.5" x2="0.00714109" y2="4172.5" stroke="white" stroke-opacity="0.2"/>
<line x1="1439.97" y1="4200.5" x2="0.00720213" y2="4200.5" stroke="white" stroke-opacity="0.2"/>
<line x1="1439.97" y1="4228.5" x2="0.00726316" y2="4228.5" stroke="white" stroke-opacity="0.2"/>
<line x1="1439.97" y1="4256.5" x2="0.0073242" y2="4256.5" stroke="white" stroke-opacity="0.2"/>
<line x1="1439.97" y1="4284.5" x2="0.00738523" y2="4284.5" stroke="white" stroke-opacity="0.2"/>
<line x1="1439.97" y1="4312.5" x2="0.00744627" y2="4312.5" stroke="white" stroke-opacity="0.2"/>
<line x1="1439.97" y1="4340.5" x2="0.0075073" y2="4340.5" stroke="white" stroke-opacity="0.2"/>
<line x1="1439.97" y1="4368.5" x2="0.00756834" y2="4368.5" stroke="white" stroke-opacity="0.2"/>
<line x1="1439.97" y1="4396.5" x2="0.00762937" y2="4396.5" stroke="white" stroke-opacity="0.2"/>
<line x1="1439.97" y1="4424.5" x2="0.00769041" y2="4424.5" stroke="white" stroke-opacity="0.2"/>
<line x1="1439.97" y1="4452.5" x2="0.00775144" y2="4452.5" stroke="white" stroke-opacity="0.2"/>
<line x1="1439.97" y1="4480.5" x2="0.00781248" y2="4480.5" stroke="white" stroke-opacity="0.2"/>
<line x1="1439.97" y1="4508.5" x2="0.00793455" y2="4508.5" stroke="white" stroke-opacity="0.2"/>
<line x1="1439.97" y1="4536.5" x2="0.00799558" y2="4536.5" stroke="white" stroke-opacity="0.2"/>
<line x1="1439.97" y1="4564.5" x2="0.00805662" y2="4564.5" stroke="white" stroke-opacity="0.2"/>
<line x1="1439.97" y1="4592.5" x2="0.00811765" y2="4592.5" stroke="white" stroke-opacity="0.2"/>
<line x1="1439.97" y1="4620.5" x2="0.00817869" y2="4620.5" stroke="white" stroke-opacity="0.2"/>
<line x1="1439.97" y1="4648.5" x2="0.00823972" y2="4648.5" stroke="white" stroke-opacity="0.2"/>
<line x1="1439.97" y1="4676.5" x2="0.00830076" y2="4676.5" stroke="white" stroke-opacity="0.2"/>
<line x1="1439.97" y1="4704.5" x2="0.00836179" y2="4704.5" stroke="white" stroke-opacity="0.2"/>
<line x1="1439.97" y1="4732.5" x2="0.00842283" y2="4732.5" stroke="white" stroke-opacity="0.2"/>
<line x1="1439.97" y1="4760.5" x2="0.00848386" y2="4760.5" stroke="white" stroke-opacity="0.2"/>
<line x1="1439.97" y1="4788.5" x2="0.0085449" y2="4788.5" stroke="white" stroke-opacity="0.2"/>
<line x1="1439.97" y1="4816.5" x2="0.00860593" y2="4816.5" stroke="white" stroke-opacity="0.2"/>
<line x1="1439.97" y1="4844.5" x2="0.008728" y2="4844.5" stroke="white" stroke-opacity="0.2"/>
<line x1="1439.97" y1="4872.5" x2="0.00878904" y2="4872.5" stroke="white" stroke-opacity="0.2"/>
<line x1="1439.97" y1="4900.5" x2="0.00885008" y2="4900.5" stroke="white" stroke-opacity="0.2"/>
<line x1="1439.97" y1="4928.5" x2="0.00891111" y2="4928.5" stroke="white" stroke-opacity="0.2"/>
<line x1="1439.97" y1="4956.5" x2="0.00891111" y2="4956.5" stroke="white" stroke-opacity="0.2"/>
<line x1="1439.97" y1="4984.5" x2="0.00897215" y2="4984.5" stroke="white" stroke-opacity="0.2"/>
<line x1="1439.97" y1="5012.5" x2="0.00903318" y2="5012.5" stroke="white" stroke-opacity="0.2"/>
<line x1="1439.97" y1="5040.5" x2="0.00909422" y2="5040.5" stroke="white" stroke-opacity="0.2"/>
<line x1="1439.97" y1="5068.5" x2="0.00915525" y2="5068.5" stroke="white" stroke-opacity="0.2"/>
<line x1="1439.97" y1="5096.5" x2="0.00921629" y2="5096.5" stroke="white" stroke-opacity="0.2"/>
<line x1="1439.97" y1="5124.5" x2="0.00927732" y2="5124.5" stroke="white" stroke-opacity="0.2"/>
<line x1="1439.97" y1="5152.5" x2="0.00933836" y2="5152.5" stroke="white" stroke-opacity="0.2"/>
<line x1="1439.97" y1="5180.5" x2="0.00939939" y2="5180.5" stroke="white" stroke-opacity="0.2"/>
<line x1="1439.97" y1="5208.5" x2="0.00946043" y2="5208.5" stroke="white" stroke-opacity="0.2"/>
<line x1="1439.97" y1="5236.5" x2="0.00952146" y2="5236.5" stroke="white" stroke-opacity="0.2"/>
<line x1="1439.97" y1="5264.5" x2="0.0095825" y2="5264.5" stroke="white" stroke-opacity="0.2"/>
<line x1="1439.97" y1="5292.5" x2="0.00964353" y2="5292.5" stroke="white" stroke-opacity="0.2"/>
<line x1="1439.97" y1="5320.5" x2="0.00970457" y2="5320.5" stroke="white" stroke-opacity="0.2"/>
<line x1="1439.97" y1="5348.5" x2="0.0097656" y2="5348.5" stroke="white" stroke-opacity="0.2"/>
<line x1="1439.97" y1="5376.5" x2="0.0097656" y2="5376.5" stroke="white" stroke-opacity="0.2"/>
<line x1="1439.97" y1="5404.5" x2="0.00982664" y2="5404.5" stroke="white" stroke-opacity="0.2"/>
<line x1="1439.97" y1="5432.5" x2="0.00988767" y2="5432.5" stroke="white" stroke-opacity="0.2"/>
<line x1="1439.97" y1="5460.5" x2="0.00994871" y2="5460.5" stroke="white" stroke-opacity="0.2"/>
<line x1="1439.97" y1="5488.5" x2="0.0100097" y2="5488.5" stroke="white" stroke-opacity="0.2"/>
<line x1="1439.97" y1="5516.5" x2="0.0100708" y2="5516.5" stroke="white" stroke-opacity="0.2"/>
<line x1="1439.97" y1="5544.5" x2="0.0101318" y2="5544.5" stroke="white" stroke-opacity="0.2"/>
<line x1="1439.97" y1="5572.5" x2="0.0101928" y2="5572.5" stroke="white" stroke-opacity="0.2"/>
<line x1="1439.97" y1="5600.5" x2="0.0102539" y2="5600.5" stroke="white" stroke-opacity="0.2"/>
<line x1="1439.97" y1="5628.5" x2="0.0103149" y2="5628.5" stroke="white" stroke-opacity="0.2"/>
<line x1="1439.97" y1="5656.5" x2="0.010376" y2="5656.5" stroke="white" stroke-opacity="0.2"/>
<line x1="1439.97" y1="5684.5" x2="0.010437" y2="5684.5" stroke="white" stroke-opacity="0.2"/>
<line x1="1439.97" y1="5712.5" x2="0.010498" y2="5712.5" stroke="white" stroke-opacity="0.2"/>
<line x1="1439.97" y1="5740.5" x2="0.0105591" y2="5740.5" stroke="white" stroke-opacity="0.2"/>
<line x1="1439.97" y1="5768.5" x2="0.0106201" y2="5768.5" stroke="white" stroke-opacity="0.2"/>
<line x1="1439.97" y1="5796.5" x2="0.0106811" y2="5796.5" stroke="white" stroke-opacity="0.2"/>
<line x1="1439.97" y1="5824.5" x2="0.0107422" y2="5824.5" stroke="white" stroke-opacity="0.2"/>
<line x1="1439.97" y1="5852.5" x2="0.0108642" y2="5852.5" stroke="white" stroke-opacity="0.2"/>
<line x1="1439.97" y1="5880.5" x2="0.0109253" y2="5880.5" stroke="white" stroke-opacity="0.2"/>
<line x1="1439.97" y1="5908.5" x2="0.0109863" y2="5908.5" stroke="white" stroke-opacity="0.2"/>
<line x1="1439.97" y1="5936.5" x2="0.0110473" y2="5936.5" stroke="white" stroke-opacity="0.2"/>
<line x1="1439.97" y1="5964.5" x2="0.0111084" y2="5964.5" stroke="white" stroke-opacity="0.2"/>
<line x1="1439.97" y1="5992.5" x2="0.0111694" y2="5992.5" stroke="white" stroke-opacity="0.2"/>
<line x1="1439.97" y1="6020.5" x2="0.0112304" y2="6020.5" stroke="white" stroke-opacity="0.2"/>
<line x1="1439.97" y1="6048.5" x2="0.0112915" y2="6048.5" stroke="white" stroke-opacity="0.2"/>
<line x1="1439.97" y1="6076.5" x2="0.0113525" y2="6076.5" stroke="white" stroke-opacity="0.2"/>
<line x1="1439.97" y1="6104.5" x2="0.0114136" y2="6104.5" stroke="white" stroke-opacity="0.2"/>
<line x1="1439.97" y1="6132.5" x2="0.0114746" y2="6132.5" stroke="white" stroke-opacity="0.2"/>
<line x1="1439.97" y1="6160.5" x2="0.0115356" y2="6160.5" stroke="white" stroke-opacity="0.2"/>
<line x1="1439.97" y1="6188.5" x2="0.0116577" y2="6188.5" stroke="white" stroke-opacity="0.2"/>
<line x1="1439.97" y1="6216.5" x2="0.0117187" y2="6216.5" stroke="white" stroke-opacity="0.2"/>
<line x1="1439.97" y1="6244.5" x2="0.0117798" y2="6244.5" stroke="white" stroke-opacity="0.2"/>
<line x1="1439.97" y1="6272.5" x2="0.0118408" y2="6272.5" stroke="white" stroke-opacity="0.2"/>
<line x1="1439.97" y1="6300.5" x2="0.0119018" y2="6300.5" stroke="white" stroke-opacity="0.2"/>
<line x1="1439.97" y1="6328.5" x2="0.0119629" y2="6328.5" stroke="white" stroke-opacity="0.2"/>
<line x1="1439.97" y1="6356.5" x2="0.0120239" y2="6356.5" stroke="white" stroke-opacity="0.2"/>
<line x1="1439.97" y1="6384.5" x2="0.0120849" y2="6384.5" stroke="white" stroke-opacity="0.2"/>
<line x1="1439.97" y1="6412.5" x2="0.012146" y2="6412.5" stroke="white" stroke-opacity="0.2"/>
<line x1="1439.97" y1="6440.5" x2="0.012207" y2="6440.5" stroke="white" stroke-opacity="0.2"/>
<line x1="1439.97" y1="6468.5" x2="0.012268" y2="6468.5" stroke="white" stroke-opacity="0.2"/>
<line x1="1439.97" y1="6496.5" x2="0.0123291" y2="6496.5" stroke="white" stroke-opacity="0.2"/>
<line x1="1439.97" y1="6524.5" x2="0.0123901" y2="6524.5" stroke="white" stroke-opacity="0.2"/>
<line x1="1439.97" y1="6552.5" x2="0.0123901" y2="6552.5" stroke="white" stroke-opacity="0.2"/>
<line x1="1439.97" y1="6580.5" x2="0.0124511" y2="6580.5" stroke="white" stroke-opacity="0.2"/>
<line x1="1439.97" y1="6608.5" x2="0.0125122" y2="6608.5" stroke="white" stroke-opacity="0.2"/>
<line x1="1439.97" y1="6636.5" x2="0.0125732" y2="6636.5" stroke="white" stroke-opacity="0.2"/>
<line x1="1439.97" y1="6664.5" x2="0.0126343" y2="6664.5" stroke="white" stroke-opacity="0.2"/>
<line x1="1439.97" y1="6692.5" x2="0.0126953" y2="6692.5" stroke="white" stroke-opacity="0.2"/>
<line x1="1439.97" y1="6720.5" x2="0.0127563" y2="6720.5" stroke="white" stroke-opacity="0.2"/>
<line x1="1439.97" y1="6748.5" x2="0.0128174" y2="6748.5" stroke="white" stroke-opacity="0.2"/>
<line x1="1439.98" y1="6776.5" x2="0.0128784" y2="6776.5" stroke="white" stroke-opacity="0.2"/>
<line x1="1439.98" y1="6804.5" x2="0.0129394" y2="6804.5" stroke="white" stroke-opacity="0.2"/>
<line x1="1439.98" y1="6832.5" x2="0.0130005" y2="6832.5" stroke="white" stroke-opacity="0.2"/>
<line x1="1439.98" y1="6860.5" x2="0.0130615" y2="6860.5" stroke="white" stroke-opacity="0.2"/>
<line x1="1439.98" y1="6888.5" x2="0.0131225" y2="6888.5" stroke="white" stroke-opacity="0.2"/>
<line x1="1439.98" y1="6916.5" x2="0.0131836" y2="6916.5" stroke="white" stroke-opacity="0.2"/>
<line x1="1439.98" y1="6944.5" x2="0.0132446" y2="6944.5" stroke="white" stroke-opacity="0.2"/>
</g>
</svg>
