<svg width="1440" height="1874" viewBox="0 0 1440 1874" fill="none" xmlns="http://www.w3.org/2000/svg">
<g style="mix-blend-mode:overlay">
<line x1="21.2918" x2="21.2918" y2="4585" stroke="white" stroke-opacity="0.2"/>
<line x1="51.2097" x2="51.2097" y2="4585" stroke="white" stroke-opacity="0.2"/>
<line x1="81.1276" x2="81.1276" y2="4585" stroke="white" stroke-opacity="0.2"/>
<line x1="111.045" x2="111.045" y2="4585" stroke="white" stroke-opacity="0.2"/>
<line x1="140.963" x2="140.963" y2="4585" stroke="white" stroke-opacity="0.2"/>
<line x1="170.881" x2="170.881" y2="4585" stroke="white" stroke-opacity="0.2"/>
<line x1="200.799" x2="200.799" y2="4585" stroke="white" stroke-opacity="0.2"/>
<line x1="230.717" x2="230.717" y2="4585" stroke="white" stroke-opacity="0.2"/>
<line x1="260.635" x2="260.635" y2="4585" stroke="white" stroke-opacity="0.2"/>
<line x1="290.552" x2="290.552" y2="4585" stroke="white" stroke-opacity="0.2"/>
<line x1="320.47" x2="320.47" y2="4585" stroke="white" stroke-opacity="0.2"/>
<line x1="433.487" x2="433.487" y2="4585" stroke="white" stroke-opacity="0.2"/>
<line x1="463.405" x2="463.405" y2="4585" stroke="white" stroke-opacity="0.2"/>
<line x1="493.323" x2="493.323" y2="4585" stroke="white" stroke-opacity="0.2"/>
<line x1="523.241" x2="523.241" y2="4585" stroke="white" stroke-opacity="0.2"/>
<line x1="553.158" x2="553.158" y2="4585" stroke="white" stroke-opacity="0.2"/>
<line x1="583.076" x2="583.076" y2="4585" stroke="white" stroke-opacity="0.2"/>
<line x1="612.994" x2="612.994" y2="4585" stroke="white" stroke-opacity="0.2"/>
<line x1="642.912" x2="642.912" y2="4585" stroke="white" stroke-opacity="0.2"/>
<line x1="672.83" x2="672.83" y2="4585" stroke="white" stroke-opacity="0.2"/>
<line x1="702.748" x2="702.748" y2="4585" stroke="white" stroke-opacity="0.2"/>
<line x1="649.567" x2="649.567" y2="4585" stroke="white" stroke-opacity="0.2"/>
<line x1="679.484" x2="679.484" y2="4585" stroke="white" stroke-opacity="0.2"/>
<line x1="709.402" x2="709.402" y2="4585" stroke="white" stroke-opacity="0.2"/>
<line x1="739.32" x2="739.32" y2="4585" stroke="white" stroke-opacity="0.2"/>
<line x1="769.238" x2="769.238" y2="4585" stroke="white" stroke-opacity="0.2"/>
<line x1="799.156" x2="799.156" y2="4585" stroke="white" stroke-opacity="0.2"/>
<line x1="829.073" x2="829.073" y2="4585" stroke="white" stroke-opacity="0.2"/>
<line x1="858.991" x2="858.991" y2="4585" stroke="white" stroke-opacity="0.2"/>
<line x1="888.909" x2="888.909" y2="4585" stroke="white" stroke-opacity="0.2"/>
<line x1="918.827" x2="918.827" y2="4585" stroke="white" stroke-opacity="0.2"/>
<line x1="948.745" x2="948.745" y2="4585" stroke="white" stroke-opacity="0.2"/>
<line x1="978.663" x2="978.663" y2="4585" stroke="white" stroke-opacity="0.2"/>
<line x1="1008.58" x2="1008.58" y2="4585" stroke="white" stroke-opacity="0.2"/>
<line x1="1038.5" x2="1038.5" y2="4585" stroke="white" stroke-opacity="0.2"/>
<line x1="1068.42" x2="1068.42" y2="4585" stroke="white" stroke-opacity="0.2"/>
<line x1="1098.33" x2="1098.33" y2="4585" stroke="white" stroke-opacity="0.2"/>
<line x1="1128.25" x2="1128.25" y2="4585" stroke="white" stroke-opacity="0.2"/>
<line x1="1158.17" x2="1158.17" y2="4585" stroke="white" stroke-opacity="0.2"/>
<line x1="1188.09" x2="1188.09" y2="4585" stroke="white" stroke-opacity="0.2"/>
<line x1="1218.01" x2="1218.01" y2="4585" stroke="white" stroke-opacity="0.2"/>
<line x1="1247.92" x2="1247.92" y2="4585" stroke="white" stroke-opacity="0.2"/>
<line x1="1277.84" x2="1277.84" y2="4585" stroke="white" stroke-opacity="0.2"/>
<line x1="1307.76" x2="1307.76" y2="4585" stroke="white" stroke-opacity="0.2"/>
<line x1="1337.68" x2="1337.68" y2="4585" stroke="white" stroke-opacity="0.2"/>
<line x1="1367.59" x2="1367.59" y2="4585" stroke="white" stroke-opacity="0.2"/>
<line x1="1397.51" x2="1397.51" y2="4585" stroke="white" stroke-opacity="0.2"/>
<line x1="1427.43" x2="1427.43" y2="4585" stroke="white" stroke-opacity="0.2"/>
<line x1="1426.89" y1="0.5" x2="-68.9996" y2="0.49996" stroke="white" stroke-opacity="0.2"/>
<line x1="1426.89" y1="18.9722" x2="-68.9997" y2="18.9721" stroke="white" stroke-opacity="0.2"/>
<line x1="1426.89" y1="37.4438" x2="-68.9997" y2="37.4438" stroke="white" stroke-opacity="0.2"/>
<line x1="1426.89" y1="55.916" x2="-68.9997" y2="55.916" stroke="white" stroke-opacity="0.2"/>
<line x1="1426.89" y1="74.3877" x2="-68.9997" y2="74.3877" stroke="white" stroke-opacity="0.2"/>
<line x1="1426.89" y1="92.8599" x2="-68.9997" y2="92.8598" stroke="white" stroke-opacity="0.2"/>
<line x1="1426.89" y1="111.332" x2="-68.9997" y2="111.332" stroke="white" stroke-opacity="0.2"/>
<line x1="1426.89" y1="129.804" x2="-68.9997" y2="129.804" stroke="white" stroke-opacity="0.2"/>
<line x1="1426.89" y1="148.275" x2="-68.9997" y2="148.275" stroke="white" stroke-opacity="0.2"/>
<line x1="1426.89" y1="166.748" x2="-68.9997" y2="166.748" stroke="white" stroke-opacity="0.2"/>
<line x1="1426.89" y1="185.219" x2="-68.9997" y2="185.219" stroke="white" stroke-opacity="0.2"/>
<line x1="1426.89" y1="203.691" x2="-68.9997" y2="203.691" stroke="white" stroke-opacity="0.2"/>
<line x1="1426.89" y1="222.163" x2="-68.9997" y2="222.163" stroke="white" stroke-opacity="0.2"/>
<line x1="1426.89" y1="240.635" x2="-68.9997" y2="240.635" stroke="white" stroke-opacity="0.2"/>
<line x1="1426.89" y1="259.107" x2="-68.9997" y2="259.107" stroke="white" stroke-opacity="0.2"/>
<line x1="1426.89" y1="277.579" x2="-68.9997" y2="277.579" stroke="white" stroke-opacity="0.2"/>
<line x1="1426.89" y1="296.051" x2="-68.9997" y2="296.051" stroke="white" stroke-opacity="0.2"/>
<line x1="1426.89" y1="314.523" x2="-68.9997" y2="314.523" stroke="white" stroke-opacity="0.2"/>
<line x1="1426.89" y1="332.995" x2="-68.9997" y2="332.995" stroke="white" stroke-opacity="0.2"/>
<line x1="1426.89" y1="351.467" x2="-68.9997" y2="351.467" stroke="white" stroke-opacity="0.2"/>
<line x1="1426.89" y1="369.939" x2="-68.9997" y2="369.939" stroke="white" stroke-opacity="0.2"/>
<line x1="1426.89" y1="388.411" x2="-68.9997" y2="388.411" stroke="white" stroke-opacity="0.2"/>
<line x1="1426.89" y1="406.883" x2="-68.9997" y2="406.883" stroke="white" stroke-opacity="0.2"/>
<line x1="1426.89" y1="425.354" x2="-68.9997" y2="425.354" stroke="white" stroke-opacity="0.2"/>
<line x1="1426.89" y1="443.827" x2="-68.9997" y2="443.827" stroke="white" stroke-opacity="0.2"/>
<line x1="1426.89" y1="462.298" x2="-68.9998" y2="462.298" stroke="white" stroke-opacity="0.2"/>
<line x1="1426.89" y1="480.771" x2="-68.9998" y2="480.77" stroke="white" stroke-opacity="0.2"/>
<line x1="1426.89" y1="499.243" x2="-68.9998" y2="499.243" stroke="white" stroke-opacity="0.2"/>
<line x1="1426.89" y1="517.714" x2="-68.9998" y2="517.714" stroke="white" stroke-opacity="0.2"/>
<line x1="1426.89" y1="536.187" x2="-68.9997" y2="536.186" stroke="white" stroke-opacity="0.2"/>
<line x1="1426.89" y1="554.658" x2="-68.9997" y2="554.658" stroke="white" stroke-opacity="0.2"/>
<line x1="1426.89" y1="573.13" x2="-68.9998" y2="573.13" stroke="white" stroke-opacity="0.2"/>
<line x1="1426.89" y1="591.602" x2="-68.9998" y2="591.602" stroke="white" stroke-opacity="0.2"/>
<line x1="1426.89" y1="610.074" x2="-68.9998" y2="610.074" stroke="white" stroke-opacity="0.2"/>
<line x1="1426.89" y1="628.546" x2="-68.9998" y2="628.546" stroke="white" stroke-opacity="0.2"/>
<line x1="1426.89" y1="647.018" x2="-68.9998" y2="647.018" stroke="white" stroke-opacity="0.2"/>
<line x1="1426.89" y1="665.49" x2="-68.9997" y2="665.49" stroke="white" stroke-opacity="0.2"/>
<line x1="1426.89" y1="683.962" x2="-68.9998" y2="683.962" stroke="white" stroke-opacity="0.2"/>
<line x1="1426.89" y1="702.434" x2="-68.9998" y2="702.434" stroke="white" stroke-opacity="0.2"/>
<line x1="1426.89" y1="720.906" x2="-68.9998" y2="720.906" stroke="white" stroke-opacity="0.2"/>
<line x1="1426.89" y1="739.377" x2="-68.9998" y2="739.377" stroke="white" stroke-opacity="0.2"/>
<line x1="1426.89" y1="757.85" x2="-68.9998" y2="757.85" stroke="white" stroke-opacity="0.2"/>
<line x1="1426.89" y1="776.322" x2="-68.9998" y2="776.322" stroke="white" stroke-opacity="0.2"/>
<line x1="1426.89" y1="794.793" x2="-68.9998" y2="794.793" stroke="white" stroke-opacity="0.2"/>
<line x1="1426.89" y1="813.266" x2="-68.9998" y2="813.266" stroke="white" stroke-opacity="0.2"/>
<line x1="1426.89" y1="831.737" x2="-68.9998" y2="831.737" stroke="white" stroke-opacity="0.2"/>
<line x1="1426.89" y1="850.209" x2="-68.9998" y2="850.209" stroke="white" stroke-opacity="0.2"/>
<line x1="1426.89" y1="868.681" x2="-68.9998" y2="868.681" stroke="white" stroke-opacity="0.2"/>
<line x1="1426.89" y1="887.153" x2="-68.9998" y2="887.153" stroke="white" stroke-opacity="0.2"/>
<line x1="1426.89" y1="905.625" x2="-68.9998" y2="905.625" stroke="white" stroke-opacity="0.2"/>
<line x1="1426.89" y1="924.097" x2="-68.9997" y2="924.097" stroke="white" stroke-opacity="0.2"/>
<line x1="1426.89" y1="942.569" x2="-68.9997" y2="942.569" stroke="white" stroke-opacity="0.2"/>
<line x1="1426.89" y1="961.041" x2="-68.9997" y2="961.041" stroke="white" stroke-opacity="0.2"/>
<line x1="1426.89" y1="979.513" x2="-68.9997" y2="979.513" stroke="white" stroke-opacity="0.2"/>
<line x1="1426.89" y1="997.985" x2="-68.9997" y2="997.985" stroke="white" stroke-opacity="0.2"/>
<line x1="1426.89" y1="1016.46" x2="-68.9997" y2="1016.46" stroke="white" stroke-opacity="0.2"/>
<line x1="1426.89" y1="1034.93" x2="-68.9987" y2="1034.93" stroke="white" stroke-opacity="0.2"/>
<line x1="1426.89" y1="1053.4" x2="-68.9986" y2="1053.4" stroke="white" stroke-opacity="0.2"/>
<line x1="1426.89" y1="1071.87" x2="-68.9986" y2="1071.87" stroke="white" stroke-opacity="0.2"/>
<line x1="1426.89" y1="1090.34" x2="-68.9985" y2="1090.34" stroke="white" stroke-opacity="0.2"/>
<line x1="1426.89" y1="1108.82" x2="-68.9985" y2="1108.82" stroke="white" stroke-opacity="0.2"/>
<line x1="1426.89" y1="1127.29" x2="-68.9984" y2="1127.29" stroke="white" stroke-opacity="0.2"/>
<line x1="1426.89" y1="1145.76" x2="-68.9984" y2="1145.76" stroke="white" stroke-opacity="0.2"/>
<line x1="1426.89" y1="1164.23" x2="-68.9983" y2="1164.23" stroke="white" stroke-opacity="0.2"/>
<line x1="1426.89" y1="1182.7" x2="-68.9982" y2="1182.7" stroke="white" stroke-opacity="0.2"/>
<line x1="1426.89" y1="1201.18" x2="-68.9981" y2="1201.18" stroke="white" stroke-opacity="0.2"/>
<line x1="1426.89" y1="1219.65" x2="-68.998" y2="1219.65" stroke="white" stroke-opacity="0.2"/>
<line x1="1426.89" y1="1238.12" x2="-68.998" y2="1238.12" stroke="white" stroke-opacity="0.2"/>
<line x1="1426.89" y1="1256.59" x2="-68.9979" y2="1256.59" stroke="white" stroke-opacity="0.2"/>
<line x1="1426.89" y1="1275.06" x2="-68.9979" y2="1275.06" stroke="white" stroke-opacity="0.2"/>
<line x1="1426.89" y1="1293.54" x2="-68.9978" y2="1293.54" stroke="white" stroke-opacity="0.2"/>
<line x1="1426.89" y1="1312.01" x2="-68.9977" y2="1312.01" stroke="white" stroke-opacity="0.2"/>
<line x1="1426.89" y1="1330.48" x2="-68.9977" y2="1330.48" stroke="white" stroke-opacity="0.2"/>
<line x1="1426.89" y1="1348.95" x2="-68.9976" y2="1348.95" stroke="white" stroke-opacity="0.2"/>
<line x1="1426.89" y1="1367.42" x2="-68.9975" y2="1367.42" stroke="white" stroke-opacity="0.2"/>
<line x1="1426.89" y1="1385.9" x2="-68.9974" y2="1385.9" stroke="white" stroke-opacity="0.2"/>
<line x1="1426.89" y1="1404.37" x2="-68.9974" y2="1404.37" stroke="white" stroke-opacity="0.2"/>
<line x1="1426.89" y1="1422.84" x2="-68.9973" y2="1422.84" stroke="white" stroke-opacity="0.2"/>
<line x1="1426.89" y1="1441.31" x2="-68.9973" y2="1441.31" stroke="white" stroke-opacity="0.2"/>
<line x1="1426.89" y1="1459.78" x2="-68.9972" y2="1459.78" stroke="white" stroke-opacity="0.2"/>
<line x1="1426.89" y1="1478.26" x2="-68.9971" y2="1478.26" stroke="white" stroke-opacity="0.2"/>
<line x1="1426.9" y1="1496.73" x2="-68.9971" y2="1496.73" stroke="white" stroke-opacity="0.2"/>
<line x1="1426.9" y1="1515.2" x2="-68.997" y2="1515.2" stroke="white" stroke-opacity="0.2"/>
<line x1="1426.9" y1="1533.67" x2="-68.9969" y2="1533.67" stroke="white" stroke-opacity="0.2"/>
<line x1="1426.9" y1="1552.14" x2="-68.9969" y2="1552.14" stroke="white" stroke-opacity="0.2"/>
<line x1="1426.9" y1="1570.62" x2="-68.9969" y2="1570.62" stroke="white" stroke-opacity="0.2"/>
<line x1="1426.9" y1="1589.09" x2="-68.9968" y2="1589.09" stroke="white" stroke-opacity="0.2"/>
<line x1="1426.9" y1="1607.56" x2="-68.9968" y2="1607.56" stroke="white" stroke-opacity="0.2"/>
<line x1="1426.9" y1="1626.03" x2="-68.9967" y2="1626.03" stroke="white" stroke-opacity="0.2"/>
<line x1="1426.9" y1="1644.5" x2="-68.9966" y2="1644.5" stroke="white" stroke-opacity="0.2"/>
<line x1="1426.9" y1="1662.97" x2="-68.9966" y2="1662.97" stroke="white" stroke-opacity="0.2"/>
<line x1="1426.9" y1="1681.45" x2="-68.9965" y2="1681.45" stroke="white" stroke-opacity="0.2"/>
<line x1="1426.9" y1="1699.92" x2="-68.9965" y2="1699.92" stroke="white" stroke-opacity="0.2"/>
<line x1="1426.9" y1="1718.39" x2="-68.9964" y2="1718.39" stroke="white" stroke-opacity="0.2"/>
<line x1="1426.9" y1="1736.86" x2="-68.9963" y2="1736.86" stroke="white" stroke-opacity="0.2"/>
<line x1="1426.9" y1="1755.33" x2="-68.9963" y2="1755.33" stroke="white" stroke-opacity="0.2"/>
<line x1="1426.9" y1="1773.81" x2="-68.9962" y2="1773.81" stroke="white" stroke-opacity="0.2"/>
<line x1="1426.9" y1="1792.28" x2="-68.9962" y2="1792.28" stroke="white" stroke-opacity="0.2"/>
<line x1="1426.9" y1="1810.75" x2="-68.9961" y2="1810.75" stroke="white" stroke-opacity="0.2"/>
<line x1="1426.9" y1="1829.22" x2="-68.996" y2="1829.22" stroke="white" stroke-opacity="0.2"/>
<line x1="1426.9" y1="1847.69" x2="-68.996" y2="1847.69" stroke="white" stroke-opacity="0.2"/>
<line x1="1426.9" y1="1866.17" x2="-68.9958" y2="1866.17" stroke="white" stroke-opacity="0.2"/>
</g>
</svg>
