<svg width="1440" height="2992" viewBox="0 0 1440 2992" fill="none" xmlns="http://www.w3.org/2000/svg">
<g opacity="0.6" filter="url(#filter0_f_9_267)">
<path d="M171.797 3721.38C12.4359 3663.09 45.0669 3277.42 217.854 3039.59C386.296 2807.74 427.07 2992.85 824.62 3038.34C715.142 3080.15 1389.73 3353.59 1281.75 3412.17C1173.77 3470.76 720.944 3546.03 601.504 3584.76C482.065 3623.49 331.157 3779.66 171.797 3721.38Z" fill="#6F00DD" fill-opacity="0.6"/>
<g style="mix-blend-mode:overlay">
<line x1="22.8373" y1="360" x2="22.8373" y2="7310" stroke="white" stroke-opacity="0.2"/>
<line x1="51.6366" y1="360" x2="51.6366" y2="7310" stroke="white" stroke-opacity="0.2"/>
<line x1="80.4358" y1="360" x2="80.4358" y2="7310" stroke="white" stroke-opacity="0.2"/>
<line x1="109.235" y1="360" x2="109.235" y2="7310" stroke="white" stroke-opacity="0.2"/>
<line x1="138.034" y1="360" x2="138.034" y2="7310" stroke="white" stroke-opacity="0.2"/>
<line x1="166.833" y1="360" x2="166.833" y2="7310" stroke="white" stroke-opacity="0.2"/>
<line x1="195.633" y1="360" x2="195.633" y2="7310" stroke="white" stroke-opacity="0.2"/>
<line x1="224.432" y1="360" x2="224.432" y2="7310" stroke="white" stroke-opacity="0.2"/>
<line x1="253.231" y1="360" x2="253.231" y2="7310" stroke="white" stroke-opacity="0.2"/>
<line x1="282.031" y1="360" x2="282.031" y2="7310" stroke="white" stroke-opacity="0.2"/>
<line x1="310.83" y1="360" x2="310.83" y2="7310" stroke="white" stroke-opacity="0.2"/>
<line x1="339.629" y1="360" x2="339.629" y2="7310" stroke="white" stroke-opacity="0.2"/>
<line x1="368.428" y1="360" x2="368.428" y2="7310" stroke="white" stroke-opacity="0.2"/>
<line x1="397.227" y1="360" x2="397.227" y2="7310" stroke="white" stroke-opacity="0.2"/>
<line x1="426.027" y1="360" x2="426.027" y2="7310" stroke="white" stroke-opacity="0.2"/>
<line x1="454.826" y1="360" x2="454.826" y2="7310" stroke="white" stroke-opacity="0.2"/>
<line x1="483.625" y1="360" x2="483.625" y2="7310" stroke="white" stroke-opacity="0.2"/>
<line x1="512.424" y1="360" x2="512.424" y2="7310" stroke="white" stroke-opacity="0.2"/>
<line x1="541.224" y1="360" x2="541.224" y2="7310" stroke="white" stroke-opacity="0.2"/>
<line x1="570.023" y1="360" x2="570.023" y2="7310" stroke="white" stroke-opacity="0.2"/>
<line x1="598.822" y1="360" x2="598.822" y2="7310" stroke="white" stroke-opacity="0.2"/>
<line x1="627.621" y1="360" x2="627.621" y2="7310" stroke="white" stroke-opacity="0.2"/>
<line x1="656.421" y1="360" x2="656.421" y2="7310" stroke="white" stroke-opacity="0.2"/>
<line x1="685.22" y1="360" x2="685.22" y2="7310" stroke="white" stroke-opacity="0.2"/>
<line x1="714.019" y1="360" x2="714.019" y2="7310" stroke="white" stroke-opacity="0.2"/>
<line x1="742.818" y1="360" x2="742.818" y2="7310" stroke="white" stroke-opacity="0.2"/>
<line x1="771.618" y1="360" x2="771.618" y2="7310" stroke="white" stroke-opacity="0.2"/>
<line x1="800.417" y1="360" x2="800.417" y2="7310" stroke="white" stroke-opacity="0.2"/>
<line x1="829.216" y1="360" x2="829.216" y2="7310" stroke="white" stroke-opacity="0.2"/>
<line x1="858.015" y1="360" x2="858.015" y2="7310" stroke="white" stroke-opacity="0.2"/>
<line x1="886.815" y1="360" x2="886.815" y2="7310" stroke="white" stroke-opacity="0.2"/>
<line x1="915.614" y1="360" x2="915.614" y2="7310" stroke="white" stroke-opacity="0.2"/>
<line x1="944.413" y1="360" x2="944.413" y2="7310" stroke="white" stroke-opacity="0.2"/>
<line x1="973.212" y1="360" x2="973.212" y2="7310" stroke="white" stroke-opacity="0.2"/>
<line x1="1002.01" y1="360" x2="1002.01" y2="7310" stroke="white" stroke-opacity="0.2"/>
<line x1="1030.81" y1="360" x2="1030.81" y2="7310" stroke="white" stroke-opacity="0.2"/>
<line x1="1059.61" y1="360" x2="1059.61" y2="7310" stroke="white" stroke-opacity="0.2"/>
<line x1="1088.41" y1="360" x2="1088.41" y2="7310" stroke="white" stroke-opacity="0.2"/>
<line x1="1117.21" y1="360" x2="1117.21" y2="7310" stroke="white" stroke-opacity="0.2"/>
<line x1="1146.01" y1="360" x2="1146.01" y2="7310" stroke="white" stroke-opacity="0.2"/>
<line x1="1174.81" y1="360" x2="1174.81" y2="7310" stroke="white" stroke-opacity="0.2"/>
<line x1="1203.61" y1="360" x2="1203.61" y2="7310" stroke="white" stroke-opacity="0.2"/>
<line x1="1232.41" y1="360" x2="1232.41" y2="7310" stroke="white" stroke-opacity="0.2"/>
<line x1="1261.2" y1="360" x2="1261.2" y2="7310" stroke="white" stroke-opacity="0.2"/>
<line x1="1290" y1="360" x2="1290" y2="7310" stroke="white" stroke-opacity="0.2"/>
<line x1="1318.8" y1="360" x2="1318.8" y2="7310" stroke="white" stroke-opacity="0.2"/>
<line x1="1347.6" y1="360" x2="1347.6" y2="7310" stroke="white" stroke-opacity="0.2"/>
<line x1="1376.4" y1="360" x2="1376.4" y2="7310" stroke="white" stroke-opacity="0.2"/>
<line x1="1405.2" y1="360" x2="1405.2" y2="7310" stroke="white" stroke-opacity="0.2"/>
<line x1="1434" y1="360" x2="1434" y2="7310" stroke="white" stroke-opacity="0.2"/>
<line x1="1433.46" y1="360.5" x2="-6.49939" y2="360.5" stroke="white" stroke-opacity="0.2"/>
<line x1="1433.46" y1="388.5" x2="-6.49939" y2="388.5" stroke="white" stroke-opacity="0.2"/>
<line x1="1433.46" y1="416.5" x2="-6.49939" y2="416.5" stroke="white" stroke-opacity="0.2"/>
<line x1="1433.46" y1="444.5" x2="-6.49939" y2="444.5" stroke="white" stroke-opacity="0.2"/>
<line x1="1433.46" y1="472.5" x2="-6.49939" y2="472.5" stroke="white" stroke-opacity="0.2"/>
<line x1="1433.46" y1="500.5" x2="-6.49939" y2="500.5" stroke="white" stroke-opacity="0.2"/>
<line x1="1433.46" y1="528.5" x2="-6.49939" y2="528.5" stroke="white" stroke-opacity="0.2"/>
<line x1="1433.46" y1="556.5" x2="-6.49939" y2="556.5" stroke="white" stroke-opacity="0.2"/>
<line x1="1433.46" y1="584.5" x2="-6.49939" y2="584.5" stroke="white" stroke-opacity="0.2"/>
<line x1="1433.46" y1="612.5" x2="-6.49939" y2="612.5" stroke="white" stroke-opacity="0.2"/>
<line x1="1433.46" y1="640.5" x2="-6.49939" y2="640.5" stroke="white" stroke-opacity="0.2"/>
<line x1="1433.46" y1="668.5" x2="-6.49939" y2="668.5" stroke="white" stroke-opacity="0.2"/>
<line x1="1433.46" y1="696.5" x2="-6.49939" y2="696.5" stroke="white" stroke-opacity="0.2"/>
<line x1="1433.46" y1="724.5" x2="-6.49939" y2="724.5" stroke="white" stroke-opacity="0.2"/>
<line x1="1433.46" y1="752.5" x2="-6.49939" y2="752.5" stroke="white" stroke-opacity="0.2"/>
<line x1="1433.46" y1="780.5" x2="-6.49939" y2="780.5" stroke="white" stroke-opacity="0.2"/>
<line x1="1433.46" y1="808.5" x2="-6.49939" y2="808.5" stroke="white" stroke-opacity="0.2"/>
<line x1="1433.46" y1="836.5" x2="-6.49939" y2="836.5" stroke="white" stroke-opacity="0.2"/>
<line x1="1433.46" y1="864.5" x2="-6.49939" y2="864.5" stroke="white" stroke-opacity="0.2"/>
<line x1="1433.46" y1="892.5" x2="-6.49939" y2="892.5" stroke="white" stroke-opacity="0.2"/>
<line x1="1433.46" y1="920.5" x2="-6.49939" y2="920.5" stroke="white" stroke-opacity="0.2"/>
<line x1="1433.46" y1="948.5" x2="-6.49939" y2="948.5" stroke="white" stroke-opacity="0.2"/>
<line x1="1433.46" y1="976.5" x2="-6.49939" y2="976.5" stroke="white" stroke-opacity="0.2"/>
<line x1="1433.46" y1="1004.5" x2="-6.49939" y2="1004.5" stroke="white" stroke-opacity="0.2"/>
<line x1="1433.46" y1="1032.5" x2="-6.49939" y2="1032.5" stroke="white" stroke-opacity="0.2"/>
<line x1="1433.46" y1="1060.5" x2="-6.49945" y2="1060.5" stroke="white" stroke-opacity="0.2"/>
<line x1="1433.46" y1="1088.5" x2="-6.49945" y2="1088.5" stroke="white" stroke-opacity="0.2"/>
<line x1="1433.46" y1="1116.5" x2="-6.49945" y2="1116.5" stroke="white" stroke-opacity="0.2"/>
<line x1="1433.46" y1="1144.5" x2="-6.49945" y2="1144.5" stroke="white" stroke-opacity="0.2"/>
<line x1="1433.46" y1="1172.5" x2="-6.49945" y2="1172.5" stroke="white" stroke-opacity="0.2"/>
<line x1="1433.46" y1="1200.5" x2="-6.49945" y2="1200.5" stroke="white" stroke-opacity="0.2"/>
<line x1="1433.46" y1="1228.5" x2="-6.49945" y2="1228.5" stroke="white" stroke-opacity="0.2"/>
<line x1="1433.46" y1="1256.5" x2="-6.49945" y2="1256.5" stroke="white" stroke-opacity="0.2"/>
<line x1="1433.46" y1="1284.5" x2="-6.49945" y2="1284.5" stroke="white" stroke-opacity="0.2"/>
<line x1="1433.46" y1="1312.5" x2="-6.49945" y2="1312.5" stroke="white" stroke-opacity="0.2"/>
<line x1="1433.46" y1="1340.5" x2="-6.49945" y2="1340.5" stroke="white" stroke-opacity="0.2"/>
<line x1="1433.46" y1="1368.5" x2="-6.49945" y2="1368.5" stroke="white" stroke-opacity="0.2"/>
<line x1="1433.46" y1="1396.5" x2="-6.49945" y2="1396.5" stroke="white" stroke-opacity="0.2"/>
<line x1="1433.46" y1="1424.5" x2="-6.49945" y2="1424.5" stroke="white" stroke-opacity="0.2"/>
<line x1="1433.46" y1="1452.5" x2="-6.49945" y2="1452.5" stroke="white" stroke-opacity="0.2"/>
<line x1="1433.46" y1="1480.5" x2="-6.49945" y2="1480.5" stroke="white" stroke-opacity="0.2"/>
<line x1="1433.46" y1="1508.5" x2="-6.49945" y2="1508.5" stroke="white" stroke-opacity="0.2"/>
<line x1="1433.46" y1="1536.5" x2="-6.49945" y2="1536.5" stroke="white" stroke-opacity="0.2"/>
<line x1="1433.46" y1="1564.5" x2="-6.49945" y2="1564.5" stroke="white" stroke-opacity="0.2"/>
<line x1="1433.46" y1="1592.5" x2="-6.49945" y2="1592.5" stroke="white" stroke-opacity="0.2"/>
<line x1="1433.46" y1="1620.5" x2="-6.49945" y2="1620.5" stroke="white" stroke-opacity="0.2"/>
<line x1="1433.46" y1="1648.5" x2="-6.49945" y2="1648.5" stroke="white" stroke-opacity="0.2"/>
<line x1="1433.46" y1="1676.5" x2="-6.49945" y2="1676.5" stroke="white" stroke-opacity="0.2"/>
<line x1="1433.46" y1="1704.5" x2="-6.49945" y2="1704.5" stroke="white" stroke-opacity="0.2"/>
<line x1="1433.46" y1="1732.5" x2="-6.49945" y2="1732.5" stroke="white" stroke-opacity="0.2"/>
<line x1="1433.46" y1="1760.5" x2="-6.49945" y2="1760.5" stroke="white" stroke-opacity="0.2"/>
<line x1="1433.46" y1="1788.5" x2="-6.49945" y2="1788.5" stroke="white" stroke-opacity="0.2"/>
<line x1="1433.46" y1="1816.5" x2="-6.49945" y2="1816.5" stroke="white" stroke-opacity="0.2"/>
<line x1="1433.46" y1="1844.5" x2="-6.49945" y2="1844.5" stroke="white" stroke-opacity="0.2"/>
<line x1="1433.46" y1="1872.5" x2="-6.49945" y2="1872.5" stroke="white" stroke-opacity="0.2"/>
<line x1="1433.46" y1="1900.5" x2="-6.49945" y2="1900.5" stroke="white" stroke-opacity="0.2"/>
<line x1="1433.46" y1="1928.5" x2="-6.49847" y2="1928.5" stroke="white" stroke-opacity="0.2"/>
<line x1="1433.46" y1="1956.5" x2="-6.49841" y2="1956.5" stroke="white" stroke-opacity="0.2"/>
<line x1="1433.46" y1="1984.5" x2="-6.49835" y2="1984.5" stroke="white" stroke-opacity="0.2"/>
<line x1="1433.46" y1="2012.5" x2="-6.49829" y2="2012.5" stroke="white" stroke-opacity="0.2"/>
<line x1="1433.46" y1="2040.5" x2="-6.49823" y2="2040.5" stroke="white" stroke-opacity="0.2"/>
<line x1="1433.46" y1="2068.5" x2="-6.49817" y2="2068.5" stroke="white" stroke-opacity="0.2"/>
<line x1="1433.46" y1="2096.5" x2="-6.49811" y2="2096.5" stroke="white" stroke-opacity="0.2"/>
<line x1="1433.46" y1="2124.5" x2="-6.49805" y2="2124.5" stroke="white" stroke-opacity="0.2"/>
<line x1="1433.46" y1="2152.5" x2="-6.49799" y2="2152.5" stroke="white" stroke-opacity="0.2"/>
<line x1="1433.46" y1="2180.5" x2="-6.49792" y2="2180.5" stroke="white" stroke-opacity="0.2"/>
<line x1="1433.46" y1="2208.5" x2="-6.49786" y2="2208.5" stroke="white" stroke-opacity="0.2"/>
<line x1="1433.46" y1="2236.5" x2="-6.4978" y2="2236.5" stroke="white" stroke-opacity="0.2"/>
<line x1="1433.46" y1="2264.5" x2="-6.49774" y2="2264.5" stroke="white" stroke-opacity="0.2"/>
<line x1="1433.46" y1="2292.5" x2="-6.49762" y2="2292.5" stroke="white" stroke-opacity="0.2"/>
<line x1="1433.46" y1="2320.5" x2="-6.49756" y2="2320.5" stroke="white" stroke-opacity="0.2"/>
<line x1="1433.46" y1="2348.5" x2="-6.4975" y2="2348.5" stroke="white" stroke-opacity="0.2"/>
<line x1="1433.46" y1="2376.5" x2="-6.49744" y2="2376.5" stroke="white" stroke-opacity="0.2"/>
<line x1="1433.46" y1="2404.5" x2="-6.49738" y2="2404.5" stroke="white" stroke-opacity="0.2"/>
<line x1="1433.46" y1="2432.5" x2="-6.49731" y2="2432.5" stroke="white" stroke-opacity="0.2"/>
<line x1="1433.46" y1="2460.5" x2="-6.49725" y2="2460.5" stroke="white" stroke-opacity="0.2"/>
<line x1="1433.46" y1="2488.5" x2="-6.49719" y2="2488.5" stroke="white" stroke-opacity="0.2"/>
<line x1="1433.47" y1="2516.5" x2="-6.49713" y2="2516.5" stroke="white" stroke-opacity="0.2"/>
<line x1="1433.47" y1="2544.5" x2="-6.49707" y2="2544.5" stroke="white" stroke-opacity="0.2"/>
<line x1="1433.47" y1="2572.5" x2="-6.49701" y2="2572.5" stroke="white" stroke-opacity="0.2"/>
<line x1="1433.47" y1="2600.5" x2="-6.49695" y2="2600.5" stroke="white" stroke-opacity="0.2"/>
<line x1="1433.47" y1="2628.5" x2="-6.49689" y2="2628.5" stroke="white" stroke-opacity="0.2"/>
<line x1="1433.47" y1="2656.5" x2="-6.49689" y2="2656.5" stroke="white" stroke-opacity="0.2"/>
<line x1="1433.47" y1="2684.5" x2="-6.49683" y2="2684.5" stroke="white" stroke-opacity="0.2"/>
<line x1="1433.47" y1="2712.5" x2="-6.49677" y2="2712.5" stroke="white" stroke-opacity="0.2"/>
<line x1="1433.47" y1="2740.5" x2="-6.4967" y2="2740.5" stroke="white" stroke-opacity="0.2"/>
<line x1="1433.47" y1="2768.5" x2="-6.49664" y2="2768.5" stroke="white" stroke-opacity="0.2"/>
<line x1="1433.47" y1="2796.5" x2="-6.49658" y2="2796.5" stroke="white" stroke-opacity="0.2"/>
<line x1="1433.47" y1="2824.5" x2="-6.49652" y2="2824.5" stroke="white" stroke-opacity="0.2"/>
<line x1="1433.47" y1="2852.5" x2="-6.49646" y2="2852.5" stroke="white" stroke-opacity="0.2"/>
<line x1="1433.47" y1="2880.5" x2="-6.4964" y2="2880.5" stroke="white" stroke-opacity="0.2"/>
<line x1="1433.47" y1="2908.5" x2="-6.49634" y2="2908.5" stroke="white" stroke-opacity="0.2"/>
<line x1="1433.47" y1="2936.5" x2="-6.49628" y2="2936.5" stroke="white" stroke-opacity="0.2"/>
<line x1="1433.47" y1="2964.5" x2="-6.49622" y2="2964.5" stroke="white" stroke-opacity="0.2"/>
</g>
</g>
<defs>
<filter id="filter0_f_9_267" x="-321.299" y="45.2" width="2070.6" height="7579.6" filterUnits="userSpaceOnUse" color-interpolation-filters="sRGB">
<feFlood flood-opacity="0" result="BackgroundImageFix"/>
<feBlend mode="normal" in="SourceGraphic" in2="BackgroundImageFix" result="shape"/>
<feGaussianBlur stdDeviation="157.4" result="effect1_foregroundBlur_9_267"/>
</filter>
</defs>
</svg>
