<svg width="944" height="356" viewBox="0 0 944 356" fill="none" xmlns="http://www.w3.org/2000/svg">
<g filter="url(#filter0_b_118_1144)">
<path d="M521.761 339L517.897 328.766H519.801L522.041 334.66C522.265 335.276 522.461 335.878 522.685 336.704C522.937 335.808 523.147 335.178 523.343 334.66L525.555 328.766H527.417L523.609 339H521.761ZM529.546 330.698C528.958 330.698 528.496 330.236 528.496 329.662C528.496 329.088 528.958 328.64 529.546 328.64C530.106 328.64 530.568 329.088 530.568 329.662C530.568 330.236 530.106 330.698 529.546 330.698ZM528.692 339V332.084H530.4V339H528.692ZM535.509 339.182C533.451 339.182 532.009 337.684 532.009 335.542C532.009 333.372 533.423 331.874 535.453 331.874C537.525 331.874 538.841 333.26 538.841 335.416V335.934L533.633 335.948C533.759 337.166 534.403 337.782 535.537 337.782C536.475 337.782 537.091 337.418 537.287 336.76H538.869C538.575 338.272 537.315 339.182 535.509 339.182ZM535.467 333.274C534.459 333.274 533.843 333.82 533.675 334.856H537.147C537.147 333.904 536.489 333.274 535.467 333.274ZM541.683 339L539.443 332.084H541.221L542.131 335.052C542.285 335.598 542.425 336.2 542.551 336.844C542.677 336.172 542.803 335.738 543.027 335.052L543.979 332.084H545.715L546.639 335.052C546.723 335.332 547.003 336.368 547.087 336.83C547.199 336.312 547.423 335.486 547.549 335.052L548.473 332.084H550.279L547.885 339H546.289L545.337 336.004C545.057 335.094 544.903 334.436 544.847 334.086C544.777 334.408 544.651 334.898 544.301 336.032L543.349 339H541.683ZM559.521 339H555.839V328.766H559.423C562.447 328.766 564.533 330.852 564.533 333.904C564.533 336.914 562.489 339 559.521 339ZM559.255 330.418H557.631V337.348H559.353C561.397 337.348 562.643 336.032 562.643 333.904C562.643 331.734 561.369 330.418 559.255 330.418ZM565.794 335.528C565.794 333.372 567.348 331.888 569.49 331.888C571.632 331.888 573.186 333.372 573.186 335.528C573.186 337.684 571.632 339.168 569.49 339.168C567.348 339.168 565.794 337.684 565.794 335.528ZM567.502 335.528C567.502 336.788 568.314 337.642 569.49 337.642C570.666 337.642 571.478 336.788 571.478 335.528C571.478 334.268 570.666 333.414 569.49 333.414C568.314 333.414 567.502 334.268 567.502 335.528ZM574.384 335.528C574.384 333.386 575.798 331.874 577.842 331.874C579.732 331.874 581.02 332.924 581.202 334.59H579.494C579.298 333.806 578.724 333.4 577.912 333.4C576.82 333.4 576.092 334.226 576.092 335.528C576.092 336.83 576.764 337.642 577.856 337.642C578.71 337.642 579.312 337.222 579.494 336.466H581.216C581.006 338.076 579.662 339.182 577.856 339.182C575.756 339.182 574.384 337.726 574.384 335.528ZM582.205 336.9H583.829C583.843 337.502 584.291 337.88 585.075 337.88C585.873 337.88 586.307 337.558 586.307 337.054C586.307 336.704 586.125 336.452 585.509 336.312L584.263 336.018C583.017 335.738 582.415 335.15 582.415 334.044C582.415 332.686 583.563 331.874 585.159 331.874C586.713 331.874 587.763 332.77 587.777 334.114H586.153C586.139 333.526 585.747 333.148 585.089 333.148C584.417 333.148 584.025 333.456 584.025 333.974C584.025 334.366 584.333 334.618 584.921 334.758L586.167 335.052C587.329 335.318 587.917 335.85 587.917 336.914C587.917 338.314 586.727 339.182 585.019 339.182C583.297 339.182 582.205 338.258 582.205 336.9Z" fill="white"/>
<path d="M614.757 334L615.111 333.646L615.464 334L615.111 334.354L614.757 334ZM602.757 334.5C602.481 334.5 602.257 334.276 602.257 334C602.257 333.724 602.481 333.5 602.757 333.5V334.5ZM611.111 329.646L615.111 333.646L614.404 334.354L610.404 330.354L611.111 329.646ZM615.111 334.354L611.111 338.354L610.404 337.646L614.404 333.646L615.111 334.354ZM614.757 334.5H602.757V333.5H614.757V334.5Z" fill="white"/>
</g>
<rect x="312.102" y="316" width="162.645" height="40" rx="20" fill="url(#paint0_linear_118_1144)"/>
<path d="M331.716 332.278C329.686 332.278 328.524 333.748 328.524 335.96C328.524 338.242 329.84 339.488 331.73 339.488C333.508 339.488 334.586 338.508 334.586 336.87V336.828H331.492V335.246H336.252V341H334.74L334.628 339.824C334.068 340.608 332.906 341.154 331.52 341.154C328.65 341.154 326.648 339.068 326.648 335.918C326.648 332.81 328.678 330.598 331.758 330.598C334.096 330.598 335.902 331.956 336.196 334.042H334.306C333.984 332.838 332.948 332.278 331.716 332.278ZM341.28 341.182C339.222 341.182 337.78 339.684 337.78 337.542C337.78 335.372 339.194 333.874 341.224 333.874C343.296 333.874 344.612 335.26 344.612 337.416V337.934L339.404 337.948C339.53 339.166 340.174 339.782 341.308 339.782C342.246 339.782 342.862 339.418 343.058 338.76H344.64C344.346 340.272 343.086 341.182 341.28 341.182ZM341.238 335.274C340.23 335.274 339.614 335.82 339.446 336.856H342.918C342.918 335.904 342.26 335.274 341.238 335.274ZM348.512 341H346.804V335.512H345.474V334.084H346.804V331.928H348.512V334.084H349.856V335.512H348.512V341ZM354.659 338.9H356.283C356.297 339.502 356.745 339.88 357.529 339.88C358.327 339.88 358.761 339.558 358.761 339.054C358.761 338.704 358.579 338.452 357.963 338.312L356.717 338.018C355.471 337.738 354.869 337.15 354.869 336.044C354.869 334.686 356.017 333.874 357.613 333.874C359.167 333.874 360.217 334.77 360.231 336.114H358.607C358.593 335.526 358.201 335.148 357.543 335.148C356.871 335.148 356.479 335.456 356.479 335.974C356.479 336.366 356.787 336.618 357.375 336.758L358.621 337.052C359.783 337.318 360.371 337.85 360.371 338.914C360.371 340.314 359.181 341.182 357.473 341.182C355.751 341.182 354.659 340.258 354.659 338.9ZM364.274 341H362.566V335.512H361.236V334.084H362.566V331.928H364.274V334.084H365.618V335.512H364.274V341ZM368.947 341.182C367.477 341.182 366.581 340.328 366.581 339.026C366.581 337.752 367.505 336.954 369.143 336.828L371.215 336.674V336.52C371.215 335.582 370.655 335.204 369.787 335.204C368.779 335.204 368.219 335.624 368.219 336.352H366.763C366.763 334.854 367.995 333.874 369.871 333.874C371.733 333.874 372.881 334.882 372.881 336.8V341H371.383L371.257 339.978C370.963 340.692 370.025 341.182 368.947 341.182ZM369.507 339.894C370.557 339.894 371.229 339.264 371.229 338.2V337.836L369.787 337.948C368.723 338.046 368.317 338.396 368.317 338.956C368.317 339.586 368.737 339.894 369.507 339.894ZM379.149 334.056V335.638H378.519C377.287 335.638 376.517 336.296 376.517 337.64V341H374.809V334.098H376.419L376.517 335.106C376.811 334.42 377.469 333.958 378.393 333.958C378.631 333.958 378.869 333.986 379.149 334.056ZM383.18 341H381.472V335.512H380.142V334.084H381.472V331.928H383.18V334.084H384.524V335.512H383.18V341ZM388.862 341.182C386.804 341.182 385.362 339.684 385.362 337.542C385.362 335.372 386.776 333.874 388.806 333.874C390.878 333.874 392.194 335.26 392.194 337.416V337.934L386.986 337.948C387.112 339.166 387.756 339.782 388.89 339.782C389.828 339.782 390.444 339.418 390.64 338.76H392.222C391.928 340.272 390.668 341.182 388.862 341.182ZM388.82 335.274C387.812 335.274 387.196 335.82 387.028 336.856H390.5C390.5 335.904 389.842 335.274 388.82 335.274ZM396.653 341.182C394.651 341.182 393.405 339.712 393.405 337.57C393.405 335.414 394.665 333.874 396.751 333.874C397.717 333.874 398.571 334.28 399.005 334.966V330.584H400.699V341H399.131L399.019 339.922C398.599 340.72 397.703 341.182 396.653 341.182ZM397.031 339.614C398.221 339.614 398.991 338.76 398.991 337.514C398.991 336.268 398.221 335.4 397.031 335.4C395.841 335.4 395.113 336.282 395.113 337.514C395.113 338.746 395.841 339.614 397.031 339.614Z" fill="white"/>
<path d="M454.747 336L455.101 335.646L455.454 336L455.101 336.354L454.747 336ZM442.747 336.5C442.471 336.5 442.247 336.276 442.247 336C442.247 335.724 442.471 335.5 442.747 335.5V336.5ZM451.101 331.646L455.101 335.646L454.394 336.354L450.394 332.354L451.101 331.646ZM455.101 336.354L451.101 340.354L450.394 339.646L454.394 335.646L455.101 336.354ZM454.747 336.5H442.747V335.5H454.747V336.5Z" fill="white"/>
<path d="M127.839 25.8V73H151.199V85H114.879V25.8H127.839ZM169.892 86.04C161.412 86.04 156.132 81.08 156.132 73.24C156.132 65.88 161.332 61.32 170.932 60.6L182.132 59.72V59.08C182.132 55.16 179.732 53.08 175.332 53.08C170.132 53.08 167.332 55.08 167.332 58.68H157.092C157.092 49.64 164.532 43.72 175.972 43.72C187.572 43.72 194.132 50.2 194.132 61.64V85H183.252L182.452 79.72C181.172 83.4 175.892 86.04 169.892 86.04ZM174.212 76.92C178.932 76.92 182.212 74.6 182.212 70.04V67.88L175.972 68.44C170.612 68.92 168.692 70.12 168.692 72.68C168.692 75.56 170.452 76.92 174.212 76.92ZM229.528 45H241.848V85H230.248L229.448 80.52C226.968 83.8 222.008 86.04 217.208 86.04C208.088 86.04 202.488 79.96 202.488 70.12V45H214.808V65.64C214.808 72.2 217.048 75.08 222.088 75.08C227.368 75.08 229.528 72.36 229.528 65.8V45ZM263.413 85H251.093V45H262.693L263.493 49.16C265.973 45.72 270.533 43.72 275.733 43.72C285.253 43.72 290.773 49.8 290.773 60.28V85H278.453V63.24C278.453 58.2 275.653 54.92 271.413 54.92C266.533 54.92 263.413 58.12 263.413 63.08V85ZM297.449 64.84C297.449 52.52 305.929 43.72 317.929 43.72C329.769 43.72 337.609 50.2 338.409 60.68H326.009C325.129 56.68 322.649 54.76 318.409 54.76C313.209 54.76 309.849 58.68 309.849 64.84C309.849 71.24 312.969 75 318.249 75C322.569 75 325.209 73 326.009 69.08H338.409C337.609 79.16 329.449 86.04 318.249 86.04C305.609 86.04 297.449 77.64 297.449 64.84ZM357.476 85H345.156V24.68H357.556V49.16C360.036 45.72 364.596 43.72 369.796 43.72C379.316 43.72 384.836 49.8 384.836 60.28V85H372.516V63.24C372.516 58.2 369.716 54.92 365.476 54.92C360.596 54.92 357.476 58.12 357.476 63.08V85ZM431.003 62.52L411.003 25.8H425.483L435.403 45C436.363 46.84 437.003 48.28 437.643 49.8C438.363 48.36 439.003 46.84 439.963 44.92L449.883 25.8H463.963L443.963 62.52V85H431.003V62.52ZM458.386 64.92C458.386 52.28 467.666 43.8 480.466 43.8C493.186 43.8 502.466 52.28 502.466 64.92C502.466 77.56 493.186 85.96 480.466 85.96C467.666 85.96 458.386 77.56 458.386 64.92ZM470.786 64.84C470.786 70.92 474.706 74.92 480.466 74.92C486.146 74.92 490.066 70.92 490.066 64.84C490.066 58.84 486.146 54.84 480.466 54.84C474.706 54.84 470.786 58.84 470.786 64.84ZM535.231 45H547.551V85H535.951L535.151 80.52C532.671 83.8 527.711 86.04 522.911 86.04C513.791 86.04 508.191 79.96 508.191 70.12V45H520.511V65.64C520.511 72.2 522.751 75.08 527.791 75.08C533.071 75.08 535.231 72.36 535.231 65.8V45ZM584.316 45V56.6H580.396C573.356 56.6 569.116 59.72 569.116 67.64V85H556.796V45.08H568.396L569.036 51C570.716 47.08 574.236 44.44 579.596 44.44C581.036 44.44 582.636 44.6 584.316 45ZM639.878 37C629.158 37 623.638 44.52 623.638 55.96C623.638 67.88 630.358 73.8 639.798 73.8C649.558 73.8 653.878 68.52 654.438 62.36H638.758V51H666.598V85H655.478L654.758 79.64C651.558 83.4 645.158 85.88 638.118 85.88C621.558 85.88 609.958 73.72 609.958 55.56C609.958 37.72 621.878 24.84 640.198 24.84C654.358 24.84 665.238 33.16 666.598 45.96H652.998C651.478 39.72 646.038 37 639.878 37ZM687.861 86.04C679.381 86.04 674.101 81.08 674.101 73.24C674.101 65.88 679.301 61.32 688.901 60.6L700.101 59.72V59.08C700.101 55.16 697.701 53.08 693.301 53.08C688.101 53.08 685.301 55.08 685.301 58.68H675.061C675.061 49.64 682.501 43.72 693.941 43.72C705.541 43.72 712.101 50.2 712.101 61.64V85H701.221L700.421 79.72C699.141 83.4 693.861 86.04 687.861 86.04ZM692.181 76.92C696.901 76.92 700.181 74.6 700.181 70.04V67.88L693.941 68.44C688.581 68.92 686.661 70.12 686.661 72.68C686.661 75.56 688.421 76.92 692.181 76.92ZM733.257 85H720.937V45H732.457L733.257 49.16C735.257 46.36 739.177 43.72 744.937 43.72C750.937 43.72 754.777 46.52 757.097 50.76C759.177 46.52 763.897 43.72 769.657 43.72C779.977 43.72 785.097 49.72 785.097 58.84V85H772.777V62.28C772.777 57.24 770.137 54.84 766.217 54.84C762.697 54.84 759.177 56.76 759.177 63.56V85H746.857V62.28C746.857 57.32 744.297 54.92 740.377 54.92C736.857 54.92 733.257 56.84 733.257 63.56V85ZM812.466 86.04C800.386 86.04 791.746 77.24 791.746 64.92C791.746 52.44 800.146 43.72 812.226 43.72C824.786 43.72 832.626 51.96 832.626 65V68.12L803.586 68.28C804.306 73.56 807.266 76.04 812.706 76.04C817.346 76.04 820.626 74.36 821.506 71.48H832.786C831.346 80.36 823.426 86.04 812.466 86.04ZM812.306 53.72C807.426 53.72 804.706 55.88 803.746 60.68H820.386C820.386 56.44 817.266 53.72 812.306 53.72ZM45.3003 172.92C45.3003 160.28 54.5803 151.8 67.3803 151.8C80.1003 151.8 89.3803 160.28 89.3803 172.92C89.3803 185.56 80.1003 193.96 67.3803 193.96C54.5803 193.96 45.3003 185.56 45.3003 172.92ZM57.7003 172.84C57.7003 178.92 61.6203 182.92 67.3803 182.92C73.0603 182.92 76.9803 178.92 76.9803 172.84C76.9803 166.84 73.0603 162.84 67.3803 162.84C61.6203 162.84 57.7003 166.84 57.7003 172.84ZM108.843 193H96.5228V153H108.123L108.923 157.16C111.403 153.72 115.963 151.72 121.163 151.72C130.683 151.72 136.203 157.8 136.203 168.28V193H123.883V171.24C123.883 166.2 121.083 162.92 116.843 162.92C111.963 162.92 108.843 166.12 108.843 171.08V193ZM516.197 146.76C512.277 146.76 509.157 143.64 509.157 139.72C509.157 135.8 512.277 132.76 516.197 132.76C520.037 132.76 523.157 135.8 523.157 139.72C523.157 143.64 520.037 146.76 516.197 146.76ZM510.117 193V153H522.437V193H510.117ZM543.999 193H531.679V153H543.279L544.079 157.16C546.559 153.72 551.119 151.72 556.319 151.72C565.839 151.72 571.359 157.8 571.359 168.28V193H559.039V171.24C559.039 166.2 556.239 162.92 551.999 162.92C547.119 162.92 543.999 166.12 543.999 171.08V193ZM615.447 193H602.887V133.8H615.447L633.047 177.96L650.727 133.8H663.447V193H650.887V180.6C650.887 167.8 650.887 165 651.527 160.6L638.967 193H627.127L614.647 160.6C615.367 165 615.447 169.96 615.447 176.44V193ZM680.337 146.76C676.417 146.76 673.297 143.64 673.297 139.72C673.297 135.8 676.417 132.76 680.337 132.76C684.177 132.76 687.297 135.8 687.297 139.72C687.297 143.64 684.177 146.76 680.337 146.76ZM674.257 193V153H686.577V193H674.257ZM708.14 193H695.82V153H707.42L708.22 157.16C710.7 153.72 715.26 151.72 720.46 151.72C729.98 151.72 735.5 157.8 735.5 168.28V193H723.18V171.24C723.18 166.2 720.38 162.92 716.14 162.92C711.26 162.92 708.14 166.12 708.14 171.08V193ZM770.895 153H783.215V193H771.615L770.815 188.52C768.335 191.8 763.375 194.04 758.575 194.04C749.455 194.04 743.855 187.96 743.855 178.12V153H756.175V173.64C756.175 180.2 758.415 183.08 763.455 183.08C768.735 183.08 770.895 180.36 770.895 173.8V153ZM808.62 193H796.3V163.24H788.7V153H796.3V140.6H808.62V153H816.22V163.24H808.62V193ZM839.927 194.04C827.847 194.04 819.207 185.24 819.207 172.92C819.207 160.44 827.607 151.72 839.687 151.72C852.247 151.72 860.087 159.96 860.087 173V176.12L831.047 176.28C831.767 181.56 834.727 184.04 840.167 184.04C844.807 184.04 848.087 182.36 848.967 179.48H860.247C858.807 188.36 850.887 194.04 839.927 194.04ZM839.767 161.72C834.887 161.72 832.167 163.88 831.207 168.68H847.847C847.847 164.44 844.727 161.72 839.767 161.72ZM864.502 180.36H876.182C876.342 183.16 878.422 184.84 882.182 184.84C886.022 184.84 887.782 183.48 887.782 181.4C887.782 180.2 887.142 178.92 884.182 178.28L876.822 176.68C869.462 175.08 865.862 171.88 865.862 164.84C865.862 156.52 872.982 151.72 882.582 151.72C891.862 151.72 898.342 157.16 898.342 165.24H886.662C886.662 162.52 884.982 160.68 882.022 160.68C879.222 160.68 877.462 162.12 877.462 164.28C877.462 166.12 878.982 167.16 881.782 167.8L889.222 169.4C895.782 170.84 899.382 173.88 899.382 180.28C899.382 188.84 892.102 194.04 881.702 194.04C871.142 194.04 864.502 188.44 864.502 180.36Z" fill="white"/>
<path d="M180.53 193L162.77 133.8H176.29L184.05 159.48C185.09 163 186.05 166.52 187.01 172.36C187.97 166.52 188.93 163.16 189.97 159.48L197.25 133.8H211.73L218.69 159.48C219.65 163.08 220.61 166.68 221.65 172.36C222.85 166.36 223.73 163.08 224.77 159.64L232.69 133.8H245.89L227.81 193H215.17L204.37 154.12L193.25 193H180.53ZM263.911 194.04C251.831 194.04 243.191 185.24 243.191 172.92C243.191 160.44 251.591 151.72 263.671 151.72C276.231 151.72 284.071 159.96 284.071 173V176.12L255.031 176.28C255.751 181.56 258.711 184.04 264.151 184.04C268.791 184.04 272.071 182.36 272.951 179.48H284.231C282.791 188.36 274.871 194.04 263.911 194.04ZM263.751 161.72C258.871 161.72 256.151 163.88 255.191 168.68H271.831C271.831 164.44 268.711 161.72 263.751 161.72ZM302.967 193H291.367V132.68H303.687V157.64C306.087 154.04 311.367 151.64 317.127 151.64C328.327 151.64 335.447 160.36 335.447 173.4C335.447 185.8 327.527 194.04 316.167 194.04C310.567 194.04 305.767 191.56 303.607 187.88L302.967 193ZM303.767 172.76C303.767 178.76 307.767 182.76 313.527 182.76C319.367 182.76 323.047 178.68 323.047 172.76C323.047 166.84 319.367 162.76 313.527 162.76C307.767 162.76 303.767 166.76 303.767 172.76ZM380.03 165.16H371.39V156.84C371.55 156.68 371.71 156.6 371.87 156.44L384.75 145.16H362.43V133.8H400.99V144.12L388.51 155.08C396.51 157.48 402.99 163.88 402.99 173.96C402.99 186.44 392.91 194.04 380.91 194.04C369.39 194.04 359.71 187 359.71 173.64H372.51C372.51 179.48 376.03 182.6 381.23 182.6C386.27 182.6 389.71 179.16 389.71 173.88C389.71 169.16 386.99 165.16 380.03 165.16ZM417.015 194.04C412.935 194.04 409.655 190.76 409.655 186.84C409.655 182.84 412.935 179.56 417.015 179.56C420.935 179.56 424.375 182.84 424.375 186.84C424.375 190.76 420.935 194.04 417.015 194.04ZM429.763 163.56C429.763 145.24 440.163 132.68 455.603 132.68C471.043 132.68 481.443 145.24 481.443 163.56C481.443 181.88 471.843 194.04 455.603 194.04C439.363 194.04 429.763 181.88 429.763 163.56ZM442.563 163.56C442.563 176.28 447.363 182.68 455.603 182.68C463.843 182.68 468.643 176.28 468.643 163.56C468.643 150.44 463.843 144.04 455.603 144.04C447.363 144.04 442.563 150.44 442.563 163.56Z" fill="url(#paint1_linear_118_1144)"/>
<path d="M87.2105 255L81.9785 237.456H85.1705L87.9545 246.72C88.2185 247.68 88.4825 248.664 88.7465 250.2C89.0345 248.64 89.2985 247.728 89.6105 246.72L92.3705 237.456H95.7545L98.4665 246.72C98.7545 247.704 99.0185 248.712 99.3065 250.2C99.6425 248.568 99.8825 247.632 100.146 246.744L102.978 237.456H106.098L100.77 255H97.7945L94.0505 242.232L90.2345 255H87.2105ZM111.567 255.312C108.039 255.312 105.567 252.744 105.567 249.072C105.567 245.352 107.991 242.784 111.471 242.784C115.023 242.784 117.279 245.16 117.279 248.856V249.744L108.351 249.768C108.567 251.856 109.671 252.912 111.615 252.912C113.223 252.912 114.279 252.288 114.615 251.16H117.327C116.823 253.752 114.663 255.312 111.567 255.312ZM111.495 245.184C109.767 245.184 108.711 246.12 108.423 247.896H114.375C114.375 246.264 113.247 245.184 111.495 245.184ZM129.019 255H126.091V237.144H129.043V244.68C129.787 243.528 131.179 242.784 132.883 242.784C135.811 242.784 137.347 244.632 137.347 247.704V255H134.419V248.4C134.419 246.408 133.435 245.448 131.947 245.448C130.099 245.448 129.019 246.744 129.019 248.52V255ZM145.528 255.312C142 255.312 139.528 252.744 139.528 249.072C139.528 245.352 141.952 242.784 145.432 242.784C148.984 242.784 151.24 245.16 151.24 248.856V249.744L142.312 249.768C142.528 251.856 143.632 252.912 145.576 252.912C147.184 252.912 148.24 252.288 148.576 251.16H151.288C150.784 253.752 148.624 255.312 145.528 255.312ZM145.456 245.184C143.728 245.184 142.672 246.12 142.384 247.896H148.336C148.336 246.264 147.208 245.184 145.456 245.184ZM156.536 255H153.632V237.144H156.536V255ZM159.607 260.496V243.144H162.319L162.511 244.944C163.231 243.576 164.791 242.784 166.591 242.784C169.927 242.784 172.135 245.208 172.135 248.928C172.135 252.624 170.119 255.312 166.591 255.312C164.815 255.312 163.279 254.616 162.535 253.416V260.496H159.607ZM162.559 249.072C162.559 251.208 163.879 252.672 165.895 252.672C167.959 252.672 169.183 251.184 169.183 249.072C169.183 246.96 167.959 245.448 165.895 245.448C163.879 245.448 162.559 246.936 162.559 249.072ZM180.263 248.808C180.263 245.352 182.519 242.76 185.903 242.76C187.679 242.76 189.071 243.504 189.767 244.776L189.935 243.144H192.647V254.4C192.647 258.36 190.271 260.832 186.431 260.832C183.023 260.832 180.695 258.888 180.335 255.72H183.263C183.455 257.256 184.631 258.168 186.431 258.168C188.447 258.168 189.743 256.896 189.743 254.928V252.96C188.999 254.064 187.535 254.76 185.831 254.76C182.471 254.76 180.263 252.24 180.263 248.808ZM183.215 248.736C183.215 250.728 184.487 252.216 186.407 252.216C188.423 252.216 189.671 250.8 189.671 248.736C189.671 246.72 188.447 245.328 186.407 245.328C184.463 245.328 183.215 246.792 183.215 248.736ZM199.205 255.312C196.685 255.312 195.149 253.848 195.149 251.616C195.149 249.432 196.733 248.064 199.541 247.848L203.093 247.584V247.32C203.093 245.712 202.133 245.064 200.645 245.064C198.917 245.064 197.957 245.784 197.957 247.032H195.461C195.461 244.464 197.573 242.784 200.789 242.784C203.981 242.784 205.949 244.512 205.949 247.8V255H203.381L203.165 253.248C202.661 254.472 201.053 255.312 199.205 255.312ZM200.165 253.104C201.965 253.104 203.117 252.024 203.117 250.2V249.576L200.645 249.768C198.821 249.936 198.125 250.536 198.125 251.496C198.125 252.576 198.845 253.104 200.165 253.104ZM211.754 255H208.826V243.144H211.514L211.754 244.536C212.354 243.552 213.554 242.784 215.258 242.784C217.058 242.784 218.306 243.672 218.93 245.04C219.53 243.672 220.922 242.784 222.722 242.784C225.602 242.784 227.186 244.512 227.186 247.248V255H224.282V248.016C224.282 246.312 223.37 245.424 221.978 245.424C220.562 245.424 219.482 246.336 219.482 248.28V255H216.554V247.992C216.554 246.336 215.666 245.448 214.274 245.448C212.882 245.448 211.754 246.36 211.754 248.28V255ZM235.364 255.312C231.836 255.312 229.364 252.744 229.364 249.072C229.364 245.352 231.788 242.784 235.268 242.784C238.82 242.784 241.076 245.16 241.076 248.856V249.744L232.148 249.768C232.364 251.856 233.468 252.912 235.412 252.912C237.02 252.912 238.076 252.288 238.412 251.16H241.124C240.62 253.752 238.46 255.312 235.364 255.312ZM235.292 245.184C233.564 245.184 232.508 246.12 232.22 247.896H238.172C238.172 246.264 237.044 245.184 235.292 245.184ZM254.76 255.312C251.328 255.312 249.192 252.792 249.192 249.12C249.192 245.424 251.352 242.784 254.928 242.784C256.584 242.784 258.048 243.48 258.792 244.656V237.144H261.696V255H259.008L258.816 253.152C258.096 254.52 256.56 255.312 254.76 255.312ZM255.408 252.624C257.448 252.624 258.768 251.16 258.768 249.024C258.768 246.888 257.448 245.4 255.408 245.4C253.368 245.4 252.12 246.912 252.12 249.024C252.12 251.136 253.368 252.624 255.408 252.624ZM270.052 255.312C266.524 255.312 264.052 252.744 264.052 249.072C264.052 245.352 266.476 242.784 269.956 242.784C273.508 242.784 275.764 245.16 275.764 248.856V249.744L266.836 249.768C267.052 251.856 268.156 252.912 270.1 252.912C271.708 252.912 272.764 252.288 273.1 251.16H275.812C275.308 253.752 273.148 255.312 270.052 255.312ZM269.98 245.184C268.252 245.184 267.196 246.12 266.908 247.896H272.86C272.86 246.264 271.732 245.184 269.98 245.184ZM280.951 255L276.247 243.144H279.367L281.431 248.592C281.935 250.008 282.343 251.232 282.487 251.88C282.655 251.136 283.087 249.888 283.591 248.592L285.751 243.144H288.775L283.831 255H280.951ZM295.177 255.312C291.649 255.312 289.177 252.744 289.177 249.072C289.177 245.352 291.601 242.784 295.081 242.784C298.633 242.784 300.889 245.16 300.889 248.856V249.744L291.961 249.768C292.177 251.856 293.281 252.912 295.225 252.912C296.833 252.912 297.889 252.288 298.225 251.16H300.937C300.433 253.752 298.273 255.312 295.177 255.312ZM295.105 245.184C293.377 245.184 292.321 246.12 292.033 247.896H297.985C297.985 246.264 296.857 245.184 295.105 245.184ZM306.184 255H303.28V237.144H306.184V255ZM308.559 249.048C308.559 245.352 311.223 242.808 314.895 242.808C318.567 242.808 321.231 245.352 321.231 249.048C321.231 252.744 318.567 255.288 314.895 255.288C311.223 255.288 308.559 252.744 308.559 249.048ZM311.487 249.048C311.487 251.208 312.879 252.672 314.895 252.672C316.911 252.672 318.303 251.208 318.303 249.048C318.303 246.888 316.911 245.424 314.895 245.424C312.879 245.424 311.487 246.888 311.487 249.048ZM323.552 260.496V243.144H326.264L326.456 244.944C327.176 243.576 328.736 242.784 330.536 242.784C333.872 242.784 336.08 245.208 336.08 248.928C336.08 252.624 334.064 255.312 330.536 255.312C328.76 255.312 327.224 254.616 326.48 253.416V260.496H323.552ZM326.504 249.072C326.504 251.208 327.824 252.672 329.84 252.672C331.904 252.672 333.128 251.184 333.128 249.072C333.128 246.96 331.904 245.448 329.84 245.448C327.824 245.448 326.504 246.936 326.504 249.072ZM343.716 255.312C340.188 255.312 337.716 252.744 337.716 249.072C337.716 245.352 340.14 242.784 343.62 242.784C347.172 242.784 349.428 245.16 349.428 248.856V249.744L340.5 249.768C340.716 251.856 341.82 252.912 343.764 252.912C345.372 252.912 346.428 252.288 346.764 251.16H349.476C348.972 253.752 346.812 255.312 343.716 255.312ZM343.644 245.184C341.916 245.184 340.86 246.12 340.572 247.896H346.524C346.524 246.264 345.396 245.184 343.644 245.184ZM359.211 243.096V245.808H358.131C356.019 245.808 354.699 246.936 354.699 249.24V255H351.771V243.168H354.531L354.699 244.896C355.203 243.72 356.331 242.928 357.915 242.928C358.323 242.928 358.731 242.976 359.211 243.096ZM360.281 251.4H363.065C363.089 252.432 363.857 253.08 365.201 253.08C366.569 253.08 367.313 252.528 367.313 251.664C367.313 251.064 367.001 250.632 365.945 250.392L363.809 249.888C361.673 249.408 360.641 248.4 360.641 246.504C360.641 244.176 362.609 242.784 365.345 242.784C368.009 242.784 369.809 244.32 369.833 246.624H367.049C367.025 245.616 366.353 244.968 365.225 244.968C364.073 244.968 363.401 245.496 363.401 246.384C363.401 247.056 363.929 247.488 364.937 247.728L367.073 248.232C369.065 248.688 370.073 249.6 370.073 251.424C370.073 253.824 368.033 255.312 365.105 255.312C362.153 255.312 360.281 253.728 360.281 251.4ZM382.803 255H379.875V245.592H377.595V243.144H379.875V239.448H382.803V243.144H385.107V245.592H382.803V255ZM386.114 249.048C386.114 245.352 388.778 242.808 392.45 242.808C396.122 242.808 398.786 245.352 398.786 249.048C398.786 252.744 396.122 255.288 392.45 255.288C388.778 255.288 386.114 252.744 386.114 249.048ZM389.042 249.048C389.042 251.208 390.434 252.672 392.45 252.672C394.466 252.672 395.858 251.208 395.858 249.048C395.858 246.888 394.466 245.424 392.45 245.424C390.434 245.424 389.042 246.888 389.042 249.048ZM410.528 255H407.624V237.144H410.528V255ZM417.127 255.312C414.607 255.312 413.071 253.848 413.071 251.616C413.071 249.432 414.655 248.064 417.463 247.848L421.015 247.584V247.32C421.015 245.712 420.055 245.064 418.567 245.064C416.839 245.064 415.879 245.784 415.879 247.032H413.383C413.383 244.464 415.495 242.784 418.711 242.784C421.903 242.784 423.871 244.512 423.871 247.8V255H421.303L421.087 253.248C420.583 254.472 418.975 255.312 417.127 255.312ZM418.087 253.104C419.887 253.104 421.039 252.024 421.039 250.2V249.576L418.567 249.768C416.743 249.936 416.047 250.536 416.047 251.496C416.047 252.576 416.767 253.104 418.087 253.104ZM434.788 243.144H437.716V255H435.004L434.788 253.416C434.068 254.544 432.532 255.312 430.948 255.312C428.212 255.312 426.604 253.464 426.604 250.56V243.144H429.532V249.528C429.532 251.784 430.42 252.696 432.052 252.696C433.9 252.696 434.788 251.616 434.788 249.36V243.144ZM443.668 255H440.74V243.144H443.452L443.692 244.68C444.436 243.48 445.876 242.784 447.484 242.784C450.46 242.784 451.996 244.632 451.996 247.704V255H449.068V248.4C449.068 246.408 448.084 245.448 446.572 245.448C444.772 245.448 443.668 246.696 443.668 248.616V255ZM454.177 249.048C454.177 245.376 456.601 242.784 460.105 242.784C463.345 242.784 465.553 244.584 465.865 247.44H462.937C462.601 246.096 461.617 245.4 460.225 245.4C458.353 245.4 457.105 246.816 457.105 249.048C457.105 251.28 458.257 252.672 460.129 252.672C461.593 252.672 462.625 251.952 462.937 250.656H465.889C465.529 253.416 463.225 255.312 460.129 255.312C456.529 255.312 454.177 252.816 454.177 249.048ZM470.996 255H468.068V237.144H471.02V244.68C471.764 243.528 473.156 242.784 474.86 242.784C477.788 242.784 479.324 244.632 479.324 247.704V255H476.396V248.4C476.396 246.408 475.412 245.448 473.924 245.448C472.076 245.448 470.996 246.744 470.996 248.52V255ZM492.702 255H489.774V245.592H487.494V243.144H489.774V239.448H492.702V243.144H495.006V245.592H492.702V255ZM499.754 255H496.826V237.144H499.778V244.68C500.522 243.528 501.914 242.784 503.618 242.784C506.546 242.784 508.082 244.632 508.082 247.704V255H505.154V248.4C505.154 246.408 504.17 245.448 502.682 245.448C500.834 245.448 499.754 246.744 499.754 248.52V255ZM516.263 255.312C512.735 255.312 510.263 252.744 510.263 249.072C510.263 245.352 512.687 242.784 516.167 242.784C519.719 242.784 521.975 245.16 521.975 248.856V249.744L513.047 249.768C513.263 251.856 514.367 252.912 516.311 252.912C517.919 252.912 518.975 252.288 519.311 251.16H522.023C521.519 253.752 519.359 255.312 516.263 255.312ZM516.191 245.184C514.463 245.184 513.407 246.12 513.119 247.896H519.071C519.071 246.264 517.943 245.184 516.191 245.184ZM525.782 240.768C524.774 240.768 523.982 239.976 523.982 238.992C523.982 238.008 524.774 237.24 525.782 237.24C526.742 237.24 527.534 238.008 527.534 238.992C527.534 239.976 526.742 240.768 525.782 240.768ZM524.318 255V243.144H527.246V255H524.318ZM537.711 243.096V245.808H536.631C534.519 245.808 533.199 246.936 533.199 249.24V255H530.271V243.168H533.031L533.199 244.896C533.703 243.72 534.831 242.928 536.415 242.928C536.823 242.928 537.231 242.976 537.711 243.096ZM545.49 248.808C545.49 245.352 547.746 242.76 551.13 242.76C552.906 242.76 554.298 243.504 554.994 244.776L555.162 243.144H557.874V254.4C557.874 258.36 555.498 260.832 551.658 260.832C548.25 260.832 545.922 258.888 545.562 255.72H548.49C548.682 257.256 549.858 258.168 551.658 258.168C553.674 258.168 554.97 256.896 554.97 254.928V252.96C554.226 254.064 552.762 254.76 551.058 254.76C547.698 254.76 545.49 252.24 545.49 248.808ZM548.442 248.736C548.442 250.728 549.714 252.216 551.634 252.216C553.65 252.216 554.898 250.8 554.898 248.736C554.898 246.72 553.674 245.328 551.634 245.328C549.69 245.328 548.442 246.792 548.442 248.736ZM564.432 255.312C561.912 255.312 560.376 253.848 560.376 251.616C560.376 249.432 561.96 248.064 564.768 247.848L568.32 247.584V247.32C568.32 245.712 567.36 245.064 565.872 245.064C564.144 245.064 563.184 245.784 563.184 247.032H560.688C560.688 244.464 562.8 242.784 566.016 242.784C569.208 242.784 571.176 244.512 571.176 247.8V255H568.608L568.392 253.248C567.888 254.472 566.28 255.312 564.432 255.312ZM565.392 253.104C567.192 253.104 568.344 252.024 568.344 250.2V249.576L565.872 249.768C564.048 249.936 563.352 250.536 563.352 251.496C563.352 252.576 564.072 253.104 565.392 253.104ZM576.98 255H574.052V243.144H576.74L576.98 244.536C577.58 243.552 578.78 242.784 580.484 242.784C582.284 242.784 583.532 243.672 584.156 245.04C584.756 243.672 586.148 242.784 587.948 242.784C590.828 242.784 592.412 244.512 592.412 247.248V255H589.508V248.016C589.508 246.312 588.596 245.424 587.204 245.424C585.788 245.424 584.708 246.336 584.708 248.28V255H581.78V247.992C581.78 246.336 580.892 245.448 579.5 245.448C578.108 245.448 576.98 246.36 576.98 248.28V255ZM600.591 255.312C597.063 255.312 594.591 252.744 594.591 249.072C594.591 245.352 597.015 242.784 600.495 242.784C604.047 242.784 606.303 245.16 606.303 248.856V249.744L597.375 249.768C597.591 251.856 598.695 252.912 600.639 252.912C602.247 252.912 603.303 252.288 603.639 251.16H606.351C605.847 253.752 603.687 255.312 600.591 255.312ZM600.519 245.184C598.791 245.184 597.735 246.12 597.447 247.896H603.399C603.399 246.264 602.271 245.184 600.519 245.184ZM614.419 249.048C614.419 245.352 617.083 242.808 620.755 242.808C624.427 242.808 627.091 245.352 627.091 249.048C627.091 252.744 624.427 255.288 620.755 255.288C617.083 255.288 614.419 252.744 614.419 249.048ZM617.347 249.048C617.347 251.208 618.739 252.672 620.755 252.672C622.771 252.672 624.163 251.208 624.163 249.048C624.163 246.888 622.771 245.424 620.755 245.424C618.739 245.424 617.347 246.888 617.347 249.048ZM632.34 255H629.412V243.144H632.124L632.364 244.68C633.108 243.48 634.548 242.784 636.156 242.784C639.132 242.784 640.668 244.632 640.668 247.704V255H637.74V248.4C637.74 246.408 636.756 245.448 635.244 245.448C633.444 245.448 632.34 246.696 632.34 248.616V255ZM654.093 255L648.861 237.456H652.053L654.837 246.72C655.101 247.68 655.365 248.664 655.629 250.2C655.917 248.64 656.181 247.728 656.493 246.72L659.253 237.456H662.637L665.349 246.72C665.637 247.704 665.901 248.712 666.189 250.2C666.525 248.568 666.765 247.632 667.029 246.744L669.861 237.456H672.981L667.653 255H664.677L660.933 242.232L657.117 255H654.093ZM678.45 255.312C674.922 255.312 672.45 252.744 672.45 249.072C672.45 245.352 674.874 242.784 678.354 242.784C681.906 242.784 684.162 245.16 684.162 248.856V249.744L675.234 249.768C675.45 251.856 676.554 252.912 678.498 252.912C680.106 252.912 681.162 252.288 681.498 251.16H684.21C683.706 253.752 681.546 255.312 678.45 255.312ZM678.378 245.184C676.65 245.184 675.594 246.12 675.306 247.896H681.258C681.258 246.264 680.13 245.184 678.378 245.184ZM689.217 255H686.505V237.144H689.433V244.872C690.201 243.552 691.785 242.76 693.585 242.76C696.969 242.76 699.033 245.4 699.033 249.144C699.033 252.792 696.801 255.312 693.393 255.312C691.617 255.312 690.105 254.52 689.409 253.152L689.217 255ZM689.457 249.024C689.457 251.16 690.777 252.624 692.793 252.624C694.857 252.624 696.081 251.136 696.081 249.024C696.081 246.912 694.857 245.4 692.793 245.4C690.777 245.4 689.457 246.888 689.457 249.024ZM712.538 246.312H710.402V244.32L714.914 240.168H707.618V237.456H718.754V239.904L714.482 243.84C717.17 244.368 719.258 246.336 719.258 249.432C719.258 253.032 716.45 255.312 712.898 255.312C709.466 255.312 706.802 253.2 706.802 249.408H709.826C709.826 251.424 711.074 252.576 712.946 252.576C714.866 252.576 716.138 251.328 716.138 249.384C716.138 247.608 714.986 246.312 712.538 246.312ZM723.255 255.288C722.199 255.288 721.311 254.424 721.311 253.392C721.311 252.336 722.199 251.472 723.255 251.472C724.311 251.472 725.199 252.336 725.199 253.392C725.199 254.424 724.311 255.288 723.255 255.288ZM726.924 246.264C726.924 240.816 729.852 237.12 734.34 237.12C738.828 237.12 741.78 240.816 741.78 246.264C741.78 251.688 738.996 255.312 734.34 255.312C729.684 255.312 726.924 251.688 726.924 246.264ZM729.948 246.264C729.948 250.32 731.58 252.6 734.34 252.6C737.124 252.6 738.756 250.32 738.756 246.264C738.756 242.112 737.124 239.832 734.34 239.832C731.58 239.832 729.948 242.112 729.948 246.264ZM747.371 253.944C747.371 255.936 745.931 257.52 743.987 257.76V256.584C745.067 256.392 745.883 255.744 745.883 254.904C745.691 255 745.475 255.048 745.187 255.048C744.251 255.048 743.483 254.352 743.483 253.392C743.483 252.24 744.227 251.472 745.307 251.472C746.507 251.472 747.371 252.456 747.371 253.944ZM759.624 255H756.912V237.144H759.84V244.872C760.608 243.552 762.192 242.76 763.992 242.76C767.376 242.76 769.44 245.4 769.44 249.144C769.44 252.792 767.208 255.312 763.8 255.312C762.024 255.312 760.512 254.52 759.816 253.152L759.624 255ZM759.864 249.024C759.864 251.16 761.184 252.624 763.2 252.624C765.264 252.624 766.488 251.136 766.488 249.024C766.488 246.912 765.264 245.4 763.2 245.4C761.184 245.4 759.864 246.888 759.864 249.024ZM770.294 260.496V258.048H772.046C773.198 258.048 773.918 257.784 774.422 256.392L774.758 255.504L769.982 243.144H773.078L776.126 251.784L779.342 243.144H782.366L776.558 257.64C775.67 259.848 774.422 260.76 772.478 260.76C771.662 260.76 770.942 260.664 770.294 260.496ZM793.45 255H790.546V237.144H793.45V248.112L798.058 243.144H801.73L797.218 247.848L801.634 255H798.274L795.178 250.008L793.45 251.808V255ZM808.177 255.312C804.649 255.312 802.177 252.744 802.177 249.072C802.177 245.352 804.601 242.784 808.081 242.784C811.633 242.784 813.889 245.16 813.889 248.856V249.744L804.961 249.768C805.177 251.856 806.281 252.912 808.225 252.912C809.833 252.912 810.889 252.288 811.225 251.16H813.937C813.433 253.752 811.273 255.312 808.177 255.312ZM808.105 245.184C806.377 245.184 805.321 246.12 805.033 247.896H810.985C810.985 246.264 809.857 245.184 808.105 245.184ZM821.536 255.312C818.008 255.312 815.536 252.744 815.536 249.072C815.536 245.352 817.96 242.784 821.44 242.784C824.992 242.784 827.248 245.16 827.248 248.856V249.744L818.32 249.768C818.536 251.856 819.64 252.912 821.584 252.912C823.192 252.912 824.248 252.288 824.584 251.16H827.296C826.792 253.752 824.632 255.312 821.536 255.312ZM821.464 245.184C819.736 245.184 818.68 246.12 818.392 247.896H824.344C824.344 246.264 823.216 245.184 821.464 245.184ZM829.591 260.496V243.144H832.303L832.495 244.944C833.215 243.576 834.775 242.784 836.575 242.784C839.911 242.784 842.119 245.208 842.119 248.928C842.119 252.624 840.103 255.312 836.575 255.312C834.799 255.312 833.263 254.616 832.519 253.416V260.496H829.591ZM832.543 249.072C832.543 251.208 833.863 252.672 835.879 252.672C837.943 252.672 839.167 251.184 839.167 249.072C839.167 246.96 837.943 245.448 835.879 245.448C833.863 245.448 832.543 246.936 832.543 249.072ZM845.915 240.768C844.907 240.768 844.115 239.976 844.115 238.992C844.115 238.008 844.907 237.24 845.915 237.24C846.875 237.24 847.667 238.008 847.667 238.992C847.667 239.976 846.875 240.768 845.915 240.768ZM844.451 255V243.144H847.379V255H844.451ZM853.332 255H850.404V243.144H853.116L853.356 244.68C854.1 243.48 855.54 242.784 857.148 242.784C860.124 242.784 861.66 244.632 861.66 247.704V255H858.732V248.4C858.732 246.408 857.748 245.448 856.236 245.448C854.436 245.448 853.332 246.696 853.332 248.616V255ZM863.865 248.808C863.865 245.352 866.121 242.76 869.505 242.76C871.281 242.76 872.673 243.504 873.369 244.776L873.537 243.144H876.249V254.4C876.249 258.36 873.873 260.832 870.033 260.832C866.625 260.832 864.297 258.888 863.937 255.72H866.865C867.057 257.256 868.233 258.168 870.033 258.168C872.049 258.168 873.345 256.896 873.345 254.928V252.96C872.601 254.064 871.137 254.76 869.433 254.76C866.073 254.76 863.865 252.24 863.865 248.808ZM866.817 248.736C866.817 250.728 868.089 252.216 870.009 252.216C872.025 252.216 873.273 250.8 873.273 248.736C873.273 246.72 872.049 245.328 870.009 245.328C868.065 245.328 866.817 246.792 866.817 248.736ZM192.401 287H189.689V269.144H192.617V276.872C193.385 275.552 194.969 274.76 196.769 274.76C200.153 274.76 202.217 277.4 202.217 281.144C202.217 284.792 199.985 287.312 196.577 287.312C194.801 287.312 193.289 286.52 192.593 285.152L192.401 287ZM192.641 281.024C192.641 283.16 193.961 284.624 195.977 284.624C198.041 284.624 199.265 283.136 199.265 281.024C199.265 278.912 198.041 277.4 195.977 277.4C193.961 277.4 192.641 278.888 192.641 281.024ZM207.5 287H204.596V269.144H207.5V287ZM209.876 281.048C209.876 277.352 212.54 274.808 216.212 274.808C219.884 274.808 222.548 277.352 222.548 281.048C222.548 284.744 219.884 287.288 216.212 287.288C212.54 287.288 209.876 284.744 209.876 281.048ZM212.804 281.048C212.804 283.208 214.196 284.672 216.212 284.672C218.228 284.672 219.62 283.208 219.62 281.048C219.62 278.888 218.228 277.424 216.212 277.424C214.196 277.424 212.804 278.888 212.804 281.048ZM224.173 281.048C224.173 277.376 226.597 274.784 230.101 274.784C233.341 274.784 235.549 276.584 235.861 279.44H232.933C232.597 278.096 231.613 277.4 230.221 277.4C228.349 277.4 227.101 278.816 227.101 281.048C227.101 283.28 228.253 284.672 230.125 284.672C231.589 284.672 232.621 283.952 232.933 282.656H235.885C235.525 285.416 233.221 287.312 230.125 287.312C226.525 287.312 224.173 284.816 224.173 281.048ZM241.016 287H238.112V269.144H241.016V280.112L245.624 275.144H249.296L244.784 279.848L249.2 287H245.84L242.744 282.008L241.016 283.808V287ZM249.743 281.048C249.743 277.376 252.167 274.784 255.671 274.784C258.911 274.784 261.119 276.584 261.431 279.44H258.503C258.167 278.096 257.183 277.4 255.791 277.4C253.919 277.4 252.671 278.816 252.671 281.048C252.671 283.28 253.823 284.672 255.695 284.672C257.159 284.672 258.191 283.952 258.503 282.656H261.455C261.095 285.416 258.791 287.312 255.695 287.312C252.095 287.312 249.743 284.816 249.743 281.048ZM266.562 287H263.634V269.144H266.586V276.68C267.33 275.528 268.722 274.784 270.426 274.784C273.354 274.784 274.89 276.632 274.89 279.704V287H271.962V280.4C271.962 278.408 270.978 277.448 269.49 277.448C267.642 277.448 266.562 278.744 266.562 280.52V287ZM281.295 287.312C278.775 287.312 277.239 285.848 277.239 283.616C277.239 281.432 278.823 280.064 281.631 279.848L285.183 279.584V279.32C285.183 277.712 284.223 277.064 282.735 277.064C281.007 277.064 280.047 277.784 280.047 279.032H277.551C277.551 276.464 279.663 274.784 282.879 274.784C286.071 274.784 288.039 276.512 288.039 279.8V287H285.471L285.255 285.248C284.751 286.472 283.143 287.312 281.295 287.312ZM282.255 285.104C284.055 285.104 285.207 284.024 285.207 282.2V281.576L282.735 281.768C280.911 281.936 280.215 282.536 280.215 283.496C280.215 284.576 280.935 285.104 282.255 285.104ZM292.38 272.768C291.372 272.768 290.58 271.976 290.58 270.992C290.58 270.008 291.372 269.24 292.38 269.24C293.34 269.24 294.132 270.008 294.132 270.992C294.132 271.976 293.34 272.768 292.38 272.768ZM290.916 287V275.144H293.844V287H290.916ZM299.797 287H296.869V275.144H299.581L299.821 276.68C300.565 275.48 302.005 274.784 303.613 274.784C306.589 274.784 308.125 276.632 308.125 279.704V287H305.197V280.4C305.197 278.408 304.213 277.448 302.701 277.448C300.901 277.448 299.797 278.696 299.797 280.616V287ZM316.774 281.048C316.774 277.376 319.198 274.784 322.702 274.784C325.942 274.784 328.15 276.584 328.462 279.44H325.534C325.198 278.096 324.214 277.4 322.822 277.4C320.95 277.4 319.702 278.816 319.702 281.048C319.702 283.28 320.854 284.672 322.726 284.672C324.19 284.672 325.222 283.952 325.534 282.656H328.486C328.126 285.416 325.822 287.312 322.726 287.312C319.126 287.312 316.774 284.816 316.774 281.048ZM329.97 281.048C329.97 277.352 332.634 274.808 336.306 274.808C339.978 274.808 342.642 277.352 342.642 281.048C342.642 284.744 339.978 287.288 336.306 287.288C332.634 287.288 329.97 284.744 329.97 281.048ZM332.898 281.048C332.898 283.208 334.29 284.672 336.306 284.672C338.322 284.672 339.714 283.208 339.714 281.048C339.714 278.888 338.322 277.424 336.306 277.424C334.29 277.424 332.898 278.888 332.898 281.048ZM347.891 287H344.963V275.144H347.651L347.891 276.536C348.491 275.552 349.691 274.784 351.395 274.784C353.195 274.784 354.443 275.672 355.067 277.04C355.667 275.672 357.059 274.784 358.859 274.784C361.739 274.784 363.323 276.512 363.323 279.248V287H360.419V280.016C360.419 278.312 359.507 277.424 358.115 277.424C356.699 277.424 355.619 278.336 355.619 280.28V287H352.691V279.992C352.691 278.336 351.803 277.448 350.411 277.448C349.019 277.448 347.891 278.36 347.891 280.28V287ZM366.197 292.496V275.144H368.909L369.101 276.944C369.821 275.576 371.381 274.784 373.181 274.784C376.517 274.784 378.725 277.208 378.725 280.928C378.725 284.624 376.709 287.312 373.181 287.312C371.405 287.312 369.869 286.616 369.125 285.416V292.496H366.197ZM369.149 281.072C369.149 283.208 370.469 284.672 372.485 284.672C374.549 284.672 375.773 283.184 375.773 281.072C375.773 278.96 374.549 277.448 372.485 277.448C370.469 277.448 369.149 278.936 369.149 281.072ZM384.008 287H381.104V269.144H384.008V287ZM392.384 287.312C388.856 287.312 386.384 284.744 386.384 281.072C386.384 277.352 388.808 274.784 392.288 274.784C395.84 274.784 398.096 277.16 398.096 280.856V281.744L389.168 281.768C389.384 283.856 390.488 284.912 392.432 284.912C394.04 284.912 395.096 284.288 395.432 283.16H398.144C397.64 285.752 395.48 287.312 392.384 287.312ZM392.312 277.184C390.584 277.184 389.528 278.12 389.24 279.896H395.192C395.192 278.264 394.064 277.184 392.312 277.184ZM401.964 287H398.628L402.708 281.192L398.628 275.144H402.036L404.652 279.176L407.172 275.144H410.46L406.428 281.144L410.34 287H406.98L404.46 283.088L401.964 287ZM413.669 272.768C412.661 272.768 411.869 271.976 411.869 270.992C411.869 270.008 412.661 269.24 413.669 269.24C414.629 269.24 415.421 270.008 415.421 270.992C415.421 271.976 414.629 272.768 413.669 272.768ZM412.205 287V275.144H415.133V287H412.205ZM422.19 287H419.262V277.592H416.982V275.144H419.262V271.448H422.19V275.144H424.494V277.592H422.19V287ZM427.778 272.768C426.77 272.768 425.978 271.976 425.978 270.992C425.978 270.008 426.77 269.24 427.778 269.24C428.738 269.24 429.53 270.008 429.53 270.992C429.53 271.976 428.738 272.768 427.778 272.768ZM426.314 287V275.144H429.242V287H426.314ZM437.571 287.312C434.043 287.312 431.571 284.744 431.571 281.072C431.571 277.352 433.995 274.784 437.475 274.784C441.027 274.784 443.283 277.16 443.283 280.856V281.744L434.355 281.768C434.571 283.856 435.675 284.912 437.619 284.912C439.227 284.912 440.283 284.288 440.619 283.16H443.331C442.827 285.752 440.667 287.312 437.571 287.312ZM437.499 277.184C435.771 277.184 434.715 278.12 434.427 279.896H440.379C440.379 278.264 439.251 277.184 437.499 277.184ZM444.715 283.4H447.499C447.523 284.432 448.291 285.08 449.635 285.08C451.003 285.08 451.747 284.528 451.747 283.664C451.747 283.064 451.435 282.632 450.379 282.392L448.243 281.888C446.107 281.408 445.075 280.4 445.075 278.504C445.075 276.176 447.043 274.784 449.779 274.784C452.443 274.784 454.243 276.32 454.267 278.624H451.483C451.459 277.616 450.787 276.968 449.659 276.968C448.507 276.968 447.835 277.496 447.835 278.384C447.835 279.056 448.363 279.488 449.371 279.728L451.507 280.232C453.499 280.688 454.507 281.6 454.507 283.424C454.507 285.824 452.467 287.312 449.539 287.312C446.587 287.312 444.715 285.728 444.715 283.4ZM466.733 287.312C464.213 287.312 462.677 285.848 462.677 283.616C462.677 281.432 464.261 280.064 467.069 279.848L470.621 279.584V279.32C470.621 277.712 469.661 277.064 468.173 277.064C466.445 277.064 465.485 277.784 465.485 279.032H462.989C462.989 276.464 465.101 274.784 468.317 274.784C471.509 274.784 473.477 276.512 473.477 279.8V287H470.909L470.693 285.248C470.189 286.472 468.581 287.312 466.733 287.312ZM467.693 285.104C469.493 285.104 470.645 284.024 470.645 282.2V281.576L468.173 281.768C466.349 281.936 465.653 282.536 465.653 283.496C465.653 284.576 466.373 285.104 467.693 285.104ZM475.441 283.4H478.225C478.249 284.432 479.017 285.08 480.361 285.08C481.729 285.08 482.473 284.528 482.473 283.664C482.473 283.064 482.161 282.632 481.105 282.392L478.969 281.888C476.833 281.408 475.801 280.4 475.801 278.504C475.801 276.176 477.769 274.784 480.505 274.784C483.169 274.784 484.969 276.32 484.993 278.624H482.209C482.185 277.616 481.513 276.968 480.385 276.968C479.233 276.968 478.561 277.496 478.561 278.384C478.561 279.056 479.089 279.488 480.097 279.728L482.233 280.232C484.225 280.688 485.233 281.6 485.233 283.424C485.233 285.824 483.193 287.312 480.265 287.312C477.313 287.312 475.441 285.728 475.441 283.4ZM488.927 272.768C487.919 272.768 487.127 271.976 487.127 270.992C487.127 270.008 487.919 269.24 488.927 269.24C489.887 269.24 490.679 270.008 490.679 270.992C490.679 271.976 489.887 272.768 488.927 272.768ZM487.463 287V275.144H490.391V287H487.463ZM498.288 287.312C494.856 287.312 492.72 284.792 492.72 281.12C492.72 277.424 494.88 274.784 498.456 274.784C500.112 274.784 501.576 275.48 502.32 276.656V269.144H505.224V287H502.536L502.344 285.152C501.624 286.52 500.088 287.312 498.288 287.312ZM498.936 284.624C500.976 284.624 502.296 283.16 502.296 281.024C502.296 278.888 500.976 277.4 498.936 277.4C496.896 277.4 495.648 278.912 495.648 281.024C495.648 283.136 496.896 284.624 498.936 284.624ZM513.579 287.312C510.051 287.312 507.579 284.744 507.579 281.072C507.579 277.352 510.003 274.784 513.483 274.784C517.035 274.784 519.291 277.16 519.291 280.856V281.744L510.363 281.768C510.579 283.856 511.683 284.912 513.627 284.912C515.235 284.912 516.291 284.288 516.627 283.16H519.339C518.835 285.752 516.675 287.312 513.579 287.312ZM513.507 277.184C511.779 277.184 510.723 278.12 510.435 279.896H516.387C516.387 278.264 515.259 277.184 513.507 277.184ZM530.719 287L526.879 275.144H529.927L531.487 280.232C531.751 281.168 531.991 282.2 532.207 283.304C532.423 282.152 532.639 281.408 533.023 280.232L534.655 275.144H537.631L539.215 280.232C539.359 280.712 539.839 282.488 539.983 283.28C540.175 282.392 540.559 280.976 540.775 280.232L542.359 275.144H545.455L541.351 287H538.615L536.983 281.864C536.503 280.304 536.239 279.176 536.143 278.576C536.023 279.128 535.807 279.968 535.207 281.912L533.575 287H530.719ZM548.692 272.768C547.684 272.768 546.892 271.976 546.892 270.992C546.892 270.008 547.684 269.24 548.692 269.24C549.652 269.24 550.444 270.008 550.444 270.992C550.444 271.976 549.652 272.768 548.692 272.768ZM547.228 287V275.144H550.156V287H547.228ZM557.213 287H554.285V277.592H552.005V275.144H554.285V271.448H557.213V275.144H559.517V277.592H557.213V287ZM564.266 287H561.338V269.144H564.29V276.68C565.034 275.528 566.426 274.784 568.13 274.784C571.058 274.784 572.594 276.632 572.594 279.704V287H569.666V280.4C569.666 278.408 568.682 277.448 567.194 277.448C565.346 277.448 564.266 278.744 564.266 280.52V287ZM586.019 287L580.787 269.456H583.979L586.763 278.72C587.027 279.68 587.291 280.664 587.555 282.2C587.843 280.64 588.107 279.728 588.419 278.72L591.179 269.456H594.563L597.275 278.72C597.563 279.704 597.827 280.712 598.115 282.2C598.451 280.568 598.691 279.632 598.955 278.744L601.787 269.456H604.907L599.579 287H596.603L592.859 274.232L589.043 287H586.019ZM610.376 287.312C606.848 287.312 604.376 284.744 604.376 281.072C604.376 277.352 606.8 274.784 610.28 274.784C613.832 274.784 616.088 277.16 616.088 280.856V281.744L607.16 281.768C607.376 283.856 608.48 284.912 610.424 284.912C612.032 284.912 613.088 284.288 613.424 283.16H616.136C615.632 285.752 613.472 287.312 610.376 287.312ZM610.304 277.184C608.576 277.184 607.52 278.12 607.232 279.896H613.184C613.184 278.264 612.056 277.184 610.304 277.184ZM621.143 287H618.431V269.144H621.359V276.872C622.127 275.552 623.711 274.76 625.511 274.76C628.895 274.76 630.959 277.4 630.959 281.144C630.959 284.792 628.727 287.312 625.319 287.312C623.543 287.312 622.031 286.52 621.335 285.152L621.143 287ZM621.383 281.024C621.383 283.16 622.703 284.624 624.719 284.624C626.783 284.624 628.007 283.136 628.007 281.024C628.007 278.912 626.783 277.4 624.719 277.4C622.703 277.4 621.383 278.888 621.383 281.024ZM635.66 287L630.428 269.456H633.62L636.404 278.72C636.668 279.68 636.932 280.664 637.196 282.2C637.484 280.64 637.748 279.728 638.06 278.72L640.82 269.456H644.204L646.916 278.72C647.204 279.704 647.468 280.712 647.756 282.2C648.092 280.568 648.332 279.632 648.596 278.744L651.428 269.456H654.548L649.22 287H646.244L642.5 274.232L638.684 287H635.66ZM654.017 281.048C654.017 277.352 656.681 274.808 660.353 274.808C664.025 274.808 666.689 277.352 666.689 281.048C666.689 284.744 664.025 287.288 660.353 287.288C656.681 287.288 654.017 284.744 654.017 281.048ZM656.945 281.048C656.945 283.208 658.337 284.672 660.353 284.672C662.369 284.672 663.761 283.208 663.761 281.048C663.761 278.888 662.369 277.424 660.353 277.424C658.337 277.424 656.945 278.888 656.945 281.048ZM676.449 275.096V277.808H675.369C673.257 277.808 671.937 278.936 671.937 281.24V287H669.009V275.168H671.769L671.937 276.896C672.441 275.72 673.569 274.928 675.153 274.928C675.561 274.928 675.969 274.976 676.449 275.096ZM681.383 287H678.479V269.144H681.383V287ZM689.327 287.312C685.895 287.312 683.759 284.792 683.759 281.12C683.759 277.424 685.919 274.784 689.495 274.784C691.151 274.784 692.615 275.48 693.359 276.656V269.144H696.263V287H693.575L693.383 285.152C692.663 286.52 691.127 287.312 689.327 287.312ZM689.975 284.624C692.015 284.624 693.335 283.16 693.335 281.024C693.335 278.888 692.015 277.4 689.975 277.4C687.935 277.4 686.687 278.912 686.687 281.024C686.687 283.136 687.935 284.624 689.975 284.624ZM705.207 274.352C705.207 271.28 707.751 269.144 711.447 269.144C714.999 269.144 717.255 271.112 717.351 274.28H714.279C714.207 272.768 713.127 271.88 711.399 271.88C709.503 271.88 708.279 272.792 708.279 274.256C708.279 275.504 708.951 276.2 710.415 276.536L713.175 277.136C716.175 277.784 717.639 279.32 717.639 281.936C717.639 285.2 715.095 287.312 711.231 287.312C707.487 287.312 705.039 285.32 704.967 282.176H708.039C708.063 283.664 709.263 284.552 711.231 284.552C713.271 284.552 714.567 283.664 714.567 282.2C714.567 281.024 713.967 280.328 712.527 280.016L709.743 279.392C706.767 278.744 705.207 277.04 705.207 274.352ZM726.73 287H720.418V269.456H726.562C731.746 269.456 735.322 273.032 735.322 278.264C735.322 283.424 731.818 287 726.73 287ZM726.274 272.288H723.49V284.168H726.442C729.946 284.168 732.082 281.912 732.082 278.264C732.082 274.544 729.898 272.288 726.274 272.288ZM741.256 269.456V278.672L748.36 269.456H751.984L746.176 276.944L752.056 287H748.504L744.16 279.536L741.256 283.256V287H738.184V269.456H741.256ZM753.011 283.4H755.795C755.819 284.432 756.587 285.08 757.931 285.08C759.299 285.08 760.043 284.528 760.043 283.664C760.043 283.064 759.731 282.632 758.675 282.392L756.539 281.888C754.403 281.408 753.371 280.4 753.371 278.504C753.371 276.176 755.339 274.784 758.075 274.784C760.739 274.784 762.539 276.32 762.563 278.624H759.779C759.755 277.616 759.083 276.968 757.955 276.968C756.803 276.968 756.131 277.496 756.131 278.384C756.131 279.056 756.659 279.488 757.667 279.728L759.803 280.232C761.795 280.688 762.803 281.6 762.803 283.424C762.803 285.824 760.763 287.312 757.835 287.312C754.883 287.312 753.011 285.728 753.011 283.4ZM768.513 281.744H766.161C765.849 279.824 765.633 276.608 765.633 273.488V269.456H769.089V273.488C769.089 276.68 768.849 279.896 768.513 281.744ZM767.361 287.312C766.281 287.312 765.393 286.448 765.393 285.416C765.393 284.36 766.281 283.496 767.361 283.496C768.393 283.496 769.281 284.36 769.281 285.416C769.281 286.448 768.393 287.312 767.361 287.312Z" fill="#DADDD8"/>
<defs>
<filter id="filter0_b_118_1144" x="187.935" y="12" width="762.645" height="644" filterUnits="userSpaceOnUse" color-interpolation-filters="sRGB">
<feFlood flood-opacity="0" result="BackgroundImageFix"/>
<feGaussianBlur in="BackgroundImageFix" stdDeviation="150"/>
<feComposite in2="SourceAlpha" operator="in" result="effect1_backgroundBlur_118_1144"/>
<feBlend mode="normal" in="SourceGraphic" in2="effect1_backgroundBlur_118_1144" result="shape"/>
</filter>
<linearGradient id="paint0_linear_118_1144" x1="512.615" y1="285" x2="496.094" y2="428.122" gradientUnits="userSpaceOnUse">
<stop offset="0.365638" stop-color="#3F37C9"/>
<stop offset="1" stop-color="#4CC9F0"/>
</linearGradient>
<linearGradient id="paint1_linear_118_1144" x1="124.436" y1="-884.093" x2="1076.38" y2="-543.532" gradientUnits="userSpaceOnUse">
<stop offset="0.202529" stop-color="#FF0276"/>
<stop offset="0.715303" stop-color="#7209B7"/>
</linearGradient>
</defs>
</svg>
