<svg width="944" height="213" viewBox="0 0 944 213" fill="none" xmlns="http://www.w3.org/2000/svg">
<line x1="176.145" y1="0.5" x2="767" y2="0.5" stroke="url(#paint0_linear_118_1142)"/>
<line x1="176.145" y1="212.5" x2="767" y2="212.5" stroke="url(#paint1_linear_118_1142)"/>
<path d="M38.8443 49.608V69.224H48.6363V73H34.7483V49.608H38.8443ZM55.1615 63.784L47.2575 49.608H51.8335L56.4415 58.12C56.7935 58.76 57.0175 59.272 57.2735 59.848C57.5615 59.272 57.6895 58.888 58.1055 58.12L62.6815 49.608H67.1295L59.2575 63.784V73H55.1615V63.784ZM74.0615 73H70.0295V49.608H74.0935L85.0695 66.184V49.608H89.1015V73H85.0695L74.0615 56.424V73ZM104.168 73.384C97.3515 73.384 92.9355 68.648 92.9355 61.32C92.9355 54.056 97.5115 49.224 104.36 49.224C109.896 49.224 114.024 52.456 114.824 57.48H110.503C109.704 54.76 107.368 53.16 104.264 53.16C99.9435 53.16 97.2235 56.296 97.2235 61.288C97.2235 66.248 99.9755 69.448 104.264 69.448C107.432 69.448 109.864 67.784 110.632 65.192H114.888C113.992 70.12 109.704 73.384 104.168 73.384ZM126.61 80.328V57.192H130.226L130.482 59.592C131.442 57.768 133.522 56.712 135.922 56.712C140.37 56.712 143.314 59.944 143.314 64.904C143.314 69.832 140.626 73.416 135.922 73.416C133.554 73.416 131.506 72.488 130.514 70.888V80.328H126.61ZM130.546 65.096C130.546 67.944 132.306 69.896 134.994 69.896C137.746 69.896 139.378 67.912 139.378 65.096C139.378 62.28 137.746 60.264 134.994 60.264C132.306 60.264 130.546 62.248 130.546 65.096ZM156.342 57.128V60.744H154.902C152.086 60.744 150.326 62.248 150.326 65.32V73H146.422V57.224H150.102L150.326 59.528C150.998 57.96 152.502 56.904 154.614 56.904C155.158 56.904 155.702 56.968 156.342 57.128ZM157.526 65.064C157.526 60.136 161.078 56.744 165.974 56.744C170.87 56.744 174.422 60.136 174.422 65.064C174.422 69.992 170.87 73.384 165.974 73.384C161.078 73.384 157.526 69.992 157.526 65.064ZM161.43 65.064C161.43 67.944 163.286 69.896 165.974 69.896C168.662 69.896 170.518 67.944 170.518 65.064C170.518 62.184 168.662 60.232 165.974 60.232C163.286 60.232 161.43 62.184 161.43 65.064ZM181.215 73L174.943 57.192H179.103L181.855 64.456C182.527 66.344 183.071 67.976 183.263 68.84C183.487 67.848 184.063 66.184 184.735 64.456L187.615 57.192H191.647L185.055 73H181.215ZM195.843 54.024C194.499 54.024 193.443 52.968 193.443 51.656C193.443 50.344 194.499 49.32 195.843 49.32C197.123 49.32 198.179 50.344 198.179 51.656C198.179 52.968 197.123 54.024 195.843 54.024ZM193.891 73V57.192H197.795V73H193.891ZM208.325 73.416C203.749 73.416 200.901 70.056 200.901 65.16C200.901 60.232 203.781 56.712 208.549 56.712C210.757 56.712 212.709 57.64 213.701 59.208V49.192H217.573V73H213.989L213.733 70.536C212.773 72.36 210.725 73.416 208.325 73.416ZM209.189 69.832C211.909 69.832 213.669 67.88 213.669 65.032C213.669 62.184 211.909 60.2 209.189 60.2C206.469 60.2 204.805 62.216 204.805 65.032C204.805 67.848 206.469 69.832 209.189 69.832ZM228.713 73.416C224.009 73.416 220.713 69.992 220.713 65.096C220.713 60.136 223.945 56.712 228.585 56.712C233.321 56.712 236.329 59.88 236.329 64.808V65.992L224.425 66.024C224.713 68.808 226.185 70.216 228.777 70.216C230.921 70.216 232.329 69.384 232.777 67.88H236.393C235.721 71.336 232.841 73.416 228.713 73.416ZM228.617 59.912C226.313 59.912 224.905 61.16 224.521 63.528H232.457C232.457 61.352 230.953 59.912 228.617 59.912ZM238.238 68.2H241.95C241.982 69.576 243.006 70.44 244.798 70.44C246.622 70.44 247.614 69.704 247.614 68.552C247.614 67.752 247.198 67.176 245.79 66.856L242.942 66.184C240.094 65.544 238.718 64.2 238.718 61.672C238.718 58.568 241.342 56.712 244.99 56.712C248.542 56.712 250.942 58.76 250.974 61.832H247.262C247.23 60.488 246.334 59.624 244.83 59.624C243.294 59.624 242.398 60.328 242.398 61.512C242.398 62.408 243.102 62.984 244.446 63.304L247.294 63.976C249.95 64.584 251.294 65.8 251.294 68.232C251.294 71.432 248.574 73.416 244.67 73.416C240.734 73.416 238.238 71.304 238.238 68.2ZM267.595 73.416C264.235 73.416 262.187 71.464 262.187 68.488C262.187 65.576 264.299 63.752 268.043 63.464L272.779 63.112V62.76C272.779 60.616 271.499 59.752 269.515 59.752C267.211 59.752 265.931 60.712 265.931 62.376H262.603C262.603 58.952 265.419 56.712 269.707 56.712C273.963 56.712 276.587 59.016 276.587 63.4V73H273.163L272.875 70.664C272.203 72.296 270.059 73.416 267.595 73.416ZM268.875 70.472C271.275 70.472 272.811 69.032 272.811 66.6V65.768L269.515 66.024C267.083 66.248 266.155 67.048 266.155 68.328C266.155 69.768 267.115 70.472 268.875 70.472ZM287.831 68.2H291.543C291.575 69.576 292.599 70.44 294.391 70.44C296.215 70.44 297.207 69.704 297.207 68.552C297.207 67.752 296.791 67.176 295.383 66.856L292.535 66.184C289.687 65.544 288.311 64.2 288.311 61.672C288.311 58.568 290.935 56.712 294.583 56.712C298.135 56.712 300.535 58.76 300.567 61.832H296.855C296.823 60.488 295.927 59.624 294.423 59.624C292.887 59.624 291.991 60.328 291.991 61.512C291.991 62.408 292.695 62.984 294.039 63.304L296.887 63.976C299.543 64.584 300.887 65.8 300.887 68.232C300.887 71.432 298.167 73.416 294.263 73.416C290.327 73.416 287.831 71.304 287.831 68.2ZM302.932 65.064C302.932 60.168 306.164 56.712 310.836 56.712C315.156 56.712 318.1 59.112 318.516 62.92H314.612C314.164 61.128 312.852 60.2 310.996 60.2C308.5 60.2 306.836 62.088 306.836 65.064C306.836 68.04 308.372 69.896 310.868 69.896C312.82 69.896 314.196 68.936 314.612 67.208H318.548C318.068 70.888 314.996 73.416 310.868 73.416C306.068 73.416 302.932 70.088 302.932 65.064ZM326.158 73.416C322.798 73.416 320.75 71.464 320.75 68.488C320.75 65.576 322.862 63.752 326.606 63.464L331.342 63.112V62.76C331.342 60.616 330.062 59.752 328.078 59.752C325.774 59.752 324.494 60.712 324.494 62.376H321.166C321.166 58.952 323.982 56.712 328.27 56.712C332.526 56.712 335.15 59.016 335.15 63.4V73H331.726L331.438 70.664C330.766 72.296 328.622 73.416 326.158 73.416ZM327.438 70.472C329.838 70.472 331.374 69.032 331.374 66.6V65.768L328.078 66.024C325.646 66.248 324.718 67.048 324.718 68.328C324.718 69.768 325.678 70.472 327.438 70.472ZM342.921 73H339.049V49.192H342.921V73ZM351.72 73.416C348.36 73.416 346.312 71.464 346.312 68.488C346.312 65.576 348.424 63.752 352.168 63.464L356.904 63.112V62.76C356.904 60.616 355.624 59.752 353.64 59.752C351.336 59.752 350.056 60.712 350.056 62.376H346.728C346.728 58.952 349.544 56.712 353.832 56.712C358.088 56.712 360.712 59.016 360.712 63.4V73H357.288L357 70.664C356.328 72.296 354.184 73.416 351.72 73.416ZM353 70.472C355.4 70.472 356.936 69.032 356.936 66.6V65.768L353.64 66.024C351.208 66.248 350.28 67.048 350.28 68.328C350.28 69.768 351.24 70.472 353 70.472ZM368.163 73H364.547V49.192H368.451V59.496C369.475 57.736 371.587 56.68 373.987 56.68C378.499 56.68 381.251 60.2 381.251 65.192C381.251 70.056 378.275 73.416 373.731 73.416C371.363 73.416 369.347 72.36 368.419 70.536L368.163 73ZM368.483 65.032C368.483 67.88 370.243 69.832 372.931 69.832C375.683 69.832 377.315 67.848 377.315 65.032C377.315 62.216 375.683 60.2 372.931 60.2C370.243 60.2 368.483 62.184 368.483 65.032ZM388.296 73H384.424V49.192H388.296V73ZM399.463 73.416C394.759 73.416 391.463 69.992 391.463 65.096C391.463 60.136 394.695 56.712 399.335 56.712C404.071 56.712 407.079 59.88 407.079 64.808V65.992L395.175 66.024C395.463 68.808 396.935 70.216 399.527 70.216C401.671 70.216 403.079 69.384 403.527 67.88H407.143C406.471 71.336 403.591 73.416 399.463 73.416ZM399.367 59.912C397.063 59.912 395.655 61.16 395.271 63.528H403.207C403.207 61.352 401.703 59.912 399.367 59.912ZM420.781 54.024C419.437 54.024 418.381 52.968 418.381 51.656C418.381 50.344 419.437 49.32 420.781 49.32C422.061 49.32 423.117 50.344 423.117 51.656C423.117 52.968 422.061 54.024 420.781 54.024ZM418.829 73V57.192H422.733V73H418.829ZM430.67 73H426.766V57.192H430.382L430.702 59.24C431.694 57.64 433.614 56.712 435.758 56.712C439.726 56.712 441.774 59.176 441.774 63.272V73H437.87V64.2C437.87 61.544 436.558 60.264 434.542 60.264C432.142 60.264 430.67 61.928 430.67 64.488V73ZM444.042 57.192H446.314V55.272C446.314 50.984 448.586 49.192 452.01 49.192C452.618 49.192 453.354 49.224 454.026 49.352V52.68H452.65C450.666 52.68 450.186 53.704 450.186 55.272V57.192H453.962V60.456H450.186V73H446.314V60.456H444.042V57.192ZM466.374 57.128V60.744H464.934C462.118 60.744 460.358 62.248 460.358 65.32V73H456.454V57.224H460.134L460.358 59.528C461.03 57.96 462.534 56.904 464.646 56.904C465.19 56.904 465.734 56.968 466.374 57.128ZM473.095 73.416C469.735 73.416 467.687 71.464 467.687 68.488C467.687 65.576 469.799 63.752 473.543 63.464L478.279 63.112V62.76C478.279 60.616 476.999 59.752 475.015 59.752C472.711 59.752 471.431 60.712 471.431 62.376H468.103C468.103 58.952 470.919 56.712 475.207 56.712C479.463 56.712 482.087 59.016 482.087 63.4V73H478.663L478.375 70.664C477.703 72.296 475.559 73.416 473.095 73.416ZM474.375 70.472C476.775 70.472 478.311 69.032 478.311 66.6V65.768L475.015 66.024C472.583 66.248 471.655 67.048 471.655 68.328C471.655 69.768 472.615 70.472 474.375 70.472ZM484.706 68.2H488.418C488.45 69.576 489.474 70.44 491.266 70.44C493.09 70.44 494.082 69.704 494.082 68.552C494.082 67.752 493.666 67.176 492.258 66.856L489.41 66.184C486.562 65.544 485.186 64.2 485.186 61.672C485.186 58.568 487.81 56.712 491.458 56.712C495.01 56.712 497.41 58.76 497.442 61.832H493.73C493.698 60.488 492.802 59.624 491.298 59.624C489.762 59.624 488.866 60.328 488.866 61.512C488.866 62.408 489.57 62.984 490.914 63.304L493.762 63.976C496.418 64.584 497.762 65.8 497.762 68.232C497.762 71.432 495.042 73.416 491.138 73.416C487.202 73.416 484.706 71.304 484.706 68.2ZM506.111 73H502.207V60.456H499.167V57.192H502.207V52.264H506.111V57.192H509.183V60.456H506.111V73ZM521.53 57.128V60.744H520.09C517.274 60.744 515.514 62.248 515.514 65.32V73H511.61V57.224H515.29L515.514 59.528C516.186 57.96 517.69 56.904 519.802 56.904C520.346 56.904 520.89 56.968 521.53 57.128ZM534.892 57.192H538.796V73H535.18L534.892 70.888C533.932 72.392 531.884 73.416 529.772 73.416C526.124 73.416 523.98 70.952 523.98 67.08V57.192H527.884V65.704C527.884 68.712 529.068 69.928 531.244 69.928C533.708 69.928 534.892 68.488 534.892 65.48V57.192ZM541.588 65.064C541.588 60.168 544.82 56.712 549.492 56.712C553.812 56.712 556.756 59.112 557.172 62.92H553.268C552.82 61.128 551.508 60.2 549.652 60.2C547.156 60.2 545.492 62.088 545.492 65.064C545.492 68.04 547.028 69.896 549.524 69.896C551.476 69.896 552.852 68.936 553.268 67.208H557.204C556.724 70.888 553.652 73.416 549.524 73.416C544.724 73.416 541.588 70.088 541.588 65.064ZM565.486 73H561.582V60.456H558.542V57.192H561.582V52.264H565.486V57.192H568.558V60.456H565.486V73ZM581.705 57.192H585.609V73H581.993L581.705 70.888C580.745 72.392 578.697 73.416 576.585 73.416C572.937 73.416 570.793 70.952 570.793 67.08V57.192H574.697V65.704C574.697 68.712 575.881 69.928 578.057 69.928C580.521 69.928 581.705 68.488 581.705 65.48V57.192ZM599.561 57.128V60.744H598.121C595.305 60.744 593.545 62.248 593.545 65.32V73H589.641V57.224H593.321L593.545 59.528C594.217 57.96 595.721 56.904 597.833 56.904C598.377 56.904 598.921 56.968 599.561 57.128ZM608.744 73.416C604.04 73.416 600.744 69.992 600.744 65.096C600.744 60.136 603.976 56.712 608.616 56.712C613.352 56.712 616.36 59.88 616.36 64.808V65.992L604.456 66.024C604.744 68.808 606.216 70.216 608.808 70.216C610.952 70.216 612.36 69.384 612.808 67.88H616.424C615.752 71.336 612.872 73.416 608.744 73.416ZM608.648 59.912C606.344 59.912 604.936 61.16 604.552 63.528H612.488C612.488 61.352 610.984 59.912 608.648 59.912ZM626.542 57.192H628.814V55.272C628.814 50.984 631.086 49.192 634.51 49.192C635.118 49.192 635.854 49.224 636.526 49.352V52.68H635.15C633.166 52.68 632.686 53.704 632.686 55.272V57.192H636.462V60.456H632.686V73H628.814V60.456H626.542V57.192ZM637.557 65.064C637.557 60.136 641.109 56.744 646.005 56.744C650.901 56.744 654.453 60.136 654.453 65.064C654.453 69.992 650.901 73.384 646.005 73.384C641.109 73.384 637.557 69.992 637.557 65.064ZM641.461 65.064C641.461 67.944 643.317 69.896 646.005 69.896C648.693 69.896 650.549 67.944 650.549 65.064C650.549 62.184 648.693 60.232 646.005 60.232C643.317 60.232 641.461 62.184 641.461 65.064ZM667.467 57.128V60.744H666.027C663.211 60.744 661.451 62.248 661.451 65.32V73H657.547V57.224H661.227L661.451 59.528C662.123 57.96 663.627 56.904 665.739 56.904C666.283 56.904 666.827 56.968 667.467 57.128ZM682.671 73H678.799V49.192H682.671V73ZM691.47 73.416C688.11 73.416 686.062 71.464 686.062 68.488C686.062 65.576 688.174 63.752 691.918 63.464L696.654 63.112V62.76C696.654 60.616 695.374 59.752 693.39 59.752C691.086 59.752 689.806 60.712 689.806 62.376H686.478C686.478 58.952 689.294 56.712 693.582 56.712C697.838 56.712 700.462 59.016 700.462 63.4V73H697.038L696.75 70.664C696.078 72.296 693.934 73.416 691.47 73.416ZM692.75 70.472C695.15 70.472 696.686 69.032 696.686 66.6V65.768L693.39 66.024C690.958 66.248 690.03 67.048 690.03 68.328C690.03 69.768 690.99 70.472 692.75 70.472ZM715.017 57.192H718.921V73H715.305L715.017 70.888C714.057 72.392 712.009 73.416 709.897 73.416C706.249 73.416 704.105 70.952 704.105 67.08V57.192H708.009V65.704C708.009 68.712 709.193 69.928 711.369 69.928C713.833 69.928 715.017 68.488 715.017 65.48V57.192ZM726.858 73H722.954V57.192H726.57L726.89 59.24C727.882 57.64 729.802 56.712 731.946 56.712C735.914 56.712 737.962 59.176 737.962 63.272V73H734.058V64.2C734.058 61.544 732.746 60.264 730.73 60.264C728.33 60.264 726.858 61.928 726.858 64.488V73ZM740.869 65.064C740.869 60.168 744.101 56.712 748.773 56.712C753.093 56.712 756.037 59.112 756.453 62.92H752.549C752.101 61.128 750.789 60.2 748.933 60.2C746.437 60.2 744.773 62.088 744.773 65.064C744.773 68.04 746.309 69.896 748.805 69.896C750.757 69.896 752.133 68.936 752.549 67.208H756.485C756.005 70.888 752.933 73.416 748.805 73.416C744.005 73.416 740.869 70.088 740.869 65.064ZM763.295 73H759.391V49.192H763.327V59.24C764.319 57.704 766.175 56.712 768.447 56.712C772.351 56.712 774.399 59.176 774.399 63.272V73H770.495V64.2C770.495 61.544 769.183 60.264 767.199 60.264C764.735 60.264 763.295 61.992 763.295 64.36V73ZM780.187 54.024C778.843 54.024 777.787 52.968 777.787 51.656C777.787 50.344 778.843 49.32 780.187 49.32C781.467 49.32 782.523 50.344 782.523 51.656C782.523 52.968 781.467 54.024 780.187 54.024ZM778.235 73V57.192H782.139V73H778.235ZM790.076 73H786.172V57.192H789.788L790.108 59.24C791.1 57.64 793.02 56.712 795.164 56.712C799.132 56.712 801.18 59.176 801.18 63.272V73H797.276V64.2C797.276 61.544 795.964 60.264 793.948 60.264C791.548 60.264 790.076 61.928 790.076 64.488V73ZM804.12 64.744C804.12 60.136 807.128 56.68 811.64 56.68C814.008 56.68 815.864 57.672 816.792 59.368L817.016 57.192H820.632V72.2C820.632 77.48 817.464 80.776 812.344 80.776C807.8 80.776 804.696 78.184 804.216 73.96H808.12C808.376 76.008 809.944 77.224 812.344 77.224C815.032 77.224 816.76 75.528 816.76 72.904V70.28C815.768 71.752 813.816 72.68 811.544 72.68C807.064 72.68 804.12 69.32 804.12 64.744ZM808.056 64.648C808.056 67.304 809.752 69.288 812.312 69.288C815 69.288 816.664 67.4 816.664 64.648C816.664 61.96 815.032 60.104 812.312 60.104C809.72 60.104 808.056 62.056 808.056 64.648ZM836.785 73L831.665 57.192H835.729L837.809 63.976C838.161 65.224 838.481 66.6 838.769 68.072C839.057 66.536 839.345 65.544 839.857 63.976L842.033 57.192H846.001L848.113 63.976C848.305 64.616 848.945 66.984 849.137 68.04C849.393 66.856 849.905 64.968 850.193 63.976L852.305 57.192H856.433L850.961 73H847.313L845.137 66.152C844.497 64.072 844.145 62.568 844.017 61.768C843.857 62.504 843.569 63.624 842.769 66.216L840.593 73H836.785ZM865.088 73.416C860.384 73.416 857.088 69.992 857.088 65.096C857.088 60.136 860.32 56.712 864.96 56.712C869.696 56.712 872.704 59.88 872.704 64.808V65.992L860.8 66.024C861.088 68.808 862.56 70.216 865.152 70.216C867.296 70.216 868.704 69.384 869.152 67.88H872.768C872.096 71.336 869.216 73.416 865.088 73.416ZM864.992 59.912C862.688 59.912 861.28 61.16 860.896 63.528H868.832C868.832 61.352 867.328 59.912 864.992 59.912ZM879.445 73H875.829V49.192H879.733V59.496C880.757 57.736 882.869 56.68 885.269 56.68C889.781 56.68 892.533 60.2 892.533 65.192C892.533 70.056 889.557 73.416 885.013 73.416C882.645 73.416 880.629 72.36 879.701 70.536L879.445 73ZM879.765 65.032C879.765 67.88 881.525 69.832 884.213 69.832C886.965 69.832 888.597 67.848 888.597 65.032C888.597 62.216 886.965 60.2 884.213 60.2C881.525 60.2 879.765 62.184 879.765 65.032ZM901.913 61.416H899.065V58.76L905.081 53.224H895.353V49.608H910.201V52.872L904.505 58.12C908.089 58.824 910.873 61.448 910.873 65.576C910.873 70.376 907.129 73.416 902.393 73.416C897.817 73.416 894.265 70.6 894.265 65.544H898.297C898.297 68.232 899.961 69.768 902.457 69.768C905.017 69.768 906.713 68.104 906.713 65.512C906.713 63.144 905.177 61.416 901.913 61.416ZM95.7919 107.744C95.7919 103.136 98.7999 99.68 103.312 99.68C105.68 99.68 107.536 100.672 108.464 102.368L108.688 100.192H112.304V115.2C112.304 120.48 109.136 123.776 104.016 123.776C99.4719 123.776 96.3679 121.184 95.8879 116.96H99.7919C100.048 119.008 101.616 120.224 104.016 120.224C106.704 120.224 108.432 118.528 108.432 115.904V113.28C107.44 114.752 105.488 115.68 103.216 115.68C98.7359 115.68 95.7919 112.32 95.7919 107.744ZM99.7279 107.648C99.7279 110.304 101.424 112.288 103.984 112.288C106.672 112.288 108.336 110.4 108.336 107.648C108.336 104.96 106.704 103.104 103.984 103.104C101.392 103.104 99.7279 105.056 99.7279 107.648ZM121.048 116.416C117.688 116.416 115.64 114.464 115.64 111.488C115.64 108.576 117.752 106.752 121.496 106.464L126.232 106.112V105.76C126.232 103.616 124.952 102.752 122.968 102.752C120.664 102.752 119.384 103.712 119.384 105.376H116.056C116.056 101.952 118.872 99.712 123.16 99.712C127.416 99.712 130.04 102.016 130.04 106.4V116H126.616L126.328 113.664C125.656 115.296 123.512 116.416 121.048 116.416ZM122.328 113.472C124.728 113.472 126.264 112.032 126.264 109.6V108.768L122.968 109.024C120.536 109.248 119.608 110.048 119.608 111.328C119.608 112.768 120.568 113.472 122.328 113.472ZM137.779 116H133.875V100.192H137.459L137.779 102.048C138.579 100.736 140.179 99.712 142.451 99.712C144.851 99.712 146.515 100.896 147.347 102.72C148.147 100.896 150.003 99.712 152.403 99.712C156.243 99.712 158.355 102.016 158.355 105.664V116H154.483V106.688C154.483 104.416 153.267 103.232 151.411 103.232C149.523 103.232 148.083 104.448 148.083 107.04V116H144.179V106.656C144.179 104.448 142.995 103.264 141.139 103.264C139.283 103.264 137.779 104.48 137.779 107.04V116ZM169.26 116.416C164.556 116.416 161.26 112.992 161.26 108.096C161.26 103.136 164.492 99.712 169.132 99.712C173.868 99.712 176.876 102.88 176.876 107.808V108.992L164.972 109.024C165.26 111.808 166.732 113.216 169.324 113.216C171.468 113.216 172.876 112.384 173.324 110.88H176.94C176.268 114.336 173.388 116.416 169.26 116.416ZM169.164 102.912C166.86 102.912 165.452 104.16 165.068 106.528H173.004C173.004 104.352 171.5 102.912 169.164 102.912ZM178.784 111.2H182.496C182.528 112.576 183.552 113.44 185.344 113.44C187.168 113.44 188.16 112.704 188.16 111.552C188.16 110.752 187.744 110.176 186.336 109.856L183.488 109.184C180.64 108.544 179.264 107.2 179.264 104.672C179.264 101.568 181.888 99.712 185.536 99.712C189.088 99.712 191.488 101.76 191.52 104.832H187.808C187.776 103.488 186.88 102.624 185.376 102.624C183.84 102.624 182.944 103.328 182.944 104.512C182.944 105.408 183.648 105.984 184.992 106.304L187.84 106.976C190.496 107.584 191.84 108.8 191.84 111.232C191.84 114.432 189.12 116.416 185.216 116.416C181.28 116.416 178.784 114.304 178.784 111.2ZM199.935 114.592C199.935 117.248 198.015 119.36 195.423 119.68V118.112C196.863 117.856 197.951 116.992 197.951 115.872C197.695 116 197.407 116.064 197.023 116.064C195.775 116.064 194.751 115.136 194.751 113.856C194.751 112.32 195.743 111.296 197.183 111.296C198.783 111.296 199.935 112.608 199.935 114.592ZM216.145 116L211.025 100.192H215.089L217.169 106.976C217.521 108.224 217.841 109.6 218.129 111.072C218.417 109.536 218.705 108.544 219.217 106.976L221.393 100.192H225.361L227.473 106.976C227.665 107.616 228.305 109.984 228.497 111.04C228.753 109.856 229.265 107.968 229.553 106.976L231.665 100.192H235.793L230.321 116H226.673L224.497 109.152C223.857 107.072 223.505 105.568 223.377 104.768C223.217 105.504 222.929 106.624 222.129 109.216L219.953 116H216.145ZM240.109 97.024C238.765 97.024 237.709 95.968 237.709 94.656C237.709 93.344 238.765 92.32 240.109 92.32C241.389 92.32 242.445 93.344 242.445 94.656C242.445 95.968 241.389 97.024 240.109 97.024ZM238.157 116V100.192H242.061V116H238.157ZM251.47 116H247.566V103.456H244.526V100.192H247.566V95.264H251.47V100.192H254.542V103.456H251.47V116ZM260.873 116H256.969V92.192H260.905V102.24C261.897 100.704 263.753 99.712 266.025 99.712C269.929 99.712 271.977 102.176 271.977 106.272V116H268.073V107.2C268.073 104.544 266.761 103.264 264.777 103.264C262.313 103.264 260.873 104.992 260.873 107.36V116ZM274.885 108.064C274.885 103.136 278.437 99.744 283.333 99.744C288.229 99.744 291.781 103.136 291.781 108.064C291.781 112.992 288.229 116.384 283.333 116.384C278.437 116.384 274.885 112.992 274.885 108.064ZM278.789 108.064C278.789 110.944 280.645 112.896 283.333 112.896C286.021 112.896 287.877 110.944 287.877 108.064C287.877 105.184 286.021 103.232 283.333 103.232C280.645 103.232 278.789 105.184 278.789 108.064ZM305.22 100.192H309.124V116H305.508L305.22 113.888C304.26 115.392 302.212 116.416 300.1 116.416C296.452 116.416 294.308 113.952 294.308 110.08V100.192H298.212V108.704C298.212 111.712 299.396 112.928 301.572 112.928C304.036 112.928 305.22 111.488 305.22 108.48V100.192ZM318.533 116H314.629V103.456H311.589V100.192H314.629V95.264H318.533V100.192H321.605V103.456H318.533V116ZM336.561 116H332.657V92.192H336.593V102.24C337.585 100.704 339.441 99.712 341.713 99.712C345.617 99.712 347.665 102.176 347.665 106.272V116H343.761V107.2C343.761 104.544 342.449 103.264 340.465 103.264C338.001 103.264 336.561 104.992 336.561 107.36V116ZM356.204 116.416C352.844 116.416 350.796 114.464 350.796 111.488C350.796 108.576 352.908 106.752 356.652 106.464L361.388 106.112V105.76C361.388 103.616 360.108 102.752 358.124 102.752C355.82 102.752 354.54 103.712 354.54 105.376H351.212C351.212 101.952 354.028 99.712 358.316 99.712C362.572 99.712 365.196 102.016 365.196 106.4V116H361.772L361.484 113.664C360.812 115.296 358.668 116.416 356.204 116.416ZM357.484 113.472C359.884 113.472 361.42 112.032 361.42 109.6V108.768L358.124 109.024C355.692 109.248 354.764 110.048 354.764 111.328C354.764 112.768 355.724 113.472 357.484 113.472ZM372.936 116H369.032V100.192H372.616L372.936 102.048C373.736 100.736 375.336 99.712 377.608 99.712C380.008 99.712 381.672 100.896 382.504 102.72C383.304 100.896 385.16 99.712 387.56 99.712C391.4 99.712 393.512 102.016 393.512 105.664V116H389.64V106.688C389.64 104.416 388.424 103.232 386.568 103.232C384.68 103.232 383.24 104.448 383.24 107.04V116H379.336V106.656C379.336 104.448 378.152 103.264 376.296 103.264C374.44 103.264 372.936 104.48 372.936 107.04V116ZM397.344 123.328V100.192H400.96L401.216 102.592C402.176 100.768 404.256 99.712 406.656 99.712C411.104 99.712 414.048 102.944 414.048 107.904C414.048 112.832 411.36 116.416 406.656 116.416C404.288 116.416 402.24 115.488 401.248 113.888V123.328H397.344ZM401.28 108.096C401.28 110.944 403.04 112.896 405.728 112.896C408.48 112.896 410.112 110.912 410.112 108.096C410.112 105.28 408.48 103.264 405.728 103.264C403.04 103.264 401.28 105.248 401.28 108.096ZM424.229 116.416C419.525 116.416 416.229 112.992 416.229 108.096C416.229 103.136 419.461 99.712 424.101 99.712C428.837 99.712 431.845 102.88 431.845 107.808V108.992L419.941 109.024C420.229 111.808 421.701 113.216 424.293 113.216C426.437 113.216 427.845 112.384 428.293 110.88H431.909C431.237 114.336 428.357 116.416 424.229 116.416ZM424.133 102.912C421.829 102.912 420.421 104.16 420.037 106.528H427.973C427.973 104.352 426.469 102.912 424.133 102.912ZM444.889 100.128V103.744H443.449C440.633 103.744 438.873 105.248 438.873 108.32V116H434.969V100.224H438.649L438.873 102.528C439.545 100.96 441.049 99.904 443.161 99.904C443.705 99.904 444.249 99.968 444.889 100.128ZM449.484 97.024C448.14 97.024 447.084 95.968 447.084 94.656C447.084 93.344 448.14 92.32 449.484 92.32C450.764 92.32 451.82 93.344 451.82 94.656C451.82 95.968 450.764 97.024 449.484 97.024ZM447.532 116V100.192H451.436V116H447.532ZM459.373 116H455.469V100.192H459.085L459.405 102.24C460.397 100.64 462.317 99.712 464.461 99.712C468.429 99.712 470.477 102.176 470.477 106.272V116H466.573V107.2C466.573 104.544 465.261 103.264 463.245 103.264C460.845 103.264 459.373 104.928 459.373 107.488V116ZM473.417 107.744C473.417 103.136 476.425 99.68 480.937 99.68C483.305 99.68 485.161 100.672 486.089 102.368L486.313 100.192H489.929V115.2C489.929 120.48 486.761 123.776 481.641 123.776C477.097 123.776 473.993 121.184 473.513 116.96H477.417C477.673 119.008 479.241 120.224 481.641 120.224C484.329 120.224 486.057 118.528 486.057 115.904V113.28C485.065 114.752 483.113 115.68 480.841 115.68C476.361 115.68 473.417 112.32 473.417 107.744ZM477.353 107.648C477.353 110.304 479.049 112.288 481.609 112.288C484.297 112.288 485.961 110.4 485.961 107.648C485.961 104.96 484.329 103.104 481.609 103.104C479.017 103.104 477.353 105.056 477.353 107.648ZM507.97 116H504.066V103.456H501.026V100.192H504.066V95.264H507.97V100.192H511.042V103.456H507.97V116ZM517.373 116H513.469V92.192H517.405V102.24C518.397 100.704 520.253 99.712 522.525 99.712C526.429 99.712 528.477 102.176 528.477 106.272V116H524.573V107.2C524.573 104.544 523.261 103.264 521.277 103.264C518.813 103.264 517.373 104.992 517.373 107.36V116ZM539.385 116.416C534.681 116.416 531.385 112.992 531.385 108.096C531.385 103.136 534.617 99.712 539.257 99.712C543.993 99.712 547.001 102.88 547.001 107.808V108.992L535.097 109.024C535.385 111.808 536.857 113.216 539.449 113.216C541.593 113.216 543.001 112.384 543.449 110.88H547.065C546.393 114.336 543.513 116.416 539.385 116.416ZM539.289 102.912C536.985 102.912 535.577 104.16 535.193 106.528H543.129C543.129 104.352 541.625 102.912 539.289 102.912ZM183.514 142.136C183.514 138.04 186.906 135.192 191.834 135.192C196.57 135.192 199.578 137.816 199.706 142.04H195.61C195.514 140.024 194.074 138.84 191.77 138.84C189.242 138.84 187.61 140.056 187.61 142.008C187.61 143.672 188.506 144.6 190.458 145.048L194.138 145.848C198.138 146.712 200.09 148.76 200.09 152.248C200.09 156.6 196.698 159.416 191.546 159.416C186.554 159.416 183.29 156.76 183.194 152.568H187.29C187.322 154.552 188.922 155.736 191.546 155.736C194.266 155.736 195.994 154.552 195.994 152.6C195.994 151.032 195.194 150.104 193.274 149.688L189.562 148.856C185.594 147.992 183.514 145.72 183.514 142.136ZM202.291 151.064C202.291 146.136 205.843 142.744 210.739 142.744C215.635 142.744 219.187 146.136 219.187 151.064C219.187 155.992 215.635 159.384 210.739 159.384C205.843 159.384 202.291 155.992 202.291 151.064ZM206.195 151.064C206.195 153.944 208.051 155.896 210.739 155.896C213.427 155.896 215.283 153.944 215.283 151.064C215.283 148.184 213.427 146.232 210.739 146.232C208.051 146.232 206.195 148.184 206.195 151.064ZM236.283 159H232.379V146.456H229.339V143.192H232.379V138.264H236.283V143.192H239.355V146.456H236.283V159ZM245.686 159H241.782V135.192H245.718V145.24C246.71 143.704 248.566 142.712 250.838 142.712C254.742 142.712 256.79 145.176 256.79 149.272V159H252.886V150.2C252.886 147.544 251.574 146.264 249.59 146.264C247.126 146.264 245.686 147.992 245.686 150.36V159ZM265.329 159.416C261.969 159.416 259.921 157.464 259.921 154.488C259.921 151.576 262.033 149.752 265.777 149.464L270.513 149.112V148.76C270.513 146.616 269.233 145.752 267.249 145.752C264.945 145.752 263.665 146.712 263.665 148.376H260.337C260.337 144.952 263.153 142.712 267.441 142.712C271.697 142.712 274.321 145.016 274.321 149.4V159H270.897L270.609 156.664C269.937 158.296 267.793 159.416 265.329 159.416ZM266.609 156.472C269.009 156.472 270.545 155.032 270.545 152.6V151.768L267.249 152.024C264.817 152.248 263.889 153.048 263.889 154.328C263.889 155.768 264.849 156.472 266.609 156.472ZM283.314 159H279.41V146.456H276.37V143.192H279.41V138.264H283.314V143.192H286.386V146.456H283.314V159ZM296.062 166.328V163.064H298.398C299.934 163.064 300.894 162.712 301.566 160.856L302.014 159.672L295.646 143.192H299.774L303.838 154.712L308.126 143.192H312.158L304.414 162.52C303.23 165.464 301.566 166.68 298.974 166.68C297.886 166.68 296.926 166.552 296.062 166.328ZM312.729 151.064C312.729 146.136 316.281 142.744 321.177 142.744C326.073 142.744 329.625 146.136 329.625 151.064C329.625 155.992 326.073 159.384 321.177 159.384C316.281 159.384 312.729 155.992 312.729 151.064ZM316.633 151.064C316.633 153.944 318.489 155.896 321.177 155.896C323.865 155.896 325.721 153.944 325.721 151.064C325.721 148.184 323.865 146.232 321.177 146.232C318.489 146.232 316.633 148.184 316.633 151.064ZM343.064 143.192H346.968V159H343.352L343.064 156.888C342.104 158.392 340.056 159.416 337.944 159.416C334.296 159.416 332.152 156.952 332.152 153.08V143.192H336.056V151.704C336.056 154.712 337.24 155.928 339.416 155.928C341.88 155.928 343.064 154.488 343.064 151.48V143.192ZM358.697 151.064C358.697 146.168 361.929 142.712 366.601 142.712C370.921 142.712 373.865 145.112 374.281 148.92H370.377C369.929 147.128 368.617 146.2 366.761 146.2C364.265 146.2 362.601 148.088 362.601 151.064C362.601 154.04 364.137 155.896 366.633 155.896C368.585 155.896 369.961 154.936 370.377 153.208H374.313C373.833 156.888 370.761 159.416 366.633 159.416C361.833 159.416 358.697 156.088 358.697 151.064ZM381.923 159.416C378.563 159.416 376.515 157.464 376.515 154.488C376.515 151.576 378.627 149.752 382.371 149.464L387.107 149.112V148.76C387.107 146.616 385.827 145.752 383.843 145.752C381.539 145.752 380.259 146.712 380.259 148.376H376.931C376.931 144.952 379.747 142.712 384.035 142.712C388.291 142.712 390.915 145.016 390.915 149.4V159H387.491L387.203 156.664C386.531 158.296 384.387 159.416 381.923 159.416ZM383.203 156.472C385.603 156.472 387.139 155.032 387.139 152.6V151.768L383.843 152.024C381.411 152.248 380.483 153.048 380.483 154.328C380.483 155.768 381.443 156.472 383.203 156.472ZM398.654 159H394.75V143.192H398.366L398.686 145.24C399.678 143.64 401.598 142.712 403.742 142.712C407.71 142.712 409.758 145.176 409.758 149.272V159H405.854V150.2C405.854 147.544 404.542 146.264 402.526 146.264C400.126 146.264 398.654 147.928 398.654 150.488V159ZM428.715 159.416C424.139 159.416 421.291 156.056 421.291 151.16C421.291 146.232 424.171 142.712 428.939 142.712C431.147 142.712 433.099 143.64 434.091 145.208V135.192H437.963V159H434.379L434.123 156.536C433.163 158.36 431.115 159.416 428.715 159.416ZM429.579 155.832C432.299 155.832 434.059 153.88 434.059 151.032C434.059 148.184 432.299 146.2 429.579 146.2C426.859 146.2 425.195 148.216 425.195 151.032C425.195 153.848 426.859 155.832 429.579 155.832ZM449.104 159.416C444.4 159.416 441.104 155.992 441.104 151.096C441.104 146.136 444.336 142.712 448.976 142.712C453.712 142.712 456.72 145.88 456.72 150.808V151.992L444.816 152.024C445.104 154.808 446.576 156.216 449.168 156.216C451.312 156.216 452.72 155.384 453.168 153.88H456.784C456.112 157.336 453.232 159.416 449.104 159.416ZM449.008 145.912C446.704 145.912 445.296 147.16 444.912 149.528H452.848C452.848 147.352 451.344 145.912 449.008 145.912ZM463.78 159H459.908V135.192H463.78V159ZM469.827 140.024C468.483 140.024 467.427 138.968 467.427 137.656C467.427 136.344 468.483 135.32 469.827 135.32C471.107 135.32 472.163 136.344 472.163 137.656C472.163 138.968 471.107 140.024 469.827 140.024ZM467.875 159V143.192H471.779V159H467.875ZM480.293 159L474.021 143.192H478.181L480.933 150.456C481.605 152.344 482.149 153.976 482.341 154.84C482.565 153.848 483.141 152.184 483.813 150.456L486.693 143.192H490.725L484.133 159H480.293ZM499.26 159.416C494.556 159.416 491.26 155.992 491.26 151.096C491.26 146.136 494.492 142.712 499.132 142.712C503.868 142.712 506.876 145.88 506.876 150.808V151.992L494.972 152.024C495.26 154.808 496.732 156.216 499.324 156.216C501.468 156.216 502.876 155.384 503.324 153.88H506.94C506.268 157.336 503.388 159.416 499.26 159.416ZM499.164 145.912C496.86 145.912 495.452 147.16 495.068 149.528H503.004C503.004 147.352 501.5 145.912 499.164 145.912ZM519.92 143.128V146.744H518.48C515.664 146.744 513.904 148.248 513.904 151.32V159H510V143.224H513.68L513.904 145.528C514.576 143.96 516.08 142.904 518.192 142.904C518.736 142.904 519.28 142.968 519.92 143.128ZM536.564 159H532.66V146.456H529.62V143.192H532.66V138.264H536.564V143.192H539.636V146.456H536.564V159ZM545.967 159H542.063V135.192H545.999V145.24C546.991 143.704 548.847 142.712 551.119 142.712C555.023 142.712 557.071 145.176 557.071 149.272V159H553.167V150.2C553.167 147.544 551.855 146.264 549.871 146.264C547.407 146.264 545.967 147.992 545.967 150.36V159ZM567.979 159.416C563.275 159.416 559.979 155.992 559.979 151.096C559.979 146.136 563.211 142.712 567.851 142.712C572.587 142.712 575.595 145.88 575.595 150.808V151.992L563.691 152.024C563.979 154.808 565.451 156.216 568.043 156.216C570.187 156.216 571.595 155.384 572.043 153.88H575.659C574.987 157.336 572.107 159.416 567.979 159.416ZM567.883 145.912C565.579 145.912 564.171 147.16 563.787 149.528H571.723C571.723 147.352 570.219 145.912 567.883 145.912ZM591.248 159H587.344V143.192H590.96L591.28 145.24C592.272 143.64 594.192 142.712 596.336 142.712C600.304 142.712 602.352 145.176 602.352 149.272V159H598.448V150.2C598.448 147.544 597.136 146.264 595.12 146.264C592.72 146.264 591.248 147.928 591.248 150.488V159ZM613.26 159.416C608.556 159.416 605.26 155.992 605.26 151.096C605.26 146.136 608.492 142.712 613.132 142.712C617.868 142.712 620.876 145.88 620.876 150.808V151.992L608.972 152.024C609.26 154.808 610.732 156.216 613.324 156.216C615.468 156.216 616.876 155.384 617.324 153.88H620.94C620.268 157.336 617.388 159.416 613.26 159.416ZM613.164 145.912C610.86 145.912 609.452 147.16 609.068 149.528H617.004C617.004 147.352 615.5 145.912 613.164 145.912ZM626.034 159H621.586L627.026 151.256L621.586 143.192H626.13L629.618 148.568L632.978 143.192H637.362L631.986 151.192L637.202 159H632.722L629.362 153.784L626.034 159ZM645.689 159H641.785V146.456H638.745V143.192H641.785V138.264H645.689V143.192H648.761V146.456H645.689V159ZM663.429 159H659.813V135.192H663.717V145.496C664.741 143.736 666.853 142.68 669.253 142.68C673.765 142.68 676.517 146.2 676.517 151.192C676.517 156.056 673.541 159.416 668.997 159.416C666.629 159.416 664.613 158.36 663.685 156.536L663.429 159ZM663.749 151.032C663.749 153.88 665.509 155.832 668.197 155.832C670.949 155.832 672.581 153.848 672.581 151.032C672.581 148.216 670.949 146.2 668.197 146.2C665.509 146.2 663.749 148.184 663.749 151.032ZM681.577 140.024C680.233 140.024 679.177 138.968 679.177 137.656C679.177 136.344 680.233 135.32 681.577 135.32C682.857 135.32 683.913 136.344 683.913 137.656C683.913 138.968 682.857 140.024 681.577 140.024ZM679.625 159V143.192H683.529V159H679.625ZM686.667 150.744C686.667 146.136 689.675 142.68 694.187 142.68C696.555 142.68 698.411 143.672 699.339 145.368L699.563 143.192H703.179V158.2C703.179 163.48 700.011 166.776 694.891 166.776C690.347 166.776 687.243 164.184 686.763 159.96H690.667C690.923 162.008 692.491 163.224 694.891 163.224C697.579 163.224 699.307 161.528 699.307 158.904V156.28C698.315 157.752 696.363 158.68 694.091 158.68C689.611 158.68 686.667 155.32 686.667 150.744ZM690.603 150.648C690.603 153.304 692.299 155.288 694.859 155.288C697.547 155.288 699.211 153.4 699.211 150.648C699.211 147.96 697.579 146.104 694.859 146.104C692.267 146.104 690.603 148.056 690.603 150.648ZM719.748 159H715.844V135.192H719.78V145.24C720.772 143.704 722.628 142.712 724.9 142.712C728.804 142.712 730.852 145.176 730.852 149.272V159H726.948V150.2C726.948 147.544 725.636 146.264 723.652 146.264C721.188 146.264 719.748 147.992 719.748 150.36V159ZM736.64 140.024C735.296 140.024 734.24 138.968 734.24 137.656C734.24 136.344 735.296 135.32 736.64 135.32C737.92 135.32 738.976 136.344 738.976 137.656C738.976 138.968 737.92 140.024 736.64 140.024ZM734.688 159V143.192H738.592V159H734.688ZM748.001 159H744.097V146.456H741.057V143.192H744.097V138.264H748.001V143.192H751.073V146.456H748.001V159ZM758.14 151.992H755.004C754.588 149.432 754.3 145.144 754.3 140.984V135.608H758.908V140.984C758.908 145.24 758.588 149.528 758.14 151.992ZM756.604 159.416C755.164 159.416 753.98 158.264 753.98 156.888C753.98 155.48 755.164 154.328 756.604 154.328C757.98 154.328 759.164 155.48 759.164 156.888C759.164 158.264 757.98 159.416 756.604 159.416Z" fill="white"/>
<path d="M557.854 107.744C557.854 103.136 560.862 99.68 565.374 99.68C567.742 99.68 569.598 100.672 570.526 102.368L570.75 100.192H574.366V115.2C574.366 120.48 571.198 123.776 566.078 123.776C561.534 123.776 558.43 121.184 557.95 116.96H561.854C562.11 119.008 563.678 120.224 566.078 120.224C568.766 120.224 570.494 118.528 570.494 115.904V113.28C569.502 114.752 567.55 115.68 565.278 115.68C560.798 115.68 557.854 112.32 557.854 107.744ZM561.79 107.648C561.79 110.304 563.486 112.288 566.046 112.288C568.734 112.288 570.398 110.4 570.398 107.648C570.398 104.96 568.766 103.104 566.046 103.104C563.454 103.104 561.79 105.056 561.79 107.648ZM583.111 116.416C579.751 116.416 577.703 114.464 577.703 111.488C577.703 108.576 579.815 106.752 583.559 106.464L588.295 106.112V105.76C588.295 103.616 587.015 102.752 585.031 102.752C582.727 102.752 581.447 103.712 581.447 105.376H578.119C578.119 101.952 580.935 99.712 585.223 99.712C589.479 99.712 592.103 102.016 592.103 106.4V116H588.679L588.391 113.664C587.719 115.296 585.575 116.416 583.111 116.416ZM584.391 113.472C586.791 113.472 588.327 112.032 588.327 109.6V108.768L585.031 109.024C582.599 109.248 581.671 110.048 581.671 111.328C581.671 112.768 582.631 113.472 584.391 113.472ZM599.842 116H595.938V100.192H599.522L599.842 102.048C600.642 100.736 602.242 99.712 604.514 99.712C606.914 99.712 608.578 100.896 609.41 102.72C610.21 100.896 612.066 99.712 614.466 99.712C618.306 99.712 620.418 102.016 620.418 105.664V116H616.546V106.688C616.546 104.416 615.33 103.232 613.474 103.232C611.586 103.232 610.146 104.448 610.146 107.04V116H606.242V106.656C606.242 104.448 605.058 103.264 603.202 103.264C601.346 103.264 599.842 104.48 599.842 107.04V116ZM626.202 97.024C624.858 97.024 623.802 95.968 623.802 94.656C623.802 93.344 624.858 92.32 626.202 92.32C627.482 92.32 628.538 93.344 628.538 94.656C628.538 95.968 627.482 97.024 626.202 97.024ZM624.25 116V100.192H628.154V116H624.25ZM636.092 116H632.188V100.192H635.804L636.124 102.24C637.116 100.64 639.036 99.712 641.18 99.712C645.148 99.712 647.196 102.176 647.196 106.272V116H643.292V107.2C643.292 104.544 641.98 103.264 639.964 103.264C637.564 103.264 636.092 104.928 636.092 107.488V116ZM650.136 107.744C650.136 103.136 653.144 99.68 657.656 99.68C660.024 99.68 661.88 100.672 662.808 102.368L663.032 100.192H666.648V115.2C666.648 120.48 663.48 123.776 658.36 123.776C653.816 123.776 650.712 121.184 650.232 116.96H654.136C654.392 119.008 655.96 120.224 658.36 120.224C661.048 120.224 662.776 118.528 662.776 115.904V113.28C661.784 114.752 659.832 115.68 657.56 115.68C653.08 115.68 650.136 112.32 650.136 107.744ZM654.072 107.648C654.072 110.304 655.768 112.288 658.328 112.288C661.016 112.288 662.68 110.4 662.68 107.648C662.68 104.96 661.048 103.104 658.328 103.104C655.736 103.104 654.072 105.056 654.072 107.648ZM686.385 116.416C681.681 116.416 678.385 112.992 678.385 108.096C678.385 103.136 681.617 99.712 686.257 99.712C690.993 99.712 694.001 102.88 694.001 107.808V108.992L682.097 109.024C682.385 111.808 683.857 113.216 686.449 113.216C688.593 113.216 690.001 112.384 690.449 110.88H694.065C693.393 114.336 690.513 116.416 686.385 116.416ZM686.289 102.912C683.985 102.912 682.577 104.16 682.193 106.528H690.129C690.129 104.352 688.625 102.912 686.289 102.912ZM699.159 116H694.711L700.151 108.256L694.711 100.192H699.255L702.743 105.568L706.103 100.192H710.487L705.111 108.192L710.327 116H705.847L702.487 110.784L699.159 116ZM712.813 123.328V100.192H716.429L716.685 102.592C717.645 100.768 719.725 99.712 722.125 99.712C726.573 99.712 729.517 102.944 729.517 107.904C729.517 112.832 726.829 116.416 722.125 116.416C719.757 116.416 717.709 115.488 716.717 113.888V123.328H712.813ZM716.749 108.096C716.749 110.944 718.509 112.896 721.197 112.896C723.949 112.896 725.581 110.912 725.581 108.096C725.581 105.28 723.949 103.264 721.197 103.264C718.509 103.264 716.749 105.248 716.749 108.096ZM739.697 116.416C734.993 116.416 731.697 112.992 731.697 108.096C731.697 103.136 734.929 99.712 739.569 99.712C744.305 99.712 747.313 102.88 747.313 107.808V108.992L735.409 109.024C735.697 111.808 737.169 113.216 739.761 113.216C741.905 113.216 743.313 112.384 743.761 110.88H747.377C746.705 114.336 743.825 116.416 739.697 116.416ZM739.601 102.912C737.297 102.912 735.889 104.16 735.505 106.528H743.441C743.441 104.352 741.937 102.912 739.601 102.912ZM760.358 100.128V103.744H758.918C756.102 103.744 754.342 105.248 754.342 108.32V116H750.438V100.224H754.118L754.342 102.528C755.014 100.96 756.518 99.904 758.63 99.904C759.174 99.904 759.718 99.968 760.358 100.128ZM764.952 97.024C763.608 97.024 762.552 95.968 762.552 94.656C762.552 93.344 763.608 92.32 764.952 92.32C766.232 92.32 767.288 93.344 767.288 94.656C767.288 95.968 766.232 97.024 764.952 97.024ZM763 116V100.192H766.904V116H763ZM778.01 116.416C773.306 116.416 770.01 112.992 770.01 108.096C770.01 103.136 773.242 99.712 777.882 99.712C782.618 99.712 785.626 102.88 785.626 107.808V108.992L773.722 109.024C774.01 111.808 775.482 113.216 778.074 113.216C780.218 113.216 781.626 112.384 782.074 110.88H785.69C785.018 114.336 782.138 116.416 778.01 116.416ZM777.914 102.912C775.61 102.912 774.202 104.16 773.818 106.528H781.754C781.754 104.352 780.25 102.912 777.914 102.912ZM792.654 116H788.75V100.192H792.366L792.686 102.24C793.678 100.64 795.598 99.712 797.742 99.712C801.71 99.712 803.758 102.176 803.758 106.272V116H799.854V107.2C799.854 104.544 798.542 103.264 796.526 103.264C794.126 103.264 792.654 104.928 792.654 107.488V116ZM806.666 108.064C806.666 103.168 809.898 99.712 814.57 99.712C818.89 99.712 821.834 102.112 822.25 105.92H818.346C817.898 104.128 816.586 103.2 814.73 103.2C812.234 103.2 810.57 105.088 810.57 108.064C810.57 111.04 812.106 112.896 814.602 112.896C816.554 112.896 817.93 111.936 818.346 110.208H822.282C821.802 113.888 818.73 116.416 814.602 116.416C809.802 116.416 806.666 113.088 806.666 108.064ZM832.26 116.416C827.556 116.416 824.26 112.992 824.26 108.096C824.26 103.136 827.492 99.712 832.132 99.712C836.868 99.712 839.876 102.88 839.876 107.808V108.992L827.972 109.024C828.26 111.808 829.732 113.216 832.324 113.216C834.468 113.216 835.876 112.384 836.324 110.88H839.94C839.268 114.336 836.388 116.416 832.26 116.416ZM832.164 102.912C829.86 102.912 828.452 104.16 828.068 106.528H836.004C836.004 104.352 834.5 102.912 832.164 102.912ZM844.656 116.384C843.248 116.384 842.064 115.232 842.064 113.856C842.064 112.448 843.248 111.296 844.656 111.296C846.064 111.296 847.248 112.448 847.248 113.856C847.248 115.232 846.064 116.384 844.656 116.384Z" fill="url(#paint2_linear_118_1142)"/>
<defs>
<linearGradient id="paint0_linear_118_1142" x1="767" y1="1" x2="176.145" y2="1" gradientUnits="userSpaceOnUse">
<stop offset="0.0620032" stop-color="white" stop-opacity="0"/>
<stop offset="0.545" stop-color="white"/>
<stop offset="0.895617" stop-color="white" stop-opacity="0"/>
</linearGradient>
<linearGradient id="paint1_linear_118_1142" x1="767" y1="213" x2="176.145" y2="213" gradientUnits="userSpaceOnUse">
<stop offset="0.0620032" stop-color="white" stop-opacity="0"/>
<stop offset="0.545" stop-color="white"/>
<stop offset="0.895617" stop-color="white" stop-opacity="0"/>
</linearGradient>
<linearGradient id="paint2_linear_118_1142" x1="1163.79" y1="-60.975" x2="1133.91" y2="404.827" gradientUnits="userSpaceOnUse">
<stop offset="0.365638" stop-color="#3F37C9"/>
<stop offset="1" stop-color="#4CC9F0"/>
</linearGradient>
</defs>
</svg>
