<svg width="1104" height="80" viewBox="0 0 1104 80" fill="none" xmlns="http://www.w3.org/2000/svg">
<g filter="url(#filter0_b_9_744)">
<rect width="1104" height="80" rx="40" fill="url(#paint0_linear_9_744)"/>
<rect x="0.5" y="0.5" width="1103" height="79" rx="39.5" stroke="url(#paint1_linear_9_744)"/>
<path fill-rule="evenodd" clip-rule="evenodd" d="M56.8942 41.2727C56.2618 47.025 51.3936 51.4999 45.4818 51.4999C39.1406 51.4999 34 46.3512 34 39.9999C34 33.6487 39.1406 28.5 45.4818 28.5C48.5119 28.5 51.2678 29.6756 53.3197 31.5962H49.8442V32.5618C48.5649 31.8075 47.0738 31.3748 45.4818 31.3748C40.7258 31.3748 36.8704 35.2363 36.8704 39.9998C36.8704 44.7632 40.7258 48.6247 45.4818 48.6247C49.8059 48.6247 53.3857 45.4325 54 41.2727H56.8942Z" fill="white"/>
<path d="M56.8942 41.2727L57.4834 41.3374L57.5557 40.6799H56.8942V41.2727ZM53.3197 31.5962V32.189H54.8205L53.7248 31.1634L53.3197 31.5962ZM49.8442 31.5962V31.0034H49.2515V31.5962H49.8442ZM49.8442 32.5618L49.5432 33.0725L50.437 33.5995V32.5618H49.8442ZM54 41.2727V40.6799H53.4884L53.4136 41.1861L54 41.2727ZM45.4818 52.0927C51.7 52.0927 56.8185 47.3862 57.4834 41.3374L56.3049 41.2079C55.7052 46.6638 51.0872 50.9071 45.4818 50.9071V52.0927ZM33.4072 39.9999C33.4072 46.6777 38.8123 52.0927 45.4818 52.0927V50.9071C39.4689 50.9071 34.5928 46.0247 34.5928 39.9999H33.4072ZM45.4818 27.9072C38.8123 27.9072 33.4072 33.3222 33.4072 39.9999H34.5928C34.5928 33.9752 39.4689 29.0928 45.4818 29.0928V27.9072ZM53.7248 31.1634C51.5675 29.1441 48.6683 27.9072 45.4818 27.9072V29.0928C48.3555 29.0928 50.9681 30.207 52.9146 32.029L53.7248 31.1634ZM49.8442 32.189H53.3197V31.0034H49.8442V32.189ZM50.437 32.5618V31.5962H49.2515V32.5618H50.437ZM50.1453 32.0512C48.7773 31.2446 47.1826 30.782 45.4818 30.782V31.9676C46.965 31.9676 48.3525 32.3704 49.5432 33.0725L50.1453 32.0512ZM45.4818 30.782C40.3976 30.782 36.2776 34.9098 36.2776 39.9998H37.4632C37.4632 35.5628 41.0541 31.9676 45.4818 31.9676V30.782ZM36.2776 39.9998C36.2776 45.0897 40.3976 49.2175 45.4818 49.2175V48.0319C41.0541 48.0319 37.4632 44.4367 37.4632 39.9998H36.2776ZM45.4818 49.2175C50.1049 49.2175 53.9299 45.805 54.5865 41.3593L53.4136 41.1861C52.8414 45.0601 49.507 48.0319 45.4818 48.0319V49.2175ZM56.8942 40.6799H54V41.8655H56.8942V40.6799Z" fill="white"/>
<path fill-rule="evenodd" clip-rule="evenodd" d="M53.3225 49.629C55.1271 50.8121 57.2846 51.5 59.6024 51.5C65.9437 51.5 71.0843 46.3513 71.0843 40.0001C71.0843 33.6488 65.9437 28.5001 59.6024 28.5001C53.2612 28.5001 48.1206 33.6488 48.1206 40.0001C48.1206 40.0373 48.1208 40.0744 48.1211 40.1116L50.9918 40.1116C50.9914 40.0745 50.9911 40.0374 50.9911 40.0002C50.9911 35.2368 54.8466 31.3753 59.6025 31.3753C64.3584 31.3753 68.2139 35.2368 68.2139 40.0002C68.2139 44.7637 64.3584 48.6252 59.6025 48.6252C57.1259 48.6252 54.8934 47.578 53.3225 45.9017V49.629Z" fill="white"/>
<path d="M53.3225 49.629H52.7297V49.9492L52.9975 50.1247L53.3225 49.629ZM48.1211 40.1116L47.5284 40.1172L47.534 40.7044H48.1211V40.1116ZM50.9918 40.1116V40.7044H51.5921L51.5846 40.1041L50.9918 40.1116ZM53.3225 45.9017L53.755 45.4963L52.7297 44.4022V45.9017H53.3225ZM52.9975 50.1247C54.8957 51.3692 57.1656 52.0928 59.6024 52.0928V50.9072C57.4036 50.9072 55.3585 50.255 53.6475 49.1332L52.9975 50.1247ZM59.6024 52.0928C66.272 52.0928 71.6771 46.6778 71.6771 40.0001H70.4915C70.4915 46.0248 65.6154 50.9072 59.6024 50.9072V52.0928ZM71.6771 40.0001C71.6771 33.3223 66.272 27.9073 59.6024 27.9073V29.0929C65.6154 29.0929 70.4915 33.9753 70.4915 40.0001H71.6771ZM59.6024 27.9073C52.9329 27.9073 47.5278 33.3223 47.5278 40.0001H48.7134C48.7134 33.9753 53.5895 29.0929 59.6024 29.0929V27.9073ZM47.5278 40.0001C47.5278 40.0391 47.528 40.0782 47.5284 40.1172L48.7139 40.106C48.7136 40.0707 48.7134 40.0354 48.7134 40.0001H47.5278ZM48.1211 40.7044L50.9918 40.7044V39.5188L48.1211 39.5188V40.7044ZM50.3983 40.0002C50.3983 40.0399 50.3986 40.0795 50.3991 40.1191L51.5846 40.1041C51.5841 40.0695 51.5839 40.0349 51.5839 40.0002H50.3983ZM59.6025 30.7825C54.5183 30.7825 50.3983 34.9103 50.3983 40.0002H51.5839C51.5839 35.5633 55.1748 31.9681 59.6025 31.9681V30.7825ZM68.8067 40.0002C68.8067 34.9103 64.6867 30.7825 59.6025 30.7825V31.9681C64.0302 31.9681 67.6211 35.5633 67.6211 40.0002H68.8067ZM59.6025 49.218C64.6867 49.218 68.8067 45.0902 68.8067 40.0002H67.6211C67.6211 44.4372 64.0302 48.0324 59.6025 48.0324V49.218ZM52.8899 46.307C54.5682 48.0979 56.9551 49.218 59.6025 49.218V48.0324C57.2967 48.0324 55.2187 47.0582 53.755 45.4963L52.8899 46.307ZM52.7297 45.9017V49.629H53.9153V45.9017H52.7297Z" fill="white"/>
<g filter="url(#filter1_b_9_744)">
<path d="M231.152 47H229.104V35.304H231.152V40.136H236.336V35.304H238.384V47H236.336V42.04H231.152V47ZM240.227 43.032C240.227 40.568 242.003 38.872 244.451 38.872C246.899 38.872 248.675 40.568 248.675 43.032C248.675 45.496 246.899 47.192 244.451 47.192C242.003 47.192 240.227 45.496 240.227 43.032ZM242.179 43.032C242.179 44.472 243.107 45.448 244.451 45.448C245.795 45.448 246.723 44.472 246.723 43.032C246.723 41.592 245.795 40.616 244.451 40.616C243.107 40.616 242.179 41.592 242.179 43.032ZM252.174 47H250.222V39.096H252.014L252.174 40.024C252.574 39.368 253.374 38.856 254.51 38.856C255.71 38.856 256.542 39.448 256.958 40.36C257.358 39.448 258.286 38.856 259.486 38.856C261.406 38.856 262.462 40.008 262.462 41.832V47H260.526V42.344C260.526 41.208 259.918 40.616 258.99 40.616C258.046 40.616 257.326 41.224 257.326 42.52V47H255.374V42.328C255.374 41.224 254.782 40.632 253.854 40.632C252.926 40.632 252.174 41.24 252.174 42.52V47ZM267.914 47.208C265.562 47.208 263.914 45.496 263.914 43.048C263.914 40.568 265.53 38.856 267.85 38.856C270.218 38.856 271.722 40.44 271.722 42.904V43.496L265.77 43.512C265.914 44.904 266.65 45.608 267.946 45.608C269.018 45.608 269.722 45.192 269.946 44.44H271.754C271.418 46.168 269.978 47.208 267.914 47.208ZM267.866 40.456C266.714 40.456 266.01 41.08 265.818 42.264H269.786C269.786 41.176 269.034 40.456 267.866 40.456Z" fill="white"/>
</g>
<g filter="url(#filter2_b_9_744)">
<path d="M324.351 47H320.143V35.304H324.239C327.695 35.304 330.079 37.688 330.079 41.176C330.079 44.616 327.743 47 324.351 47ZM324.047 37.192H322.191V45.112H324.159C326.495 45.112 327.919 43.608 327.919 41.176C327.919 38.696 326.463 37.192 324.047 37.192ZM331.235 43.032C331.235 40.568 333.011 38.872 335.459 38.872C337.907 38.872 339.683 40.568 339.683 43.032C339.683 45.496 337.907 47.192 335.459 47.192C333.011 47.192 331.235 45.496 331.235 43.032ZM333.187 43.032C333.187 44.472 334.115 45.448 335.459 45.448C336.803 45.448 337.731 44.472 337.731 43.032C337.731 41.592 336.803 40.616 335.459 40.616C334.115 40.616 333.187 41.592 333.187 43.032ZM340.766 43.032C340.766 40.584 342.382 38.856 344.718 38.856C346.878 38.856 348.35 40.056 348.558 41.96H346.606C346.382 41.064 345.726 40.6 344.798 40.6C343.55 40.6 342.718 41.544 342.718 43.032C342.718 44.52 343.486 45.448 344.734 45.448C345.71 45.448 346.398 44.968 346.606 44.104H348.574C348.334 45.944 346.798 47.208 344.734 47.208C342.334 47.208 340.766 45.544 340.766 43.032ZM355.387 39.096H357.339V47H355.531L355.387 45.944C354.907 46.696 353.883 47.208 352.827 47.208C351.003 47.208 349.931 45.976 349.931 44.04V39.096H351.883V43.352C351.883 44.856 352.475 45.464 353.563 45.464C354.795 45.464 355.387 44.744 355.387 43.24V39.096ZM361.307 47H359.355V39.096H361.147L361.307 40.024C361.707 39.368 362.507 38.856 363.643 38.856C364.843 38.856 365.675 39.448 366.091 40.36C366.491 39.448 367.419 38.856 368.619 38.856C370.539 38.856 371.595 40.008 371.595 41.832V47H369.659V42.344C369.659 41.208 369.051 40.616 368.123 40.616C367.179 40.616 366.459 41.224 366.459 42.52V47H364.507V42.328C364.507 41.224 363.915 40.632 362.987 40.632C362.059 40.632 361.307 41.24 361.307 42.52V47ZM377.047 47.208C374.695 47.208 373.047 45.496 373.047 43.048C373.047 40.568 374.663 38.856 376.983 38.856C379.351 38.856 380.855 40.44 380.855 42.904V43.496L374.903 43.512C375.047 44.904 375.783 45.608 377.079 45.608C378.151 45.608 378.855 45.192 379.079 44.44H380.887C380.551 46.168 379.111 47.208 377.047 47.208ZM376.999 40.456C375.847 40.456 375.143 41.08 374.951 42.264H378.919C378.919 41.176 378.167 40.456 376.999 40.456ZM384.369 47H382.417V39.096H384.225L384.385 40.12C384.881 39.32 385.841 38.856 386.913 38.856C388.897 38.856 389.921 40.088 389.921 42.136V47H387.969V42.6C387.969 41.272 387.313 40.632 386.305 40.632C385.105 40.632 384.369 41.464 384.369 42.744V47ZM394.527 47H392.575V40.728H391.055V39.096H392.575V36.632H394.527V39.096H396.063V40.728H394.527V47ZM399.582 47.208C397.902 47.208 396.878 46.232 396.878 44.744C396.878 43.288 397.934 42.376 399.806 42.232L402.174 42.056V41.88C402.174 40.808 401.534 40.376 400.542 40.376C399.39 40.376 398.75 40.856 398.75 41.688H397.086C397.086 39.976 398.494 38.856 400.638 38.856C402.766 38.856 404.078 40.008 404.078 42.2V47H402.366L402.222 45.832C401.886 46.648 400.814 47.208 399.582 47.208ZM400.222 45.736C401.422 45.736 402.19 45.016 402.19 43.8V43.384L400.542 43.512C399.326 43.624 398.862 44.024 398.862 44.664C398.862 45.384 399.342 45.736 400.222 45.736ZM408.574 47H406.622V40.728H405.102V39.096H406.622V36.632H408.574V39.096H410.11V40.728H408.574V47ZM412.3 37.512C411.628 37.512 411.1 36.984 411.1 36.328C411.1 35.672 411.628 35.16 412.3 35.16C412.94 35.16 413.468 35.672 413.468 36.328C413.468 36.984 412.94 37.512 412.3 37.512ZM411.324 47V39.096H413.276V47H411.324ZM414.828 43.032C414.828 40.568 416.604 38.872 419.052 38.872C421.5 38.872 423.276 40.568 423.276 43.032C423.276 45.496 421.5 47.192 419.052 47.192C416.604 47.192 414.828 45.496 414.828 43.032ZM416.78 43.032C416.78 44.472 417.708 45.448 419.052 45.448C420.396 45.448 421.324 44.472 421.324 43.032C421.324 41.592 420.396 40.616 419.052 40.616C417.708 40.616 416.78 41.592 416.78 43.032ZM426.776 47H424.824V39.096H426.632L426.792 40.12C427.288 39.32 428.248 38.856 429.32 38.856C431.304 38.856 432.328 40.088 432.328 42.136V47H430.376V42.6C430.376 41.272 429.72 40.632 428.712 40.632C427.512 40.632 426.776 41.464 426.776 42.744V47Z" fill="white"/>
</g>
<g filter="url(#filter3_b_9_744)">
<path d="M481.237 47V35.304H485.893C488.197 35.304 489.605 36.504 489.605 38.456C489.605 39.752 489.029 40.68 487.925 41.144C489.157 41.544 489.781 42.472 489.781 43.832C489.781 45.832 488.389 47 485.973 47H481.237ZM485.717 37.112H483.285V40.296H485.765C486.885 40.296 487.509 39.704 487.509 38.664C487.509 37.656 486.869 37.112 485.717 37.112ZM485.893 42.024H483.285V45.192H485.893C487.045 45.192 487.685 44.632 487.685 43.576C487.685 42.584 487.029 42.024 485.893 42.024ZM493.338 47H491.402V35.096H493.338V47ZM494.922 43.032C494.922 40.568 496.698 38.872 499.146 38.872C501.594 38.872 503.37 40.568 503.37 43.032C503.37 45.496 501.594 47.192 499.146 47.192C496.698 47.192 494.922 45.496 494.922 43.032ZM496.874 43.032C496.874 44.472 497.802 45.448 499.146 45.448C500.49 45.448 501.418 44.472 501.418 43.032C501.418 41.592 500.49 40.616 499.146 40.616C497.802 40.616 496.874 41.592 496.874 43.032ZM504.469 42.872C504.469 40.568 505.973 38.84 508.229 38.84C509.413 38.84 510.341 39.336 510.805 40.184L510.917 39.096H512.725V46.6C512.725 49.24 511.141 50.888 508.581 50.888C506.309 50.888 504.757 49.592 504.517 47.48H506.469C506.597 48.504 507.381 49.112 508.581 49.112C509.925 49.112 510.789 48.264 510.789 46.952V45.64C510.293 46.376 509.317 46.84 508.181 46.84C505.941 46.84 504.469 45.16 504.469 42.872ZM506.437 42.824C506.437 44.152 507.285 45.144 508.565 45.144C509.909 45.144 510.741 44.2 510.741 42.824C510.741 41.48 509.925 40.552 508.565 40.552C507.269 40.552 506.437 41.528 506.437 42.824ZM514.137 44.6H515.993C516.009 45.288 516.521 45.72 517.417 45.72C518.329 45.72 518.825 45.352 518.825 44.776C518.825 44.376 518.617 44.088 517.913 43.928L516.489 43.592C515.065 43.272 514.377 42.6 514.377 41.336C514.377 39.784 515.689 38.856 517.513 38.856C519.289 38.856 520.489 39.88 520.505 41.416H518.649C518.633 40.744 518.185 40.312 517.433 40.312C516.665 40.312 516.217 40.664 516.217 41.256C516.217 41.704 516.569 41.992 517.241 42.152L518.665 42.488C519.993 42.792 520.665 43.4 520.665 44.616C520.665 46.216 519.305 47.208 517.353 47.208C515.385 47.208 514.137 46.152 514.137 44.6Z" fill="white"/>
</g>
<g filter="url(#filter4_b_9_744)">
<path d="M571.214 35.304V45.112H576.11V47H569.166V35.304H571.214ZM579.373 42.392L575.421 35.304H577.709L580.013 39.56C580.189 39.88 580.301 40.136 580.429 40.424C580.573 40.136 580.637 39.944 580.845 39.56L583.133 35.304H585.357L581.421 42.392V47H579.373V42.392ZM588.823 47H586.807V35.304H588.839L594.327 43.592V35.304H596.343V47H594.327L588.823 38.712V47ZM603.876 47.192C600.468 47.192 598.26 44.824 598.26 41.16C598.26 37.528 600.548 35.112 603.972 35.112C606.74 35.112 608.804 36.728 609.204 39.24H607.044C606.644 37.88 605.476 37.08 603.924 37.08C601.764 37.08 600.404 38.648 600.404 41.144C600.404 43.624 601.78 45.224 603.924 45.224C605.508 45.224 606.724 44.392 607.108 43.096H609.236C608.788 45.56 606.644 47.192 603.876 47.192ZM620.009 42.968H617.433V47H615.385V35.304H620.009C622.361 35.304 623.881 36.84 623.881 39.128C623.881 41.384 622.345 42.968 620.009 42.968ZM619.609 37.128H617.433V41.144H619.577C620.985 41.144 621.737 40.392 621.737 39.112C621.737 37.832 620.969 37.128 619.609 37.128ZM624.461 43.032C624.461 40.568 626.237 38.872 628.685 38.872C631.133 38.872 632.909 40.568 632.909 43.032C632.909 45.496 631.133 47.192 628.685 47.192C626.237 47.192 624.461 45.496 624.461 43.032ZM626.413 43.032C626.413 44.472 627.341 45.448 628.685 45.448C630.029 45.448 630.957 44.472 630.957 43.032C630.957 41.592 630.029 40.616 628.685 40.616C627.341 40.616 626.413 41.592 626.413 43.032ZM639.416 39.064V40.872H638.696C637.288 40.872 636.408 41.624 636.408 43.16V47H634.456V39.112H636.296L636.408 40.264C636.744 39.48 637.496 38.952 638.552 38.952C638.824 38.952 639.096 38.984 639.416 39.064ZM643.738 47H641.786V40.728H640.266V39.096H641.786V36.632H643.738V39.096H645.274V40.728H643.738V47ZM648.793 47.208C647.113 47.208 646.089 46.232 646.089 44.744C646.089 43.288 647.145 42.376 649.017 42.232L651.385 42.056V41.88C651.385 40.808 650.745 40.376 649.753 40.376C648.601 40.376 647.961 40.856 647.961 41.688H646.297C646.297 39.976 647.705 38.856 649.849 38.856C651.977 38.856 653.289 40.008 653.289 42.2V47H651.577L651.433 45.832C651.097 46.648 650.025 47.208 648.793 47.208ZM649.433 45.736C650.633 45.736 651.401 45.016 651.401 43.8V43.384L649.753 43.512C648.537 43.624 648.073 44.024 648.073 44.664C648.073 45.384 648.553 45.736 649.433 45.736ZM657.174 47H655.238V35.096H657.174V47Z" fill="white"/>
</g>
<g filter="url(#filter5_b_9_744)">
<path d="M707.996 47H705.948V35.304H710.412C713.068 35.304 714.62 36.648 714.62 38.952C714.62 40.52 713.884 41.64 712.508 42.2L714.732 47H712.492L710.508 42.632H707.996V47ZM707.996 37.128V40.824H710.412C711.708 40.824 712.476 40.136 712.476 38.952C712.476 37.784 711.708 37.128 710.412 37.128H707.996ZM719.352 47.208C717 47.208 715.352 45.496 715.352 43.048C715.352 40.568 716.968 38.856 719.288 38.856C721.656 38.856 723.16 40.44 723.16 42.904V43.496L717.208 43.512C717.352 44.904 718.088 45.608 719.384 45.608C720.456 45.608 721.16 45.192 721.384 44.44H723.192C722.856 46.168 721.416 47.208 719.352 47.208ZM719.304 40.456C718.152 40.456 717.448 41.08 717.256 42.264H721.224C721.224 41.176 720.472 40.456 719.304 40.456ZM724.258 42.952C724.258 40.472 725.73 38.856 727.954 38.856C729.154 38.856 730.194 39.384 730.674 40.296L730.802 39.096H732.594V50.664H730.658V45.944C730.162 46.744 729.122 47.208 727.954 47.208C725.602 47.208 724.258 45.416 724.258 42.952ZM726.21 43.048C726.21 44.456 727.042 45.448 728.402 45.448C729.762 45.448 730.642 44.472 730.642 43.048C730.642 41.624 729.762 40.632 728.402 40.632C727.042 40.632 726.21 41.64 726.21 43.048ZM739.988 39.096H741.94V47H740.132L739.988 45.944C739.508 46.696 738.484 47.208 737.428 47.208C735.604 47.208 734.532 45.976 734.532 44.04V39.096H736.484V43.352C736.484 44.856 737.076 45.464 738.164 45.464C739.396 45.464 739.988 44.744 739.988 43.24V39.096ZM747.336 47.208C744.984 47.208 743.336 45.496 743.336 43.048C743.336 40.568 744.952 38.856 747.272 38.856C749.64 38.856 751.144 40.44 751.144 42.904V43.496L745.192 43.512C745.336 44.904 746.072 45.608 747.368 45.608C748.44 45.608 749.144 45.192 749.368 44.44H751.176C750.84 46.168 749.4 47.208 747.336 47.208ZM747.288 40.456C746.136 40.456 745.432 41.08 745.24 42.264H749.208C749.208 41.176 748.456 40.456 747.288 40.456ZM752.098 44.6H753.954C753.97 45.288 754.482 45.72 755.378 45.72C756.29 45.72 756.786 45.352 756.786 44.776C756.786 44.376 756.578 44.088 755.874 43.928L754.45 43.592C753.026 43.272 752.338 42.6 752.338 41.336C752.338 39.784 753.65 38.856 755.474 38.856C757.25 38.856 758.45 39.88 758.466 41.416H756.61C756.594 40.744 756.146 40.312 755.394 40.312C754.626 40.312 754.178 40.664 754.178 41.256C754.178 41.704 754.53 41.992 755.202 42.152L756.626 42.488C757.954 42.792 758.626 43.4 758.626 44.616C758.626 46.216 757.266 47.208 755.314 47.208C753.346 47.208 752.098 46.152 752.098 44.6ZM762.801 47H760.849V40.728H759.329V39.096H760.849V36.632H762.801V39.096H764.337V40.728H762.801V47ZM772.215 47.208C770.535 47.208 769.511 46.232 769.511 44.744C769.511 43.288 770.567 42.376 772.439 42.232L774.807 42.056V41.88C774.807 40.808 774.167 40.376 773.175 40.376C772.023 40.376 771.383 40.856 771.383 41.688H769.719C769.719 39.976 771.127 38.856 773.271 38.856C775.399 38.856 776.711 40.008 776.711 42.2V47H774.999L774.855 45.832C774.519 46.648 773.447 47.208 772.215 47.208ZM772.855 45.736C774.055 45.736 774.823 45.016 774.823 43.8V43.384L773.175 43.512C771.959 43.624 771.495 44.024 771.495 44.664C771.495 45.384 771.975 45.736 772.855 45.736ZM786.189 47.208C783.901 47.208 782.477 45.528 782.477 43.08C782.477 40.616 783.917 38.856 786.301 38.856C787.405 38.856 788.381 39.32 788.877 40.104V35.096H790.813V47H789.021L788.893 45.768C788.413 46.68 787.389 47.208 786.189 47.208ZM786.621 45.416C787.981 45.416 788.861 44.44 788.861 43.016C788.861 41.592 787.981 40.6 786.621 40.6C785.261 40.6 784.429 41.608 784.429 43.016C784.429 44.424 785.261 45.416 786.621 45.416ZM796.383 47.208C794.031 47.208 792.383 45.496 792.383 43.048C792.383 40.568 793.999 38.856 796.319 38.856C798.687 38.856 800.191 40.44 800.191 42.904V43.496L794.239 43.512C794.383 44.904 795.119 45.608 796.415 45.608C797.487 45.608 798.191 45.192 798.415 44.44H800.223C799.887 46.168 798.447 47.208 796.383 47.208ZM796.335 40.456C795.183 40.456 794.479 41.08 794.287 42.264H798.255C798.255 41.176 797.503 40.456 796.335 40.456ZM803.705 47H801.753V39.096H803.545L803.705 40.024C804.105 39.368 804.905 38.856 806.041 38.856C807.241 38.856 808.073 39.448 808.489 40.36C808.889 39.448 809.817 38.856 811.017 38.856C812.937 38.856 813.993 40.008 813.993 41.832V47H812.057V42.344C812.057 41.208 811.449 40.616 810.521 40.616C809.577 40.616 808.857 41.224 808.857 42.52V47H806.905V42.328C806.905 41.224 806.313 40.632 805.385 40.632C804.457 40.632 803.705 41.24 803.705 42.52V47ZM815.446 43.032C815.446 40.568 817.222 38.872 819.67 38.872C822.118 38.872 823.894 40.568 823.894 43.032C823.894 45.496 822.118 47.192 819.67 47.192C817.222 47.192 815.446 45.496 815.446 43.032ZM817.398 43.032C817.398 44.472 818.326 45.448 819.67 45.448C821.014 45.448 821.942 44.472 821.942 43.032C821.942 41.592 821.014 40.616 819.67 40.616C818.326 40.616 817.398 41.592 817.398 43.032Z" fill="white"/>
</g>
<rect x="953" y="20" width="131" height="40" rx="20" fill="white"/>
<path d="M972.614 36.278C970.584 36.278 969.422 37.748 969.422 39.96C969.422 42.242 970.738 43.488 972.628 43.488C974.406 43.488 975.484 42.508 975.484 40.87V40.828H972.39V39.246H977.15V45H975.638L975.526 43.824C974.966 44.608 973.804 45.154 972.418 45.154C969.548 45.154 967.546 43.068 967.546 39.918C967.546 36.81 969.576 34.598 972.656 34.598C974.994 34.598 976.8 35.956 977.094 38.042H975.204C974.882 36.838 973.846 36.278 972.614 36.278ZM982.177 45.182C980.119 45.182 978.677 43.684 978.677 41.542C978.677 39.372 980.091 37.874 982.121 37.874C984.193 37.874 985.509 39.26 985.509 41.416V41.934L980.301 41.948C980.427 43.166 981.071 43.782 982.205 43.782C983.143 43.782 983.759 43.418 983.955 42.76H985.537C985.243 44.272 983.983 45.182 982.177 45.182ZM982.135 39.274C981.127 39.274 980.511 39.82 980.343 40.856H983.815C983.815 39.904 983.157 39.274 982.135 39.274ZM989.41 45H987.702V39.512H986.372V38.084H987.702V35.928H989.41V38.084H990.754V39.512H989.41V45ZM995.557 42.9H997.181C997.195 43.502 997.643 43.88 998.427 43.88C999.225 43.88 999.659 43.558 999.659 43.054C999.659 42.704 999.477 42.452 998.861 42.312L997.615 42.018C996.369 41.738 995.767 41.15 995.767 40.044C995.767 38.686 996.915 37.874 998.511 37.874C1000.07 37.874 1001.12 38.77 1001.13 40.114H999.505C999.491 39.526 999.099 39.148 998.441 39.148C997.769 39.148 997.377 39.456 997.377 39.974C997.377 40.366 997.685 40.618 998.273 40.758L999.519 41.052C1000.68 41.318 1001.27 41.85 1001.27 42.914C1001.27 44.314 1000.08 45.182 998.371 45.182C996.649 45.182 995.557 44.258 995.557 42.9ZM1005.17 45H1003.46V39.512H1002.13V38.084H1003.46V35.928H1005.17V38.084H1006.52V39.512H1005.17V45ZM1009.84 45.182C1008.37 45.182 1007.48 44.328 1007.48 43.026C1007.48 41.752 1008.4 40.954 1010.04 40.828L1012.11 40.674V40.52C1012.11 39.582 1011.55 39.204 1010.68 39.204C1009.68 39.204 1009.12 39.624 1009.12 40.352H1007.66C1007.66 38.854 1008.89 37.874 1010.77 37.874C1012.63 37.874 1013.78 38.882 1013.78 40.8V45H1012.28L1012.15 43.978C1011.86 44.692 1010.92 45.182 1009.84 45.182ZM1010.4 43.894C1011.45 43.894 1012.13 43.264 1012.13 42.2V41.836L1010.68 41.948C1009.62 42.046 1009.21 42.396 1009.21 42.956C1009.21 43.586 1009.63 43.894 1010.4 43.894ZM1020.05 38.056V39.638H1019.42C1018.18 39.638 1017.41 40.296 1017.41 41.64V45H1015.71V38.098H1017.32L1017.41 39.106C1017.71 38.42 1018.37 37.958 1019.29 37.958C1019.53 37.958 1019.77 37.986 1020.05 38.056ZM1024.08 45H1022.37V39.512H1021.04V38.084H1022.37V35.928H1024.08V38.084H1025.42V39.512H1024.08V45ZM1029.76 45.182C1027.7 45.182 1026.26 43.684 1026.26 41.542C1026.26 39.372 1027.67 37.874 1029.7 37.874C1031.78 37.874 1033.09 39.26 1033.09 41.416V41.934L1027.88 41.948C1028.01 43.166 1028.65 43.782 1029.79 43.782C1030.73 43.782 1031.34 43.418 1031.54 42.76H1033.12C1032.83 44.272 1031.57 45.182 1029.76 45.182ZM1029.72 39.274C1028.71 39.274 1028.09 39.82 1027.93 40.856H1031.4C1031.4 39.904 1030.74 39.274 1029.72 39.274ZM1037.55 45.182C1035.55 45.182 1034.3 43.712 1034.3 41.57C1034.3 39.414 1035.56 37.874 1037.65 37.874C1038.61 37.874 1039.47 38.28 1039.9 38.966V34.584H1041.6V45H1040.03L1039.92 43.922C1039.5 44.72 1038.6 45.182 1037.55 45.182ZM1037.93 43.614C1039.12 43.614 1039.89 42.76 1039.89 41.514C1039.89 40.268 1039.12 39.4 1037.93 39.4C1036.74 39.4 1036.01 40.282 1036.01 41.514C1036.01 42.746 1036.74 43.614 1037.93 43.614Z" fill="#0E0D0D"/>
<path d="M1064 40L1064.35 39.6464L1064.71 40L1064.35 40.3536L1064 40ZM1052 40.5C1051.72 40.5 1051.5 40.2761 1051.5 40C1051.5 39.7239 1051.72 39.5 1052 39.5V40.5ZM1060.35 35.6464L1064.35 39.6464L1063.65 40.3536L1059.65 36.3536L1060.35 35.6464ZM1064.35 40.3536L1060.35 44.3536L1059.65 43.6464L1063.65 39.6464L1064.35 40.3536ZM1064 40.5H1052V39.5H1064V40.5Z" fill="#0E0D0D"/>
</g>
<defs>
<filter id="filter0_b_9_744" x="-250" y="-250" width="1604" height="580" filterUnits="userSpaceOnUse" color-interpolation-filters="sRGB">
<feFlood flood-opacity="0" result="BackgroundImageFix"/>
<feGaussianBlur in="BackgroundImageFix" stdDeviation="125"/>
<feComposite in2="SourceAlpha" operator="in" result="effect1_backgroundBlur_9_744"/>
<feBlend mode="normal" in="SourceGraphic" in2="effect1_backgroundBlur_9_744" result="shape"/>
</filter>
<filter id="filter1_b_9_744" x="-92.4579" y="-280" width="685" height="640" filterUnits="userSpaceOnUse" color-interpolation-filters="sRGB">
<feFlood flood-opacity="0" result="BackgroundImageFix"/>
<feGaussianBlur in="BackgroundImageFix" stdDeviation="150"/>
<feComposite in2="SourceAlpha" operator="in" result="effect1_backgroundBlur_9_744"/>
<feBlend mode="normal" in="SourceGraphic" in2="effect1_backgroundBlur_9_744" result="shape"/>
</filter>
<filter id="filter2_b_9_744" x="-1.45786" y="-280" width="755" height="640" filterUnits="userSpaceOnUse" color-interpolation-filters="sRGB">
<feFlood flood-opacity="0" result="BackgroundImageFix"/>
<feGaussianBlur in="BackgroundImageFix" stdDeviation="150"/>
<feComposite in2="SourceAlpha" operator="in" result="effect1_backgroundBlur_9_744"/>
<feBlend mode="normal" in="SourceGraphic" in2="effect1_backgroundBlur_9_744" result="shape"/>
</filter>
<filter id="filter3_b_9_744" x="159.542" y="-280" width="682" height="640" filterUnits="userSpaceOnUse" color-interpolation-filters="sRGB">
<feFlood flood-opacity="0" result="BackgroundImageFix"/>
<feGaussianBlur in="BackgroundImageFix" stdDeviation="150"/>
<feComposite in2="SourceAlpha" operator="in" result="effect1_backgroundBlur_9_744"/>
<feBlend mode="normal" in="SourceGraphic" in2="effect1_backgroundBlur_9_744" result="shape"/>
</filter>
<filter id="filter4_b_9_744" x="247.542" y="-280" width="731" height="640" filterUnits="userSpaceOnUse" color-interpolation-filters="sRGB">
<feFlood flood-opacity="0" result="BackgroundImageFix"/>
<feGaussianBlur in="BackgroundImageFix" stdDeviation="150"/>
<feComposite in2="SourceAlpha" operator="in" result="effect1_backgroundBlur_9_744"/>
<feBlend mode="normal" in="SourceGraphic" in2="effect1_backgroundBlur_9_744" result="shape"/>
</filter>
<filter id="filter5_b_9_744" x="384.542" y="-280" width="760" height="640" filterUnits="userSpaceOnUse" color-interpolation-filters="sRGB">
<feFlood flood-opacity="0" result="BackgroundImageFix"/>
<feGaussianBlur in="BackgroundImageFix" stdDeviation="150"/>
<feComposite in2="SourceAlpha" operator="in" result="effect1_backgroundBlur_9_744"/>
<feBlend mode="normal" in="SourceGraphic" in2="effect1_backgroundBlur_9_744" result="shape"/>
</filter>
<linearGradient id="paint0_linear_9_744" x1="509.051" y1="-189.841" x2="1165.74" y2="281.75" gradientUnits="userSpaceOnUse">
<stop stop-color="#D9D9D9" stop-opacity="0.07"/>
<stop offset="0.990529" stop-color="#D9D9D9" stop-opacity="0.05"/>
</linearGradient>
<linearGradient id="paint1_linear_9_744" x1="806.174" y1="-51.4286" x2="845.223" y2="289.899" gradientUnits="userSpaceOnUse">
<stop stop-color="white" stop-opacity="0.21"/>
<stop offset="1" stop-color="white" stop-opacity="0"/>
</linearGradient>
</defs>
</svg>
